<?xml version="1.0" encoding="UTF-8" standalone="no"?>
<svg
   xmlns:dc="http://purl.org/dc/elements/1.1/"
   xmlns:cc="http://creativecommons.org/ns#"
   xmlns:rdf="http://www.w3.org/1999/02/22-rdf-syntax-ns#"
   xmlns:svg="http://www.w3.org/2000/svg"
   xmlns="http://www.w3.org/2000/svg"
   xmlns:xlink="http://www.w3.org/1999/xlink"
   xmlns:sodipodi="http://sodipodi.sourceforge.net/DTD/sodipodi-0.dtd"
   xmlns:inkscape="http://www.inkscape.org/namespaces/inkscape"
   width="57.299999mm"
   height="57.299999mm"
   viewBox="0 0 57.299999 57.299999"
   version="1.1"
   id="svg8"
   inkscape:version="1.0beta1 (32d4812, 2019-09-19)"
   sodipodi:docname="anr.svg">
  <defs
     id="defs2">
    <inkscape:path-effect
       effect="powerclip"
       id="path-effect1278"
       is_visible="true"
       uri="#clipPath1274"
       inverse="true"
       flatten="false"
       hide_clip="false"
       is_inverse="true"
       message="Use fill-rule evenodd on &lt;b&gt;fill and stroke&lt;/b&gt; dialog if no flatten result after convert clip to paths." />
    <inkscape:path-effect
       effect="powerclip"
       id="path-effect1244"
       is_visible="true"
       uri="#clipPath1240"
       inverse="true"
       flatten="false"
       hide_clip="false"
       is_inverse="true"
       message="Use fill-rule evenodd on &lt;b&gt;fill and stroke&lt;/b&gt; dialog if no flatten result after convert clip to paths." />
    <clipPath
       clipPathUnits="userSpaceOnUse"
       id="clipPath1240">
      <path
         style="fill:none;stroke:#000000;stroke-width:0.264583px;stroke-linecap:butt;stroke-linejoin:miter;stroke-opacity:1"
         d="m 157.80506,1000061 1.5119,-1.3 2.83482,2.2 1.88988,1 3.59078,1.5 2.45684,0.6 3.02381,0.5 2.45685,-0.4 3.59077,-0.9 1.51191,-0.8 0.75595,2.1 -1.51191,0.8 -2.83482,0.9 -1.88988,0.4 -3.59077,-0.2 -3.2128,-0.6 -2.83482,-0.5 -3.40179,-1.7 -2.83482,-1.9 z"
         id="path1242"
         inkscape:connector-curvature="0" />
      <path
         id="lpe_path-effect1244"
         style="fill-rule:evenodd"
         d="m 157.80506,61.988094 1.5119,-1.322917 2.83482,2.267858 1.88988,0.944941 3.59078,1.511906 2.45684,0.566962 3.02381,0.566965 2.45685,-0.377978 3.59077,-0.944939 1.51191,-0.755951 0.75595,2.078868 -1.51191,0.755952 -2.83482,0.944941 -1.88988,0.377975 -3.59077,-0.188986 -3.2128,-0.566965 -2.83482,-0.566965 -3.40179,-1.700893 -2.83482,-1.889879 z m -5.93068,-35.791822 v 42.3 h 42.3 v -42.3 z"
         inkscape:connector-curvature="0" />
    </clipPath>
    <clipPath
       clipPathUnits="userSpaceOnUse"
       id="clipPath1274">
      <path
         style="fill:none;stroke:#000000;stroke-width:0.264583px;stroke-linecap:butt;stroke-linejoin:miter;stroke-opacity:1"
         d="m -199.19345,1000037.9 -2.26786,-0.9 -1.70089,5.1 0.18899,5.5 1.5119,9.6 2.45685,4.2 2.07887,-1.7 -1.32292,-3.1 -1.5119,-5.1 v -4.7 l -0.18899,-3.6 0.18899,-2.8 z"
         id="path1276"
         inkscape:connector-curvature="0" />
      <path
         id="lpe_path-effect1278"
         style="fill-rule:evenodd"
         d="m -199.19345,38.931548 -2.26786,-0.94494 -1.70089,5.102677 0.18899,5.480656 1.5119,9.638392 2.45685,4.15774 2.07887,-1.700896 -1.32292,-3.023809 -1.5119,-5.102677 v -4.724702 l -0.18899,-3.590774 0.18899,-2.834823 z m -3.48093,-21.235276 h 59.3 v 59.3 h -59.3 z"
         inkscape:connector-curvature="0" />
    </clipPath>
  </defs>
  <sodipodi:namedview
     id="base"
     pagecolor="#646464"
     bordercolor="#666666"
     borderopacity="1.0"
     inkscape:pageopacity="0"
     inkscape:pageshadow="2"
     inkscape:zoom="1.4"
     inkscape:cx="61.411926"
     inkscape:cy="75.41595"
     inkscape:document-units="mm"
     inkscape:current-layer="layer1"
     inkscape:document-rotation="0"
     showgrid="false"
     inkscape:window-width="1679"
     inkscape:window-height="1005"
     inkscape:window-x="0"
     inkscape:window-y="23"
     inkscape:window-maximized="0"
     inkscape:snap-global="false"
     fit-margin-top="0"
     fit-margin-right="0"
     fit-margin-bottom="0"
     fit-margin-left="0" />
  <metadata
     id="metadata5">
    <rdf:RDF>
      <cc:Work
         rdf:about="">
        <dc:format>image/svg+xml</dc:format>
        <dc:type
           rdf:resource="http://purl.org/dc/dcmitype/StillImage" />
        <dc:title></dc:title>
      </cc:Work>
    </rdf:RDF>
  </metadata>
  <g
     transform="translate(-1.0000035,-0.99999951)"
     style="display:none"
     inkscape:label="black bg"
     id="layer10"
     inkscape:groupmode="layer">
    <rect
       y="12.350882"
       x="138.69716"
       height="71.093697"
       width="77.374527"
       id="rect869"
       style="fill:#000000;fill-opacity:1;stroke:#ffffff;stroke-width:0.3;stroke-opacity:1"
       transform="translate(-143.37438,-17.696272)" />
  </g>
  <g
     transform="translate(-1.0000035,-0.99999951)"
     style="display:inline"
     inkscape:label="white bg"
     id="layer1"
     inkscape:groupmode="layer">
    <path
       sodipodi:nodetypes="csccccssssscccscsccccccssscccccscssssccccccssscscccccccssscsccccccccccccsccc"
       inkscape:connector-curvature="0"
       d="m 34.974609,23.410974 c -1.211495,0.0031 -1.928048,0.0746 -1.928048,0.202572 0,0.152938 0.323263,0.359222 0.718302,0.45837 l 0.718304,0.18035 -0.07803,4.472078 c -0.077,4.394507 -0.08944,4.474242 -0.718304,4.563547 -0.35197,0.04999 -0.640271,0.209978 -0.640271,0.355533 0,0.145556 1.02435,0.264584 2.275829,0.264584 1.32733,0 2.275314,-0.118306 2.275314,-0.284221 0,-0.156435 -0.242337,-0.284221 -0.538467,-0.284221 -0.692052,0 -0.883668,-0.533839 -0.883668,-2.460831 0,-1.451327 0.04426,-1.554705 0.633036,-1.470194 0.41978,0.06025 1.073129,0.757406 1.938901,2.068607 1.296329,1.963315 2.248369,2.675295 3.614248,2.702677 0.35197,0.0071 0.639755,-0.05949 0.639755,-0.147794 0,-0.08832 -0.376724,-0.47771 -0.837674,-0.865579 -0.460962,-0.387868 -1.363712,-1.491903 -2.005562,-2.453082 -1.162781,-1.741281 -1.164675,-1.748919 -0.544153,-2.081008 1.467048,-0.785146 1.832689,-3.002001 0.710549,-4.307748 -0.667218,-0.776401 -0.774869,-0.800495 -3.981667,-0.893486 -0.50569,-0.01466 -0.964562,-0.02118 -1.368393,-0.02015 z m 1.20096,0.826823 h 1.093475 c 1.373328,0 2.035016,0.681637 2.035016,2.09703 0,1.346318 -1.020844,2.453596 -2.262394,2.453596 H 36.175569 V 26.51311 Z M 25.61549,25.944153 c -1.27272,0 -1.400073,0.185184 -0.390673,0.568957 0.69962,0.265996 0.711067,0.321387 0.711067,3.432866 0,2.923161 -0.0431,3.173401 -0.568957,3.310908 -1.10394,0.28869 -0.549405,0.651124 0.995805,0.651124 0.8604,0 1.564245,-0.127786 1.564245,-0.284221 0,-0.156435 -0.256077,-0.284221 -0.568957,-0.284221 -0.527752,0 -0.568958,-0.189616 -0.568958,-2.624645 v -2.624646 l 0.924491,1.128612 c 0.508421,0.62079 1.692744,2.024812 2.631364,3.120224 l 1.706356,1.991611 0.171566,-3.837493 c 0.0945,-2.110756 0.190574,-3.869695 0.213424,-3.908806 0.0229,-0.03911 0.233539,-0.07131 0.468188,-0.07131 0.234651,0 0.426847,-0.127786 0.426847,-0.28422 0,-0.156435 -0.711669,-0.284737 -1.581298,-0.284737 -0.98165,0 -1.514232,0.108148 -1.405083,0.284737 0.0966,0.156434 0.352083,0.28422 0.567925,0.28422 0.4743,0 0.79076,1.825437 0.66094,3.814239 l -0.09147,1.396296 -2.3828,-2.889745 c -2.27225,-2.75557 -2.433743,-2.889747 -3.484025,-2.889747 z m -5.161441,0.07338 c -0.160271,0.05343 -0.922821,1.722558 -1.694471,3.709336 -0.88139,2.269289 -1.552681,3.612697 -1.806091,3.612697 -0.22186,0 -0.403593,0.127786 -0.403593,0.284221 0,0.156435 0.647789,0.284221 1.439189,0.284221 0.88686,0 1.371312,-0.108919 1.262972,-0.284221 -0.0966,-0.156435 -0.353278,-0.284221 -0.570508,-0.284221 -0.33215,0 -0.336589,-0.169643 -0.02739,-1.066601 0.33478,-0.971275 0.470808,-1.074457 1.522388,-1.152901 1.10841,-0.08268 1.169101,-0.04321 1.507401,0.981853 0.26146,0.792244 0.268312,1.095679 0.02687,1.176155 -0.86482,0.288271 -0.153042,0.630169 1.309998,0.628901 l 1.635559,-0.0016 -0.747758,-0.63872 c -0.51077,-0.436396 -1.12941,-1.700379 -1.95492,-3.99252 -0.66434,-1.844662 -1.33937,-3.310075 -1.499649,-3.25665 z m -0.304892,1.795755 0.33383,0.956533 c 0.46176,1.324612 0.431095,1.440738 -0.377755,1.440738 -0.391079,0 -0.701263,-0.0961 -0.689363,-0.213424 0.0119,-0.117326 0.182005,-0.656378 0.377755,-1.198377 z"
       style="fill:#ffffff;fill-opacity:0.997067;stroke:none;stroke-width:0.325236"
       id="path867" />
    <circle
       r="16"
       cy="29.65"
       cx="29.650009"
       id="path1022"
       style="fill:none;fill-opacity:1;stroke:#ffffff;stroke-width:0.3;stroke-opacity:1" />
  </g>
  <g
     inkscape:groupmode="layer"
     id="layer2"
     inkscape:label="ANR"
     style="display:inline"
     transform="translate(-144.37438,-18.696272)" />
  <g
     transform="translate(-144.37438,-18.696272)"
     style="display:none"
     inkscape:label="ANR copy"
     id="g1016"
     inkscape:groupmode="layer">
    <path
       sodipodi:nodetypes="sccsscscssscscccscscsssscccccccccscccscccsssssscccccccssscccscccccccccssssccccccsc"
       style="fill:#000000;stroke-width:0.284426"
       d="m 169.20947,62.815428 c -5.57368,-1.349251 -10.36787,-6.191446 -11.69208,-11.809162 -2.3547,-9.989337 5.29565,-19.570209 15.64419,-19.591937 4.21858,-0.0088 8.02424,1.5888 11.1128,4.665264 3.22717,3.214528 4.68539,6.718457 4.68539,11.258449 0,4.53999 -1.45822,8.043918 -4.68539,11.258448 -3.99781,3.982166 -9.58238,5.546123 -15.06491,4.218938 z m 6.60126,-18.534978 c 0.0229,-0.03911 0.23355,-0.07111 0.4682,-0.07111 0.23465,0 0.42664,-0.127993 0.42664,-0.284427 0,-0.156435 -0.71151,-0.284427 -1.58114,-0.284427 -0.98165,0 -1.51449,0.107838 -1.40534,0.284427 0.0966,0.156434 0.35237,0.284427 0.56821,0.284427 0.4743,0 0.79046,1.825277 0.66064,3.814077 l -0.0912,1.396448 -2.38283,-2.889691 c -2.27225,-2.755569 -2.43396,-2.889688 -3.48424,-2.889688 -1.27272,0 -1.39972,0.185081 -0.39032,0.568854 0.69962,0.265996 0.71107,0.321235 0.71107,3.432714 0,2.923161 -0.043,3.173617 -0.56886,3.311123 -1.10394,0.288688 -0.54972,0.651267 0.99549,0.651267 0.8604,0 1.56435,-0.127992 1.56435,-0.284427 0,-0.156435 -0.25597,-0.284427 -0.56885,-0.284427 -0.52775,0 -0.56885,-0.189619 -0.56885,-2.624648 v -2.62465 l 0.92438,1.128709 c 0.50842,0.620788 1.69234,2.024953 2.63096,3.120367 l 1.70656,1.991658 0.17175,-3.837735 c 0.0945,-2.110756 0.19047,-3.869735 0.21332,-3.908844 z m 10.56536,7.447849 c 0,-0.08832 -0.37715,-0.477924 -0.8381,-0.865793 -0.46096,-0.387868 -1.36326,-1.491636 -2.00511,-2.452815 -1.16278,-1.741282 -1.16475,-1.748799 -0.54423,-2.08089 1.46705,-0.785145 1.83277,-3.002159 0.71063,-4.307907 -0.66722,-0.776401 -0.77518,-0.800626 -3.98198,-0.893617 -2.02276,-0.05865 -3.29616,0.01185 -3.29616,0.182485 0,0.152938 0.32321,0.359191 0.71825,0.458339 l 0.71826,0.18027 -0.0783,4.472503 c -0.077,4.394507 -0.0894,4.47409 -0.71826,4.563395 -0.35197,0.04999 -0.63996,0.209977 -0.63996,0.355533 0,0.145555 1.02394,0.264645 2.27542,0.264645 1.32733,0 2.27541,-0.118512 2.27541,-0.284427 0,-0.156435 -0.24228,-0.284427 -0.53841,-0.284427 -0.69205,0 -0.88371,-0.533684 -0.88371,-2.460676 0,-1.451328 0.0444,-1.554489 0.63318,-1.469978 0.41978,0.06025 1.07332,0.757478 1.93909,2.06868 1.29633,1.963313 2.24814,2.675046 3.61402,2.702428 0.35197,0.0071 0.63996,-0.05944 0.63996,-0.147748 z m -6.82625,-7.518956 v -2.275417 h 1.09362 c 1.37333,0 2.03507,0.682028 2.03507,2.097421 0,1.346317 -1.02093,2.453414 -2.26248,2.453414 h -0.86621 z m -16.92341,7.110677 c -0.0966,-0.156435 -0.35352,-0.284427 -0.57075,-0.284427 -0.33215,0 -0.3365,-0.169643 -0.0273,-1.066602 0.33478,-0.971275 0.47085,-1.0743 1.52243,-1.152743 1.10841,-0.08268 1.16896,-0.04324 1.50726,0.981826 0.26146,0.792246 0.26844,1.095969 0.027,1.176444 -0.86482,0.288272 -0.15302,0.629782 1.31002,0.628515 l 1.63545,-0.0014 -0.74736,-0.638551 c -0.51077,-0.436397 -1.12977,-1.700331 -1.95528,-3.992472 -0.66434,-1.84466 -1.33903,-3.310214 -1.49931,-3.256789 -0.16027,0.05343 -0.92277,1.722684 -1.69442,3.709461 -0.88139,2.269289 -1.553,3.612332 -1.80641,3.612332 -0.22186,0 -0.40339,0.127992 -0.40339,0.284427 0,0.156435 0.64752,0.284427 1.43892,0.284427 0.88686,0 1.37148,-0.109126 1.26314,-0.284427 z m 0.16385,-3.626445 c 0.0119,-0.117326 0.18178,-0.656773 0.37753,-1.198772 l 0.35589,-0.985454 0.33354,0.956789 c 0.46176,1.324612 0.43132,1.440757 -0.37753,1.440757 -0.39108,0 -0.70133,-0.096 -0.68943,-0.21332 z"
       id="path1014"
       inkscape:connector-curvature="0" />
  </g>
  <g
     inkscape:groupmode="layer"
     id="layer3"
     inkscape:label="inner ring"
     style="display:inline"
     transform="translate(-144.37438,-18.696272)">
    <path
       style="fill:none;stroke:#ffffff;stroke-width:0.3;stroke-miterlimit:4;stroke-dasharray:none;stroke-opacity:1"
       id="path1130"
       clip-path="url(#clipPath1240)"
       inkscape:path-effect="#path-effect1244"
       sodipodi:type="arc"
       sodipodi:cx="173.02438"
       sodipodi:cy="47.346272"
       sodipodi:rx="20"
       sodipodi:ry="20"
       d="m 193.02438,47.346272 a 20,20 0 0 1 -20,20 20,20 0 0 1 -20,-20 20,20 0 0 1 20,-20 20,20 0 0 1 20,20 z" />
  </g>
  <g
     style="display:none"
     inkscape:label="inner ring copy"
     id="g1222"
     inkscape:groupmode="layer"
     transform="translate(-144.37438,-18.696272)">
    <circle
       r="20"
       cy="47.346272"
       cx="173.02438"
       id="circle1220"
       style="fill:none;stroke:#000000;stroke-width:0.3;stroke-miterlimit:4;stroke-dasharray:none;stroke-opacity:1" />
  </g>
  <g
     inkscape:groupmode="layer"
     id="layer4"
     inkscape:label="outer ring"
     style="display:inline"
     transform="translate(-144.37438,-18.696272)">
    <path
       id="path1130-5"
       style="display:inline;fill:none;stroke:#ffffff;stroke-width:0.3;stroke-miterlimit:4;stroke-dasharray:none;stroke-opacity:1"
       transform="scale(-1,1)"
       clip-path="url(#clipPath1274)"
       inkscape:path-effect="#path-effect1278"
       sodipodi:type="arc"
       sodipodi:cx="-173.02438"
       sodipodi:cy="47.346272"
       sodipodi:rx="28.5"
       sodipodi:ry="28.5"
       d="m -144.52438,47.346272 a 28.5,28.5 0 0 1 -28.5,28.5 28.5,28.5 0 0 1 -28.5,-28.5 28.5,28.5 0 0 1 28.5,-28.5 28.5,28.5 0 0 1 28.5,28.5 z" />
  </g>
  <g
     inkscape:groupmode="layer"
     id="layer9"
     inkscape:label="inner ring cut"
     style="display:inline"
     transform="translate(-144.37438,-18.696272)" />
  <g
     style="display:none"
     inkscape:label="outer ring copy"
     id="g1252"
     inkscape:groupmode="layer"
     transform="translate(-144.37438,-18.696272)">
    <circle
       r="28.5"
       transform="scale(-1,1)"
       style="display:inline;fill:none;stroke:#000000;stroke-width:0.3;stroke-miterlimit:4;stroke-dasharray:none;stroke-opacity:1"
       id="circle1250"
       cx="-173.02438"
       cy="47.346272" />
  </g>
  <g
     style="display:inline"
     inkscape:groupmode="layer"
     id="layer6"
     inkscape:label="text english path"
     transform="translate(-144.37438,-18.696272)">
    <g
       style="font-style:normal;font-weight:normal;font-size:4.23333px;line-height:1.25;font-family:sans-serif;display:inline;fill:#ffffff;fill-opacity:1;stroke:none;stroke-width:0.264583"
       id="text1150"
       aria-label="PROJECT FUNDED BY THE ANR">
      <path
         inkscape:connector-curvature="0"
         id="path971"
         style="font-style:normal;font-variant:normal;font-weight:300;font-stretch:normal;font-family:'Helvetica Neue';-inkscape-font-specification:'Helvetica Neue Light';letter-spacing:0.264583px;fill:#ffffff;fill-opacity:1;stroke-width:0.264583"
         d="m 148.57216,48.288317 1.23327,-0.08406 0.0674,0.988306 q 0.0204,0.299871 -0.11894,0.49607 -0.13938,0.196199 -0.45192,0.217502 -0.31254,0.0213 -0.47725,-0.154169 -0.16472,-0.175471 -0.18516,-0.475342 z m 1.45866,-0.387958 -3.0156,0.205546 0.0196,0.2872 1.29241,-0.08809 0.0717,1.051659 q 0.0138,0.202729 0.0799,0.363705 0.0704,0.160687 0.18823,0.271461 0.12209,0.110486 0.28691,0.1629 0.16481,0.05241 0.36754,0.0386 0.20273,-0.01382 0.3589,-0.08811 0.15618,-0.07429 0.25793,-0.200036 0.10598,-0.126032 0.14965,-0.294492 0.0479,-0.168748 0.0341,-0.371477 z" />
      <path
         inkscape:connector-curvature="0"
         id="path973"
         style="font-style:normal;font-variant:normal;font-weight:300;font-stretch:normal;font-family:'Helvetica Neue';-inkscape-font-specification:'Helvetica Neue Light';letter-spacing:0.264583px;fill:#ffffff;fill-opacity:1;stroke-width:0.264583"
         d="m 148.87365,51.025605 1.16958,-0.217142 0.19627,1.057199 q 0.0603,0.324652 -0.0685,0.51218 -0.1288,0.187529 -0.40351,0.23853 -0.13735,0.0255 -0.25561,-0.0085 -0.11333,-0.03063 -0.20448,-0.104125 -0.0911,-0.0735 -0.1544,-0.182311 -0.0591,-0.109587 -0.0831,-0.238615 z m 1.35844,-0.544992 -2.97182,0.551743 0.0525,0.28303 1.31942,-0.244962 0.19937,1.073849 q 0.0454,0.19824 -0.009,0.324529 -0.0533,0.130452 -0.16733,0.211905 -0.10911,0.08484 -0.26419,0.130856 -0.15013,0.0494 -0.30675,0.08709 -0.045,0.01266 -0.10667,0.02842 -0.0617,0.01575 -0.12749,0.03228 -0.0609,0.01992 -0.121,0.04399 -0.0552,0.02747 -0.0922,0.06017 l 0.058,0.312165 q 0.0456,-0.05583 0.13593,-0.102739 0.0953,-0.04352 0.20116,-0.0761 0.11006,-0.03335 0.2175,-0.05761 0.10745,-0.02425 0.18159,-0.04232 0.13165,-0.03305 0.23862,-0.08305 0.1119,-0.04661 0.18772,-0.125271 0.0766,-0.0745 0.11292,-0.180275 0.0405,-0.106549 0.0343,-0.25609 l 0.008,-0.0015 q 0.11159,0.276374 0.34675,0.383414 0.23515,0.107039 0.51818,0.05449 0.19979,-0.03709 0.33156,-0.139057 0.1367,-0.09858 0.20508,-0.240443 0.0733,-0.138478 0.0882,-0.313466 0.0156,-0.170826 -0.0183,-0.353963 z" />
      <path
         inkscape:connector-curvature="0"
         id="path975"
         style="font-style:normal;font-variant:normal;font-weight:300;font-stretch:normal;font-family:'Helvetica Neue';-inkscape-font-specification:'Helvetica Neue Light';letter-spacing:0.264583px;fill:#ffffff;fill-opacity:1;stroke-width:0.264583"
         d="m 149.34775,53.727045 q 0.23792,-0.07599 0.48307,-0.08762 0.24644,-0.0076 0.46509,0.06478 0.22397,0.07512 0.39853,0.246013 0.17457,0.170892 0.26601,0.457211 0.0914,0.286319 0.047,0.522725 -0.0432,0.24044 -0.18346,0.427441 -0.13493,0.189747 -0.34144,0.32236 -0.20522,0.136646 -0.44315,0.212633 -0.2339,0.0747 -0.48436,0.08359 -0.24515,0.01163 -0.46912,-0.06349 -0.21865,-0.07238 -0.39322,-0.243269 -0.17328,-0.166859 -0.26472,-0.453178 -0.0914,-0.286318 -0.0482,-0.526758 0.0432,-0.240439 0.17813,-0.430186 0.14026,-0.187001 0.34548,-0.323647 0.21054,-0.133902 0.44444,-0.208601 z m -0.0876,-0.274221 q -0.29842,0.09531 -0.54156,0.266283 -0.24314,0.170976 -0.39472,0.406032 -0.15157,0.235056 -0.19544,0.529039 -0.0386,0.296727 0.0696,0.635471 0.10818,0.338743 0.3103,0.554163 0.20615,0.214132 0.46591,0.31782 0.25976,0.103688 0.557,0.102083 0.29723,-0.0016 0.59565,-0.09691 0.29841,-0.09531 0.54156,-0.266282 0.24314,-0.170977 0.39471,-0.406033 0.15561,-0.236343 0.19545,-0.529038 0.0439,-0.293983 -0.0643,-0.632727 -0.10819,-0.338743 -0.31563,-0.556908 -0.20212,-0.21542 -0.46591,-0.31782 -0.25976,-0.103687 -0.55699,-0.102083 -0.29724,0.0016 -0.59565,0.09691 z" />
      <path
         inkscape:connector-curvature="0"
         id="path977"
         style="font-style:normal;font-variant:normal;font-weight:300;font-stretch:normal;font-family:'Helvetica Neue';-inkscape-font-specification:'Helvetica Neue Light';letter-spacing:0.264583px;fill:#ffffff;fill-opacity:1;stroke-width:0.264583"
         d="m 152.23359,57.155295 -1.87767,0.840976 q -0.18931,0.08479 -0.33491,0.122172 -0.14561,0.03738 -0.26043,0.01923 -0.11095,-0.01988 -0.19844,-0.101301 -0.0836,-0.08315 -0.15284,-0.237689 -0.0917,-0.204766 -0.0629,-0.347553 0.0344,-0.140653 0.12569,-0.237197 0.0913,-0.09654 0.21145,-0.159644 0.12017,-0.0631 0.2073,-0.106763 l -0.11767,-0.262719 q -0.18158,0.08133 -0.33774,0.188375 -0.15615,0.107046 -0.24944,0.250877 -0.0894,0.1421 -0.10307,0.329116 -0.01,0.185285 0.0958,0.42096 0.10036,0.224084 0.21807,0.352266 0.11944,0.132046 0.26142,0.17978 0.14372,0.0516 0.31729,0.02488 0.17358,-0.02672 0.38607,-0.121889 l 1.98971,-0.891158 z" />
      <path
         inkscape:connector-curvature="0"
         id="path979"
         style="font-style:normal;font-variant:normal;font-weight:300;font-stretch:normal;font-family:'Helvetica Neue';-inkscape-font-specification:'Helvetica Neue Light';letter-spacing:0.264583px;fill:#ffffff;fill-opacity:1;stroke-width:0.264583"
         d="m 152.60312,57.934239 -2.622,1.50374 1.04883,1.828787 0.21299,-0.122152 -0.90561,-1.579073 1.03557,-0.593915 0.83822,1.461561 0.21299,-0.122153 -0.83822,-1.46156 0.94745,-0.543368 0.89508,1.560711 0.21299,-0.122152 z" />
      <path
         inkscape:connector-curvature="0"
         id="path981"
         style="font-style:normal;font-variant:normal;font-weight:300;font-stretch:normal;font-family:'Helvetica Neue';-inkscape-font-specification:'Helvetica Neue Light';letter-spacing:0.264583px;fill:#ffffff;fill-opacity:1;stroke-width:0.264583"
         d="m 154.40513,62.354571 0.17108,0.231514 q 0.17305,-0.164723 0.25152,-0.364831 0.081,-0.196704 0.0791,-0.405849 0.004,-0.208256 -0.0682,-0.41282 -0.0697,-0.20116 -0.19801,-0.374795 -0.21133,-0.285986 -0.47789,-0.425888 -0.26064,-0.139013 -0.54335,-0.15118 -0.2793,-0.01468 -0.56024,0.08239 -0.28095,0.09707 -0.53289,0.283245 -0.25194,0.186177 -0.42721,0.426239 -0.17528,0.240062 -0.24324,0.511366 -0.068,0.271304 -0.015,0.563787 0.0589,0.293372 0.27021,0.579358 0.1585,0.21449 0.35491,0.337807 0.19892,0.126722 0.42049,0.163008 0.22158,0.03629 0.4624,-0.01535 0.24083,-0.05163 0.48314,-0.19385 l -0.17108,-0.231513 q -0.176,0.10374 -0.36428,0.148125 -0.18487,0.04187 -0.36338,0.02113 -0.1785,-0.02074 -0.34042,-0.111639 -0.16192,-0.0909 -0.28771,-0.261128 -0.17863,-0.241727 -0.21502,-0.483291 -0.0364,-0.241564 0.0304,-0.464615 0.0727,-0.222163 0.2231,-0.417527 0.15633,-0.194476 0.35379,-0.340398 0.20088,-0.148438 0.42927,-0.23826 0.23091,-0.08642 0.46123,-0.08817 0.23623,-8.63e-4 0.45646,0.104842 0.22024,0.105706 0.39887,0.347433 0.0981,0.132779 0.14532,0.282131 0.0531,0.150241 0.0512,0.304324 5.8e-4,0.157488 -0.0615,0.308605 -0.0561,0.152005 -0.17306,0.285798 z" />
      <path
         inkscape:connector-curvature="0"
         id="path983"
         style="font-style:normal;font-variant:normal;font-weight:300;font-stretch:normal;font-family:'Helvetica Neue';-inkscape-font-specification:'Helvetica Neue Light';letter-spacing:0.264583px;fill:#ffffff;fill-opacity:1;stroke-width:0.264583"
         d="m 155.37122,62.103882 -0.17988,0.16712 0.71458,0.769152 -2.03453,1.890176 0.19593,0.210897 2.03453,-1.890177 0.71746,0.772254 0.17989,-0.167119 z" />
      <path
         inkscape:connector-curvature="0"
         id="path985"
         style="font-style:normal;font-variant:normal;font-weight:300;font-stretch:normal;font-family:'Helvetica Neue';-inkscape-font-specification:'Helvetica Neue Light';letter-spacing:0.264583px;fill:#ffffff;fill-opacity:1;stroke-width:0.264583"
         d="m 158.14081,64.871793 -1.87347,2.371968 0.2259,0.178425 0.89213,-1.129509 1.13615,0.897373 0.15219,-0.192681 -1.13615,-0.897373 0.67696,-0.857097 1.279,1.0102 0.15219,-0.192681 z" />
      <path
         inkscape:connector-curvature="0"
         id="path987"
         style="font-style:normal;font-variant:normal;font-weight:300;font-stretch:normal;font-family:'Helvetica Neue';-inkscape-font-specification:'Helvetica Neue Light';letter-spacing:0.264583px;fill:#ffffff;fill-opacity:1;stroke-width:0.264583"
         d="m 159.85745,66.215823 -1.02625,1.640005 q -0.12351,0.197375 -0.18196,0.410491 -0.0526,0.211772 -0.0173,0.418657 0.0389,0.209131 0.17613,0.404853 0.14304,0.194379 0.4086,0.360555 0.26914,0.168421 0.50291,0.209832 0.2396,0.04007 0.44111,-0.01861 0.20511,-0.05643 0.36897,-0.198587 0.1697,-0.143502 0.29321,-0.340876 l 1.02625,-1.640005 -0.24403,-0.152702 -0.99256,1.586175 q -0.13923,0.222495 -0.28828,0.348956 -0.1468,0.122873 -0.30657,0.162723 -0.15753,0.03626 -0.32668,-0.0047 -0.1669,-0.04452 -0.34633,-0.156796 -0.17585,-0.110036 -0.28886,-0.240678 -0.11076,-0.134232 -0.14702,-0.291757 -0.034,-0.161113 0.0123,-0.346863 0.0486,-0.189338 0.1878,-0.411833 l 0.99256,-1.586175 z" />
      <path
         inkscape:connector-curvature="0"
         id="path989"
         style="font-style:normal;font-variant:normal;font-weight:300;font-stretch:normal;font-family:'Helvetica Neue';-inkscape-font-specification:'Helvetica Neue Light';letter-spacing:0.264583px;fill:#ffffff;fill-opacity:1;stroke-width:0.264583"
         d="m 162.26372,67.688528 -1.27577,2.740168 0.26097,0.121501 1.07922,-2.318013 0.008,0.0036 0.5173,3.061316 0.29167,0.135796 1.27576,-2.740168 -0.26097,-0.121502 -1.07921,2.318014 -0.008,-0.0036 -0.51729,-3.061316 z" />
      <path
         inkscape:connector-curvature="0"
         id="path991"
         style="font-style:normal;font-variant:normal;font-weight:300;font-stretch:normal;font-family:'Helvetica Neue';-inkscape-font-specification:'Helvetica Neue Light';letter-spacing:0.264583px;fill:#ffffff;fill-opacity:1;stroke-width:0.264583"
         d="m 164.8816,68.87068 -0.92708,2.876913 0.99524,0.320711 q 0.66196,0.195526 1.10533,-0.04855 0.44869,-0.246809 0.67981,-0.964022 0.23112,-0.717214 0.01,-1.175531 -0.21614,-0.461048 -0.86772,-0.688809 z m -0.57778,2.731507 0.77646,-2.409515 0.58425,0.188271 q 0.31025,0.09998 0.50979,0.239891 0.20487,0.13718 0.30318,0.328978 0.0983,0.191797 0.0928,0.44354 -0.006,0.251743 -0.10939,0.574086 -0.10387,0.322343 -0.24638,0.529939 -0.14251,0.207597 -0.33431,0.305908 -0.1918,0.09831 -0.43951,0.0941 -0.24239,-0.0069 -0.55264,-0.106923 z" />
      <path
         inkscape:connector-curvature="0"
         id="path993"
         style="font-style:normal;font-variant:normal;font-weight:300;font-stretch:normal;font-family:'Helvetica Neue';-inkscape-font-specification:'Helvetica Neue Light';letter-spacing:0.264583px;fill:#ffffff;fill-opacity:1;stroke-width:0.264583"
         d="m 167.57752,69.695707 -0.59037,2.964382 2.06759,0.411771 0.048,-0.240804 -1.78527,-0.355546 0.23317,-1.170806 1.65241,0.329087 0.048,-0.240804 -1.65242,-0.329087 0.21333,-1.071163 1.76452,0.351412 0.0479,-0.240805 z" />
      <path
         inkscape:connector-curvature="0"
         id="path995"
         style="font-style:normal;font-variant:normal;font-weight:300;font-stretch:normal;font-family:'Helvetica Neue';-inkscape-font-specification:'Helvetica Neue Light';letter-spacing:0.264583px;fill:#ffffff;fill-opacity:1;stroke-width:0.264583"
         d="m 169.96855,70.151841 -0.24785,3.012419 1.04212,0.08574 q 0.68909,0.0397 1.06526,-0.298891 0.38073,-0.342467 0.44251,-1.093463 0.0618,-0.750995 -0.25819,-1.146865 -0.31542,-0.399743 -1.00174,-0.4732 z m 0.0592,2.791317 0.20758,-2.523007 0.61177,0.05033 q 0.32487,0.02673 0.55102,0.117544 0.23071,0.08694 0.3701,0.251327 0.13939,0.164383 0.19133,0.410771 0.0519,0.246388 0.0242,0.583914 -0.0278,0.337526 -0.11928,0.572112 -0.0915,0.234587 -0.2559,0.373977 -0.16438,0.13939 -0.40655,0.191676 -0.2376,0.04841 -0.56247,0.02168 z" />
      <path
         inkscape:connector-curvature="0"
         id="path997"
         style="font-style:normal;font-variant:normal;font-weight:300;font-stretch:normal;font-family:'Helvetica Neue';-inkscape-font-specification:'Helvetica Neue Light';letter-spacing:0.264583px;fill:#ffffff;fill-opacity:1;stroke-width:0.264583"
         d="m 174.45299,71.620915 -0.0986,-1.074981 0.98645,-0.09053 q 0.67872,-0.06229 0.73056,0.502606 0.01,0.10539 -0.024,0.202002 -0.0336,0.09661 -0.11138,0.176016 -0.0781,0.07519 -0.20073,0.128949 -0.12298,0.04955 -0.29582,0.06541 z m -0.40775,-1.293179 0.27623,3.009948 1.27311,-0.116836 q 0.24451,-0.02244 0.41348,-0.08046 0.1728,-0.06262 0.28465,-0.140903 0.11567,-0.08289 0.17883,-0.182205 0.0632,-0.09932 0.0926,-0.195546 0.029,-0.100441 0.0336,-0.19013 0.004,-0.0939 -0.002,-0.165569 -0.0271,-0.295093 -0.21811,-0.477365 -0.19141,-0.186488 -0.48577,-0.197734 l -7.7e-4,-0.0084 q 0.11571,-0.03613 0.20265,-0.107872 0.0912,-0.07213 0.15049,-0.16685 0.0632,-0.09932 0.091,-0.212409 0.0275,-0.117303 0.0167,-0.23534 -0.0193,-0.210781 -0.1122,-0.342546 -0.0932,-0.13598 -0.23589,-0.207912 -0.13881,-0.07653 -0.31896,-0.09401 -0.17632,-0.02208 -0.36603,-0.0047 z m 0.54045,2.739135 -0.11026,-1.20145 0.98646,-0.09053 q 0.38362,-0.03521 0.59951,0.09377 0.21972,0.124373 0.24641,0.415251 0.0166,0.181271 -0.0354,0.309327 -0.0524,0.123841 -0.15543,0.205565 -0.10303,0.08172 -0.24365,0.124387 -0.14101,0.03845 -0.3012,0.05315 z" />
      <path
         inkscape:connector-curvature="0"
         id="path999"
         style="font-style:normal;font-variant:normal;font-weight:300;font-stretch:normal;font-family:'Helvetica Neue';-inkscape-font-specification:'Helvetica Neue Light';letter-spacing:0.264583px;fill:#ffffff;fill-opacity:1;stroke-width:0.264583"
         d="m 177.9664,71.608507 0.25425,1.218353 0.2818,-0.05881 -0.25425,-1.218353 0.80541,-1.984375 -0.33567,0.07005 -0.65665,1.70251 -1.28691,-1.296923 -0.33153,0.06918 z" />
      <path
         inkscape:connector-curvature="0"
         id="path1001"
         style="font-style:normal;font-variant:normal;font-weight:300;font-stretch:normal;font-family:'Helvetica Neue';-inkscape-font-specification:'Helvetica Neue Light';letter-spacing:0.264583px;fill:#ffffff;fill-opacity:1;stroke-width:0.264583"
         d="m 180.16378,69.226591 0.0882,0.229144 0.97978,-0.377144 0.99761,2.591692 0.26865,-0.103411 -0.99761,-2.591692 0.98374,-0.378664 -0.0882,-0.229144 z" />
      <path
         inkscape:connector-curvature="0"
         id="path1003"
         style="font-style:normal;font-variant:normal;font-weight:300;font-stretch:normal;font-family:'Helvetica Neue';-inkscape-font-specification:'Helvetica Neue Light';letter-spacing:0.264583px;fill:#ffffff;fill-opacity:1;stroke-width:0.264583"
         d="m 182.58774,68.279798 1.39798,2.679876 0.25523,-0.133142 -0.67745,-1.298651 1.59141,-0.830175 0.67745,1.298651 0.25523,-0.133141 -1.39799,-2.679876 -0.25522,0.133141 0.60697,1.163532 -1.59142,0.830175 -0.60696,-1.163532 z" />
      <path
         inkscape:connector-curvature="0"
         id="path1005"
         style="font-style:normal;font-variant:normal;font-weight:300;font-stretch:normal;font-family:'Helvetica Neue';-inkscape-font-specification:'Helvetica Neue Light';letter-spacing:0.264583px;fill:#ffffff;fill-opacity:1;stroke-width:0.264583"
         d="m 185.13079,66.90349 1.69851,2.500228 1.74386,-1.184679 -0.13798,-0.2031 -1.50573,1.022916 -0.67085,-0.987485 1.39369,-0.946792 -0.13798,-0.203099 -1.39368,0.946791 -0.61375,-0.903444 1.48823,-1.011021 -0.13797,-0.2031 z" />
      <path
         inkscape:connector-curvature="0"
         id="path1007"
         style="font-style:normal;font-variant:normal;font-weight:300;font-stretch:normal;font-family:'Helvetica Neue';-inkscape-font-specification:'Helvetica Neue Light';letter-spacing:0.264583px;fill:#ffffff;fill-opacity:1;stroke-width:0.264583"
         d="m 189.70126,65.731802 -0.63057,-1.539315 1.49177,0.718709 z m -0.93642,-1.645509 1.20551,3.026383 0.22066,-0.210262 -0.38473,-0.931528 0.99605,-0.9491 0.91495,0.426315 0.22373,-0.213182 -2.94324,-1.370569 z" />
      <path
         inkscape:connector-curvature="0"
         id="path1009"
         style="font-style:normal;font-variant:normal;font-weight:300;font-stretch:normal;font-family:'Helvetica Neue';-inkscape-font-specification:'Helvetica Neue Light';letter-spacing:0.264583px;fill:#ffffff;fill-opacity:1;stroke-width:0.264583"
         d="m 189.97472,62.904275 2.32836,1.927396 0.18356,-0.221748 -1.96964,-1.630459 0.005,-0.0065 3.09261,0.273881 0.20516,-0.247836 -2.32835,-1.927396 -0.18357,0.221749 1.96965,1.630458 -0.005,0.0065 -3.09261,-0.273881 z" />
      <path
         inkscape:connector-curvature="0"
         id="path1011"
         style="font-style:normal;font-variant:normal;font-weight:300;font-stretch:normal;font-family:'Helvetica Neue';-inkscape-font-specification:'Helvetica Neue Light';letter-spacing:0.264583px;fill:#ffffff;fill-opacity:1;stroke-width:0.264583"
         d="m 193.14748,61.195557 -1.00142,-0.642045 0.58035,-0.9052 q 0.17822,-0.277974 0.40047,-0.326573 0.22225,-0.0486 0.45746,0.102202 0.1176,0.0754 0.18056,0.181136 0.0617,0.09989 0.0778,0.215853 0.0162,0.115967 -0.0122,0.238601 -0.0319,0.12035 -0.10273,0.230827 z m -1.36349,-0.53223 2.54454,1.631389 0.15537,-0.242337 -1.12972,-0.7243 0.58949,-0.919455 q 0.10255,-0.17563 0.22839,-0.230725 0.12812,-0.05866 0.26702,-0.04 0.13763,0.0128 0.28219,0.08537 0.14328,0.06672 0.28328,0.146418 0.0415,0.02157 0.0972,0.05228 0.0558,0.03071 0.11505,0.0637 0.058,0.02715 0.11834,0.05073 0.059,0.01773 0.10838,0.0192 l 0.17136,-0.267283 q -0.0715,0.0095 -0.16942,-0.01811 -0.0992,-0.03345 -0.19875,-0.08217 -0.10308,-0.051 -0.19802,-0.106843 -0.095,-0.05584 -0.16138,-0.09341 -0.11861,-0.06599 -0.23083,-0.102732 -0.11349,-0.04259 -0.2226,-0.03712 -0.10683,0.0019 -0.20571,0.05417 -0.10245,0.04998 -0.20023,0.163287 l -0.007,-0.0046 q 0.10776,-0.277888 0.01,-0.516863 -0.0982,-0.238976 -0.34055,-0.394346 -0.17107,-0.109673 -0.33692,-0.125495 -0.16714,-0.02167 -0.31409,0.03497 -0.14823,0.0508 -0.27883,0.168216 -0.12831,0.113854 -0.22884,0.27066 z" />
    </g>
  </g>
  <g
     transform="translate(-144.37438,-18.696272)"
     inkscape:label="text english text"
     id="g969"
     inkscape:groupmode="layer"
     style="display:none">
    <text
       id="text967"
       style="font-style:normal;font-weight:normal;font-size:4.23333px;line-height:1.25;font-family:sans-serif;display:inline;fill:#ffffff;fill-opacity:1;stroke:none;stroke-width:0.264583"
       xml:space="preserve"><textPath
         style="font-style:normal;font-variant:normal;font-weight:300;font-stretch:normal;font-family:'Helvetica Neue';-inkscape-font-specification:'Helvetica Neue Light';letter-spacing:0.264583px;fill:#ffffff;fill-opacity:1;stroke-width:0.264583"
         id="textPath965"
         xlink:href="#path1130-5-3">PROJECT FUNDED BY THE ANR</textPath></text>
  </g>
  <g
     inkscape:groupmode="layer"
     id="layer7"
     inkscape:label="text french path"
     transform="translate(-144.37438,-18.696272)">
    <g
       style="font-style:normal;font-variant:normal;font-weight:300;font-stretch:normal;font-size:4.23333px;line-height:1.25;font-family:'Helvetica Neue';-inkscape-font-specification:'Helvetica Neue Light';font-variant-ligatures:normal;font-variant-caps:normal;font-variant-numeric:normal;font-variant-east-asian:normal;letter-spacing:0.264583px;fill:#ffffff;fill-opacity:1;stroke:none;stroke-width:0.264583"
       id="text1185"
       transform="rotate(3,171.89558,47.54767)"
       aria-label="PROJET FINANCÉ PAR L'ANR">
      <path
         inkscape:connector-curvature="0"
         id="path922"
         style="letter-spacing:0.238125px;fill:#ffffff;fill-opacity:1"
         d="m 148.46931,44.181812 -1.21995,-0.199346 0.15975,-0.977634 q 0.0485,-0.296632 0.22892,-0.455883 0.18044,-0.159252 0.48961,-0.108733 0.30916,0.05052 0.42953,0.258925 0.12037,0.208405 0.0719,0.505038 z m -1.50869,0.04516 2.98303,0.487442 0.0464,-0.284098 -1.27845,-0.208904 0.16999,-1.040302 q 0.0328,-0.20054 0.005,-0.372354 -0.0319,-0.172497 -0.12138,-0.307228 -0.0937,-0.135415 -0.24221,-0.224026 -0.14852,-0.08861 -0.34906,-0.12138 -0.20054,-0.03277 -0.36954,0.004 -0.169,0.03673 -0.29674,0.135958 -0.13192,0.09855 -0.21286,0.252613 -0.0851,0.153381 -0.11789,0.353921 z" />
      <path
         inkscape:connector-curvature="0"
         id="path924"
         style="letter-spacing:0.238125px;fill:#ffffff;fill-opacity:1"
         d="m 149.02384,41.118588 -1.13936,-0.341956 0.3091,-1.029881 q 0.0949,-0.316262 0.29524,-0.424096 0.20032,-0.107833 0.46793,-0.02752 0.1338,0.04016 0.2234,0.124509 0.0868,0.07908 0.13419,0.186131 0.0474,0.107052 0.0539,0.232752 0.002,0.124482 -0.0353,0.250176 z m -1.45728,-0.136822 2.89502,0.868885 0.0828,-0.275716 -1.28532,-0.385765 0.31397,-1.0461 q 0.0503,-0.197057 0.15614,-0.284627 0.10706,-0.09163 0.24573,-0.111883 0.13584,-0.02553 0.29479,0.0045 0.1561,0.02475 0.31261,0.06289 0.0458,0.0093 0.10786,0.02353 0.062,0.0142 0.12813,0.02961 0.0633,0.01014 0.12772,0.01623 0.0616,8.18e-4 0.10948,-0.01134 l 0.0913,-0.304099 q -0.0661,0.02878 -0.16787,0.02917 -0.10462,-0.0049 -0.21369,-0.02435 -0.11312,-0.02069 -0.21976,-0.04828 -0.10664,-0.02759 -0.18084,-0.04544 -0.13218,-0.03083 -0.25018,-0.03531 -0.12083,-0.0097 -0.22423,0.02552 -0.10218,0.03121 -0.18288,0.108646 -0.0848,0.07622 -0.14762,0.212048 l -0.008,-0.0024 q 0.0272,-0.296807 -0.13294,-0.499566 -0.16014,-0.202759 -0.43586,-0.28551 -0.19462,-0.05841 -0.35844,-0.02802 -0.16665,0.02512 -0.29236,0.119986 -0.12855,0.0896 -0.22183,0.238396 -0.0921,0.144745 -0.1456,0.323149 z" />
      <path
         inkscape:connector-curvature="0"
         id="path926"
         style="letter-spacing:0.238125px;fill:#ffffff;fill-opacity:1"
         d="m 150.07138,38.177895 q -0.22677,-0.104682 -0.4154,-0.261695 -0.18685,-0.160856 -0.29919,-0.361918 -0.11441,-0.20668 -0.1277,-0.450608 -0.0133,-0.243927 0.11269,-0.516821 0.12597,-0.272894 0.31846,-0.417167 0.19426,-0.148117 0.424,-0.191269 0.22767,-0.04877 0.46952,-0.0071 0.24363,0.03786 0.4704,0.142544 0.22293,0.102908 0.41362,0.265538 0.18863,0.157013 0.30304,0.363693 0.11234,0.201062 0.12563,0.44499 0.0151,0.240084 -0.11091,0.512977 -0.12597,0.272894 -0.32024,0.421011 -0.19426,0.148116 -0.42193,0.196886 -0.22974,0.04315 -0.47337,0.0053 -0.24569,-0.04348 -0.46862,-0.146387 z m -0.12065,0.261363 q 0.28442,0.131296 0.5792,0.169457 0.29478,0.03816 0.56532,-0.03278 0.27054,-0.07094 0.50147,-0.258085 0.22886,-0.19276 0.3779,-0.51562 0.14904,-0.32286 0.14551,-0.618234 -0.007,-0.297147 -0.12887,-0.549065 -0.1215,-0.251918 -0.34176,-0.451509 -0.22026,-0.199591 -0.50469,-0.330887 -0.28442,-0.131296 -0.5792,-0.169457 -0.29478,-0.03816 -0.56532,0.03278 -0.27439,0.06917 -0.50147,0.258085 -0.23093,0.187142 -0.37997,0.510002 -0.14904,0.32286 -0.14344,0.623851 0.004,0.295373 0.12887,0.549066 0.1215,0.251917 0.34176,0.451509 0.22026,0.199591 0.50469,0.330887 z" />
      <path
         inkscape:connector-curvature="0"
         id="path928"
         style="letter-spacing:0.238125px;fill:#ffffff;fill-opacity:1"
         d="m 150.96092,33.268072 1.74559,1.088939 q 0.176,0.10979 0.28827,0.209762 0.11226,0.09997 0.16126,0.205383 0.0454,0.10317 0.0267,0.221202 -0.0223,0.115792 -0.11197,0.259462 -0.11875,0.190363 -0.25332,0.24612 -0.13592,0.04993 -0.26697,0.02805 -0.13105,-0.02188 -0.25047,-0.08639 -0.11942,-0.06452 -0.20427,-0.112458 l -0.15236,0.244239 q 0.16881,0.105309 0.34478,0.175162 0.17596,0.06985 0.34737,0.06701 0.16782,-0.0051 0.33063,-0.0981 0.15922,-0.09527 0.2959,-0.314363 0.12996,-0.208322 0.17065,-0.377529 0.0429,-0.172798 0.003,-0.317256 -0.0374,-0.14805 -0.1564,-0.277184 -0.11902,-0.129134 -0.31657,-0.252368 l -1.84975,-1.153917 z" />
      <path
         inkscape:connector-curvature="0"
         id="path930"
         style="letter-spacing:0.238125px;fill:#ffffff;fill-opacity:1"
         d="m 151.78651,32.048547 2.37114,1.874505 1.30743,-1.653824 -0.19261,-0.15227 -1.12891,1.428 -0.9365,-0.740351 1.04489,-1.32173 -0.19261,-0.152271 -1.04489,1.321731 -0.8568,-0.677343 1.11577,-1.411395 -0.19261,-0.152271 z" />
      <path
         inkscape:connector-curvature="0"
         id="path932"
         style="letter-spacing:0.238125px;fill:#ffffff;fill-opacity:1"
         d="m 153.54049,29.889449 0.17372,0.173522 0.74195,-0.742781 1.96477,1.962586 0.20344,-0.203666 -1.96477,-1.962586 0.74494,-0.745776 -0.17371,-0.173521 z" />
      <path
         inkscape:connector-curvature="0"
         id="path934"
         style="letter-spacing:0.238125px;fill:#ffffff;fill-opacity:1"
         d="m 157.12965,26.637946 1.74278,2.46958 0.2352,-0.165979 -0.82989,-1.17599 1.1829,-0.834776 -0.14157,-0.20061 -1.1829,0.834776 -0.62975,-0.892369 1.33164,-0.939733 -0.14157,-0.20061 z" />
      <path
         inkscape:connector-curvature="0"
         id="path936"
         style="letter-spacing:0.238125px;fill:#ffffff;fill-opacity:1"
         d="m 159.4365,25.097794 1.54014,2.60078 0.2477,-0.14668 -1.54015,-2.60078 z" />
      <path
         inkscape:connector-curvature="0"
         id="path938"
         style="letter-spacing:0.238125px;fill:#ffffff;fill-opacity:1"
         d="m 160.68283,24.365848 1.28539,2.735667 0.26054,-0.122417 -1.08736,-2.314207 0.008,-0.0036 2.68125,1.565298 0.29119,-0.13682 -1.28539,-2.735668 -0.26054,0.122418 1.08736,2.314206 -0.008,0.0036 -2.68125,-1.565298 z" />
      <path
         inkscape:connector-curvature="0"
         id="path940"
         style="letter-spacing:0.238125px;fill:#ffffff;fill-opacity:1"
         d="m 164.96094,24.533867 0.11095,-1.659757 1.02345,1.30172 z m -0.11699,-1.889679 -0.24888,3.248121 0.29067,-0.09174 0.0643,-1.005798 1.31203,-0.4141 0.63409,0.78537 0.2947,-0.09301 -2.04011,-2.525676 z" />
      <path
         inkscape:connector-curvature="0"
         id="path942"
         style="letter-spacing:0.238125px;fill:#ffffff;fill-opacity:1"
         d="m 167.17901,21.983997 0.51629,2.978177 0.28364,-0.04917 -0.43675,-2.519354 0.008,-0.0014 2.17194,2.218546 0.317,-0.05496 -0.51629,-2.978177 -0.28364,0.04917 0.43675,2.519354 -0.008,0.0014 -2.17193,-2.218546 z" />
      <path
         inkscape:connector-curvature="0"
         id="path944"
         style="letter-spacing:0.238125px;fill:#ffffff;fill-opacity:1"
         d="m 173.02095,22.295264 0.28772,-0.009 q -0.037,-0.236026 -0.15694,-0.414402 -0.1157,-0.178509 -0.28878,-0.29593 -0.16898,-0.121785 -0.3783,-0.178779 -0.20508,-0.05713 -0.42088,-0.05039 -0.35542,0.0111 -0.62213,0.150726 -0.2626,0.135263 -0.43344,0.360839 -0.17098,0.221344 -0.25098,0.507614 -0.08,0.28627 -0.0702,0.599384 0.01,0.313114 0.10749,0.593834 0.0977,0.280719 0.28216,0.490964 0.18446,0.210245 0.45512,0.333089 0.27477,0.118481 0.63019,0.107381 0.26657,-0.0083 0.47973,-0.09969 0.21738,-0.0915 0.37328,-0.253075 0.1559,-0.161578 0.25044,-0.389007 0.0945,-0.227428 0.11545,-0.507617 l -0.28773,0.009 q -0.0148,0.203761 -0.0854,0.383853 -0.0708,0.17586 -0.18936,0.310862 -0.11861,0.135001 -0.28548,0.21645 -0.16687,0.08145 -0.37844,0.08806 -0.30042,0.0094 -0.51978,-0.09812 -0.21936,-0.107505 -0.36481,-0.28932 -0.14135,-0.186178 -0.21645,-0.421015 -0.071,-0.2392 -0.0787,-0.484614 -0.008,-0.249644 0.0483,-0.488578 0.0603,-0.239065 0.18989,-0.429469 0.13368,-0.194768 0.34591,-0.315751 0.21223,-0.120983 0.51265,-0.130366 0.16502,-0.0052 0.3147,0.041 0.15378,0.04179 0.27939,0.131043 0.12985,0.08912 0.21883,0.226113 0.0931,0.132625 0.13659,0.304918 z" />
      <path
         inkscape:connector-curvature="0"
         id="path946"
         style="letter-spacing:0.238125px;fill:#ffffff;fill-opacity:1"
         d="m 175.32048,21.281821 0.6142,-0.53972 -0.32863,-0.03212 -0.50045,0.550838 z m -0.93354,0.151221 -0.29397,3.008268 2.0982,0.205043 0.0239,-0.244369 -1.8117,-0.177045 0.11611,-1.18814 1.67688,0.163871 0.0239,-0.244369 -1.67688,-0.163871 0.10623,-1.087021 1.79063,0.174987 0.0239,-0.244369 z" />
      <path
         inkscape:connector-curvature="0"
         id="path948"
         style="letter-spacing:0.238125px;fill:#ffffff;fill-opacity:1"
         d="m 178.90984,23.642844 0.33828,-1.188945 0.95278,0.271086 q 0.28909,0.08225 0.42655,0.279809 0.13745,0.197556 0.0517,0.498864 -0.0857,0.301308 -0.30659,0.396916 -0.22086,0.09561 -0.50996,0.01336 z m 0.12859,-1.503883 -0.82716,2.907215 0.27688,0.07878 0.3545,-1.245949 1.01386,0.288464 q 0.19544,0.05561 0.3693,0.04786 0.17501,-0.01182 0.31914,-0.08525 0.14529,-0.0775 0.25039,-0.214848 0.1051,-0.137348 0.16071,-0.332791 0.0556,-0.195443 0.0385,-0.367546 -0.017,-0.172103 -0.10094,-0.310406 -0.0827,-0.142374 -0.22647,-0.240488 -0.14258,-0.102185 -0.33802,-0.157793 z" />
      <path
         inkscape:connector-curvature="0"
         id="path950"
         style="letter-spacing:0.238125px;fill:#ffffff;fill-opacity:1"
         d="m 181.55304,24.860304 1.15805,-1.19416 -0.0613,1.654742 z m 1.1329,-1.516941 -2.29051,2.316425 0.28103,0.118014 0.69955,-0.725536 1.26852,0.532701 -0.0243,1.009097 0.28493,0.119653 0.0774,-3.245784 z" />
      <path
         inkscape:connector-curvature="0"
         id="path952"
         style="letter-spacing:0.238125px;fill:#ffffff;fill-opacity:1"
         d="m 184.40989,25.725376 0.59615,-1.029402 0.93049,0.538871 q 0.28574,0.16548 0.34433,0.385306 0.0586,0.219826 -0.0814,0.461607 -0.07,0.120891 -0.1728,0.188558 -0.097,0.06612 -0.21211,0.08751 -0.11512,0.02139 -0.23891,-0.0014 -0.12167,-0.02643 -0.23523,-0.0922 z m 0.47009,-1.386141 -1.51478,2.615634 0.24911,0.144265 0.67253,-1.161283 0.94514,0.547357 q 0.18009,0.09451 0.24081,0.217729 0.0644,0.125343 0.052,0.264945 -0.007,0.138061 -0.0725,0.285754 -0.0602,0.146152 -0.13347,0.289603 -0.0197,0.04242 -0.0478,0.09949 -0.0282,0.05707 -0.0584,0.117807 -0.0245,0.05919 -0.0453,0.120508 -0.0151,0.05977 -0.0143,0.109136 l 0.27475,0.159115 q -0.0127,-0.07096 0.0104,-0.170068 0.0289,-0.10065 0.0731,-0.202262 0.0463,-0.105275 0.0978,-0.202643 0.0515,-0.09737 0.086,-0.165431 0.0606,-0.12147 0.0922,-0.235232 0.0374,-0.115303 0.027,-0.224056 -0.007,-0.106632 -0.0634,-0.203051 -0.0546,-0.100083 -0.17216,-0.192653 l 0.004,-0.0073 q 0.28248,0.0951 0.51677,-0.01381 0.23429,-0.108914 0.37856,-0.358022 0.10183,-0.175841 0.11015,-0.342246 0.0141,-0.167947 -0.0491,-0.312187 -0.0574,-0.145782 -0.18064,-0.27094 -0.11954,-0.123037 -0.28072,-0.216385 z" />
      <path
         inkscape:connector-curvature="0"
         id="path954"
         style="letter-spacing:0.238125px;fill:#ffffff;fill-opacity:1"
         d="m 189.08103,27.099076 -1.96538,2.29638 1.50519,1.288234 0.15965,-0.18654 -1.28649,-1.101056 1.80573,-2.109839 z" />
      <path
         inkscape:connector-curvature="0"
         id="path956"
         style="letter-spacing:0.238125px;fill:#ffffff;fill-opacity:1"
         d="m 191.24454,29.060359 -0.73282,0.721936 0.18717,0.189991 0.73282,-0.721936 z" />
      <path
         inkscape:connector-curvature="0"
         id="path958"
         style="letter-spacing:0.238125px;fill:#ffffff;fill-opacity:1"
         d="m 191.1617,31.665137 1.58312,-0.510702 -0.83095,1.432282 z m 1.71245,-0.807509 -3.10989,0.969942 0.19272,0.236135 0.95829,-0.312189 0.86994,1.065885 -0.4952,0.879568 0.1954,0.239414 1.59218,-2.829501 z" />
      <path
         inkscape:connector-curvature="0"
         id="path960"
         style="letter-spacing:0.238125px;fill:#ffffff;fill-opacity:1"
         d="m 194.34877,32.778165 -2.57348,1.585342 0.15099,0.245093 2.177,-1.341101 0.004,0.0072 -1.25333,2.840495 0.16875,0.273927 2.57347,-1.585342 -0.15098,-0.245093 -2.177,1.341102 -0.004,-0.0072 1.25333,-2.840494 z" />
      <path
         inkscape:connector-curvature="0"
         id="path962"
         style="letter-spacing:0.238125px;fill:#ffffff;fill-opacity:1"
         d="m 194.97907,36.759711 1.0882,-0.480504 0.43433,0.983641 q 0.13338,0.302063 0.0512,0.514201 -0.0822,0.212139 -0.33777,0.324997 -0.1278,0.05643 -0.25071,0.05054 -0.11734,-0.0037 -0.22295,-0.05427 -0.10562,-0.05054 -0.19223,-0.141878 -0.0827,-0.09304 -0.13574,-0.213094 z m 1.19653,-0.84302 -2.76504,1.220924 0.11628,0.263337 1.22762,-0.542063 0.44117,0.999132 q 0.0898,0.182465 0.0663,0.317805 -0.0218,0.139212 -0.11407,0.244728 -0.0866,0.107679 -0.22697,0.188148 -0.13474,0.08263 -0.27848,0.155357 -0.0409,0.02268 -0.0973,0.0522 -0.0564,0.02952 -0.11663,0.06076 -0.0547,0.03339 -0.10762,0.07066 -0.0474,0.03943 -0.0758,0.07977 l 0.12825,0.290445 q 0.0315,-0.06483 0.10863,-0.131266 0.0827,-0.06428 0.17825,-0.120353 0.0994,-0.05779 0.1984,-0.106119 0.099,-0.04833 0.16698,-0.08298 0.1205,-0.06246 0.21309,-0.135742 0.0982,-0.07111 0.15385,-0.165114 0.0574,-0.09013 0.0684,-0.201425 0.0149,-0.11301 -0.0256,-0.257101 l 0.008,-0.0034 q 0.1722,0.24327 0.42568,0.293313 0.25348,0.05004 0.51682,-0.06624 0.18588,-0.08208 0.29064,-0.211635 0.11035,-0.127393 0.14424,-0.281191 0.0395,-0.151635 0.0137,-0.325349 -0.0241,-0.169841 -0.0993,-0.340235 z" />
    </g>
  </g>
  <g
     style="display:none"
     transform="translate(-144.37438,-18.696272)"
     inkscape:label="text french text"
     id="g920"
     inkscape:groupmode="layer">
    <text
       transform="rotate(3,171.89558,47.54767)"
       x="1.2549803"
       id="text918"
       style="font-style:normal;font-variant:normal;font-weight:300;font-stretch:normal;font-size:4.23333px;line-height:1.25;font-family:'Helvetica Neue';-inkscape-font-specification:'Helvetica Neue Light';font-variant-ligatures:normal;font-variant-caps:normal;font-variant-numeric:normal;font-variant-east-asian:normal;letter-spacing:0.264583px;fill:#ffffff;fill-opacity:1;stroke:none;stroke-width:0.264583"
       xml:space="preserve"><textPath
         style="letter-spacing:0.238125px;fill:#ffffff;fill-opacity:1"
         id="textPath916"
         xlink:href="#path1130-2">PROJET FINANCÉ PAR L'ANR</textPath></text>
  </g>
  <g
     inkscape:groupmode="layer"
     id="layer5"
     inkscape:label="text ring"
     style="display:none"
     transform="translate(-144.37438,-18.696272)">
    <circle
       transform="matrix(-0.9998477,0.01745241,0.01745241,0.9998477,0,0)"
       style="display:inline;fill:none;stroke:#000000;stroke-width:0.45614;stroke-miterlimit:4;stroke-dasharray:none;stroke-opacity:1"
       id="path1130-5-3"
       cx="-172.17172"
       cy="50.358753"
       r="26" />
  </g>
  <g
     inkscape:groupmode="layer"
     id="layer8"
     inkscape:label="text ring french"
     style="display:none"
     transform="translate(-144.37438,-18.696272)">
    <circle
       cy="-29.102171"
       cx="-176.81705"
       id="path1130-2"
       style="display:inline;fill:none;stroke:#000000;stroke-width:0.345;stroke-miterlimit:4;stroke-dasharray:none;stroke-opacity:1"
       r="23"
       transform="rotate(-174)" />
  </g>
</svg>
