<?xml version="1.0" encoding="UTF-8" standalone="no"?>
<svg
   xmlns:dc="http://purl.org/dc/elements/1.1/"
   xmlns:cc="http://creativecommons.org/ns#"
   xmlns:rdf="http://www.w3.org/1999/02/22-rdf-syntax-ns#"
   xmlns:svg="http://www.w3.org/2000/svg"
   xmlns="http://www.w3.org/2000/svg"
   xmlns:sodipodi="http://sodipodi.sourceforge.net/DTD/sodipodi-0.dtd"
   xmlns:inkscape="http://www.inkscape.org/namespaces/inkscape"
   sodipodi:docname="fiind_inverted copy.svg"
   inkscape:version="1.0beta1 (32d4812, 2019-09-19)"
   version="1.1"
   id="svg2"
   viewBox="0 0 374.28571 374.28571"
   height="105.63174mm"
   width="105.63174mm">
  <defs
     id="defs4" />
  <sodipodi:namedview
     inkscape:document-rotation="0"
     inkscape:snap-global="false"
     fit-margin-bottom="0"
     fit-margin-right="0"
     fit-margin-left="0"
     fit-margin-top="0"
     inkscape:window-maximized="0"
     inkscape:window-y="23"
     inkscape:window-x="0"
     inkscape:window-height="907"
     inkscape:window-width="1600"
     showgrid="false"
     inkscape:current-layer="layer1"
     inkscape:document-units="px"
     inkscape:cy="560"
     inkscape:cx="400"
     inkscape:zoom="0.35"
     inkscape:pageshadow="2"
     inkscape:pageopacity="0"
     borderopacity="1.0"
     bordercolor="#666666"
     pagecolor="#adadad"
     id="base" />
  <metadata
     id="metadata7">
    <rdf:RDF>
      <cc:Work
         rdf:about="">
        <dc:format>image/svg+xml</dc:format>
        <dc:type
           rdf:resource="http://purl.org/dc/dcmitype/StillImage" />
        <dc:title></dc:title>
      </cc:Work>
    </rdf:RDF>
  </metadata>
  <g
     style="display:inline"
     inkscape:label="background"
     id="layer2"
     inkscape:groupmode="layer">
    <circle
       r="179.46429"
       cy="187.14285"
       cx="187.14285"
       id="path840"
       style="fill:#000000;fill-opacity:1;stroke:#ffffff;stroke-width:2.12599;stroke-linecap:round;stroke-linejoin:round" />
  </g>
  <g
     style="display:inline"
     transform="translate(-8.5714305,-9.5050659)"
     id="layer1"
     inkscape:groupmode="layer"
     inkscape:label="Layer 1">
    <path
       inkscape:connector-curvature="0"
       id="path827"
       d="m 184.77608,49.237901 c -11.43884,0.875614 -19.4437,10.451543 -28.396,16.294556 -7.58023,9.878352 -10.98676,23.332502 -22.45972,29.813233 -13.79155,12.20067 -19.17727,30.89733 -20.76699,48.6121 -4.24948,10.98607 -9.55721,21.66793 -14.40431,32.29082 -9.13063,8.39036 -17.52931,18.41605 -20.52206,30.65958 -11.70457,17.90408 -13.28151,40.54778 -8.42745,60.96139 2.54306,8.63191 1.22013,18.0601 6.4046,25.81177 8.30879,16.60737 24.2981,31.66519 43.89358,31.52579 13.5335,0.71363 27.23969,-2.29276 38.65307,-9.79051 9.75646,-5.6501 18.00359,-13.60861 27.5597,-19.36537 4.41913,-3.81036 6.17352,-10.30635 10.1587,-14.00939 4.62538,9.29857 13.29519,16.02351 20.79272,23.08844 9.43099,9.26516 22.44135,13.23026 34.84942,16.81007 16.341,4.55302 34.30054,1.95003 48.9965,-6.31343 17.73881,-10.23955 25.24863,-32.20918 22.56839,-51.79309 -2.01392,-11.30385 0.007,-23.05017 -3.82874,-34.0924 -3.03553,-11.81883 -11.5772,-21.4744 -13.08904,-33.71332 -1.53621,-8.66291 -4.34382,-17.13012 -9.53547,-24.30732 -5.63764,-10.02759 -8.28926,-21.65147 -15.65552,-30.6372 -6.66843,-12.08189 -6.3278,-27.71876 -17.10388,-37.52748 -5.93617,-6.68329 -14.45874,-11.735011 -18.40943,-19.773561 -0.0517,-13.651331 -11.71915,-23.969598 -23.65906,-28.450928 -6.85905,-3.92629 -17.15098,-7.773844 -23.84765,-1.629639 -1.40314,0.975522 -2.15197,5.303828 -2.50855,1.741334 -1.21874,-4.3311 -7.13008,-6.262133 -11.26281,-6.205445 z m 0.75989,7.825928 c 4.2617,-0.549113 7.07002,7.755622 1.40258,7.348023 -10.21888,3.30875 -21.00649,7.829473 -29.78393,13.150637 4.64495,-8.715575 12.73956,-14.804543 21.5332,-18.964236 2.17418,-0.872889 4.47935,-1.608271 6.84815,-1.534424 z m 24.32555,0.639038 c 9.5665,4.341596 21.45765,8.078409 26.87623,18.035892 1.19601,2.25971 1.67417,4.74568 -1.43372,1.87317 -9.4439,-5.672663 -18.86233,-12.145018 -29.68139,-14.66309 -3.54882,-2.108738 1.78323,-5.989894 4.23888,-5.245972 z m -6.35375,13.114014 c 6.98766,1.770057 13.14974,5.768918 19.57894,8.967218 7.72033,4.60828 15.70121,9.56447 22.04093,15.770331 -5.44343,3.06609 -14.13094,1.89302 -17.56714,7.97791 -0.79428,2.62427 0.59713,6.52945 3.62183,3.59253 9.83853,-4.30592 24.67362,-4.59269 30.24536,6.33911 8.41338,15.38385 13.99948,33.5894 8.9154,51.01503 -3.02683,14.386 -10.3283,27.84282 -20.92894,37.97423 -1.50038,4.00806 -6.7086,5.65871 -9.61487,2.12036 -3.06732,-2.79144 -4.96707,-6.61829 -6.25672,-10.50292 -4.58498,-0.22384 -5.8675,5.1081 -3.49182,8.26355 2.83618,6.58705 9.93125,11.64236 8.50267,19.43567 0.54173,17.5832 0.0291,37.2741 11.02369,52.06151 9.20233,10.73857 21.41787,18.38374 34.07776,24.40796 -0.43603,-8.73658 -10.12684,-11.83404 -15.51464,-17.05883 -12.12652,-8.63576 -20.39282,-22.72882 -20.94349,-37.82153 -0.32138,-9.05687 -0.96986,-18.35152 0.97596,-27.22413 4.70714,-9.80732 16.21192,-14.61715 19.71863,-25.29967 5.83602,-11.84627 10.38005,-24.48895 11.96776,-37.65382 10.64866,20.76715 5.9738,45.3625 -2.57951,65.93387 -2.06845,6.25388 -5.9994,11.5729 -8.654,17.5311 -2.52729,9.74669 6.48168,17.28789 13.16711,22.79847 7.35146,7.02558 19.30305,13.69041 29.08997,7.45421 1.92413,-0.8725 4.08528,-5.0641 4.41833,-0.79834 2.17425,16.26734 -4.80752,34.24678 -19.44946,42.6178 -19.67209,11.83038 -44.8674,7.33035 -64.27734,-2.55066 -8.77294,-5.20404 -16.09219,-12.80685 -23.04932,-20.26062 -6.78752,-7.36277 -9.78852,-17.18864 -9.37134,-27.00074 0.36521,-20.88828 0.79183,-41.81391 0.3717,-62.75208 0.68681,-5.02632 -0.72327,-11.35302 2.65674,-15.34088 12.54897,-10.14274 29.55926,-13.71211 41.90748,-24.37103 8.38183,-8.01678 15.52993,-19.27124 12.80639,-31.40808 -6.01993,13.31267 -15.37668,25.61068 -29.09363,31.52345 -9.03128,3.97949 -17.54306,9.09751 -26.80664,12.55554 0.61748,-32.44235 -0.86777,-65.01275 0.48156,-97.373667 0.27012,-0.86836 1.23584,-1.026044 2.03065,-0.922852 z m -14.17786,1.598511 c 5.15906,-0.322086 2.83954,6.483897 3.74264,9.846627 0.19382,14.638761 -0.91146,29.301351 -1.47461,43.901091 -1.44327,14.53474 -0.5257,29.21629 -1.33968,43.72115 -19.44993,-10.98539 -40.18136,-22.7039 -52.17408,-42.23877 -3.19833,-2.80121 -5.00386,2.44632 -3.05237,4.77723 4.8627,12.26699 13.66966,22.68571 24.89502,29.64477 10.26762,7.62851 25.30656,10.59162 30.49622,23.60962 2.68066,7.57756 -0.087,15.71028 0.85969,23.53448 -0.1034,22.57219 1.56557,45.51442 -2.14326,67.7198 -5.27506,15.36543 -22.66445,20.19456 -33.5669,30.3479 -13.6469,10.80252 -33.02442,12.64125 -49.08508,7.05506 -14.76151,-7.14791 -25.96065,-22.03174 -28.36487,-38.32764 6.72172,1.662 15.43411,4.66407 20.99546,-1.27039 10.32329,-7.49134 24.06721,-15.57109 25.00246,-29.77698 -1.02755,-5.85462 -5.5556,-10.90678 -7.3645,-16.75232 -5.14504,-12.79892 -8.1564,-26.22494 -9.62951,-39.97925 -0.67652,-9.5757 2.54526,-18.91732 7.66296,-26.85059 1.27162,-2.9224 0.95925,4.60883 1.60949,6.09925 3.19768,15.01537 12.03342,28.17186 22.57337,39.14109 3.37236,4.08268 8.85009,7.3268 7.26631,13.31675 -0.35647,17.2158 0.99484,34.9082 -6.13666,50.97844 -7.59306,13.34561 -23.31457,18.30863 -35.65797,26.42029 8.7799,3.80623 17.07727,-2.95131 24.70093,-6.41418 13.09207,-5.30422 21.02595,-18.43834 23.09509,-31.96839 2.98315,-15.24205 1.72529,-30.90043 3.64507,-46.22276 0.36264,-7.59579 7.9818,-11.82495 8.87935,-19.05434 -1.99419,-4.48627 -5.93925,1.07238 -7.70625,2.92425 -2.73594,2.72025 -5.23399,5.98377 -8.80804,7.63362 -19.57908,-18.97158 -31.23793,-47.66963 -24.81445,-74.80226 2.68703,-8.74715 5.62901,-18.41894 12.68738,-24.66979 9.15816,-6.82283 21.68816,-6.43372 32.24853,-3.60901 2.83057,-5.29391 -3.85245,-8.27014 -8.0255,-8.657231 -3.86495,-0.86339 -8.82484,-0.8018 -12.14356,-0.70496 7.87911,-4.78704 15.73908,-9.56289 24.27246,-13.00415 5.38154,-2.53492 10.68479,-6.31242 16.85486,-6.368407 z M 294.04427,183.09898 c 7.16648,17.23574 9.14058,37.25986 2.22107,54.70277 -1.62334,2.51918 0.80751,7.01472 3.60352,4.27918 4.92978,-6.20007 7.93468,-14.08573 7.88269,-22.00196 3.11527,6.63913 5.47355,13.7743 6.61743,21.01684 1.15844,8.70477 -4.27693,20.03271 -13.90686,20.50965 -7.86179,-2.03219 -14.32349,-7.91879 -20.12879,-13.41614 -1.95913,-2.7227 -6.44155,-5.93636 -3.51745,-9.58374 4.72485,-9.58968 10.21595,-19.15528 13.04443,-29.68323 2.79568,-8.26426 2.60854,-17.71119 4.18396,-25.82337 z m -194.01124,4.72229 c 1.40987,13.9989 3.53453,28.25414 8.7484,41.38142 2.80266,6.53024 8.87033,14.3426 5.1649,21.54499 -7.38077,8.39732 -14.73476,19.84153 -26.85886,21.09887 -8.2369,-2.05317 -11.412,-11.19444 -11.803,-18.85362 -1.21185,-10.33458 0.47031,-22.43169 4.56668,-31.00051 2.50196,9.33853 2.61448,20.31463 9.7998,27.84485 3.84495,-12.83576 -5.31791,-24.60429 -3.98438,-37.41028 0.41641,-10.30473 5.95362,-20.19889 14.26209,-26.24085 l 0.0597,0.9356 z"
       style="fill:#fffffd;fill-opacity:1;stroke-width:2.63196" />
  </g>
</svg>
