<?xml version="1.0" encoding="UTF-8" standalone="no"?>
<svg
   xmlns:dc="http://purl.org/dc/elements/1.1/"
   xmlns:cc="http://creativecommons.org/ns#"
   xmlns:rdf="http://www.w3.org/1999/02/22-rdf-syntax-ns#"
   xmlns:svg="http://www.w3.org/2000/svg"
   xmlns="http://www.w3.org/2000/svg"
   xmlns:sodipodi="http://sodipodi.sourceforge.net/DTD/sodipodi-0.dtd"
   xmlns:inkscape="http://www.inkscape.org/namespaces/inkscape"
   width="41.253078mm"
   height="65.592743mm"
   viewBox="0 0 146.17232 232.41523"
   id="svg2"
   version="1.1"
   inkscape:version="1.0beta1 (32d4812, 2019-09-19)"
   sodipodi:docname="fiind_with-font-and-text_all.svg">
  <defs
     id="defs4">
    <rect
       id="rect1474"
       height="88.546181"
       width="129.07124"
       y="668.79565"
       x="501.40707" />
    <rect
       x="500.73685"
       y="656.01093"
       width="129.74146"
       height="158.15199"
       id="rect847" />
  </defs>
  <sodipodi:namedview
     inkscape:snap-global="false"
     id="base"
     pagecolor="#4d4d4d"
     bordercolor="#666666"
     borderopacity="1.0"
     inkscape:pageopacity="0"
     inkscape:pageshadow="2"
     inkscape:zoom="1.4"
     inkscape:cx="96.90517"
     inkscape:cy="138.6082"
     inkscape:document-units="px"
     inkscape:current-layer="layer1"
     showgrid="false"
     inkscape:window-width="1661"
     inkscape:window-height="907"
     inkscape:window-x="0"
     inkscape:window-y="24"
     inkscape:window-maximized="0"
     fit-margin-top="0"
     fit-margin-left="0"
     fit-margin-right="5"
     fit-margin-bottom="0"
     inkscape:document-rotation="0"
     showguides="true"
     inkscape:guide-bbox="true">
    <sodipodi:guide
       id="guide1462"
       orientation="1,0"
       position="6.9439818e-06,70.223429" />
    <sodipodi:guide
       id="guide1464"
       orientation="1,0"
       position="129.07126,58.360623" />
    <sodipodi:guide
       id="guide1512"
       orientation="1,0"
       position="6.9439818e-06,54.099041" />
    <sodipodi:guide
       id="guide1514"
       orientation="1,0"
       position="-17.716533,37.999735" />
    <sodipodi:guide
       id="guide1516"
       orientation="1,0"
       position="146.5911,264.81056" />
    <sodipodi:guide
       id="guide1518"
       orientation="0,-1"
       position="182.10427,249.65827" />
    <sodipodi:guide
       id="guide1520"
       orientation="0,-1"
       position="187.78638,-46.008063" />
  </sodipodi:namedview>
  <metadata
     id="metadata7">
    <rdf:RDF>
      <cc:Work
         rdf:about="">
        <dc:format>image/svg+xml</dc:format>
        <dc:type
           rdf:resource="http://purl.org/dc/dcmitype/StillImage" />
        <dc:title></dc:title>
      </cc:Work>
    </rdf:RDF>
  </metadata>
  <g
     inkscape:label="Layer 1"
     inkscape:groupmode="layer"
     id="layer1"
     transform="translate(-501.40707,-488.11192)"
     style="display:inline">
    <g
       transform="translate(-5.9439818e-6)"
       aria-label="FIIND"
       id="text4254"
       style="font-style:normal;font-variant:normal;font-weight:500;font-stretch:normal;line-height:0%;font-family:Futura;-inkscape-font-specification:'Futura Medium';letter-spacing:0px;word-spacing:0px;fill:#ffffff;fill-opacity:1;stroke:none;stroke-width:1px;stroke-linecap:butt;stroke-linejoin:miter;stroke-opacity:1">
      <path
         inkscape:connector-curvature="0"
         d="m 501.40708,613.34514 h 23.18969 v 1.96699 h -20.91213 v 14.80413 h 18.84162 v 1.96698 h -18.84162 v 18.22047 h -2.27756 z"
         style="font-style:normal;font-variant:normal;font-weight:200;font-stretch:normal;font-size:51.7627px;line-height:1.25;font-family:'Helvetica Neue';-inkscape-font-specification:'Helvetica Neue Ultra-Light';letter-spacing:5px;fill:#ffffff;fill-opacity:1"
         id="path842" />
      <path
         inkscape:connector-curvature="0"
         d="m 532.99612,613.34514 h 2.27756 v 36.95857 h -2.27756 z"
         style="font-style:normal;font-variant:normal;font-weight:200;font-stretch:normal;font-size:51.7627px;line-height:1.25;font-family:'Helvetica Neue';-inkscape-font-specification:'Helvetica Neue Ultra-Light';letter-spacing:5px;fill:#ffffff;fill-opacity:1"
         id="path844" />
      <path
         inkscape:connector-curvature="0"
         d="m 546.79174,613.34514 h 2.27755 v 36.95857 h -2.27755 z"
         style="font-style:normal;font-variant:normal;font-weight:200;font-stretch:normal;font-size:51.7627px;line-height:1.25;font-family:'Helvetica Neue';-inkscape-font-specification:'Helvetica Neue Ultra-Light';letter-spacing:5px;fill:#ffffff;fill-opacity:1"
         id="path846" />
      <path
         inkscape:connector-curvature="0"
         d="m 560.58735,613.34514 h 2.84695 l 23.34498,33.90457 h 0.10352 v -33.90457 h 2.27756 v 36.95857 h -2.69166 l -23.50026,-34.16338 h -0.10353 v 34.16338 h -2.27756 z"
         style="font-style:normal;font-variant:normal;font-weight:200;font-stretch:normal;font-size:51.7627px;line-height:1.25;font-family:'Helvetica Neue';-inkscape-font-specification:'Helvetica Neue Ultra-Light';letter-spacing:5px;fill:#ffffff;fill-opacity:1"
         id="path848" />
      <path
         inkscape:connector-curvature="0"
         d="m 600.66871,613.34514 h 12.11247 q 4.96922,0 8.23027,1.55288 3.31281,1.55289 5.2798,4.14102 1.96698,2.58814 2.74342,5.90095 0.8282,3.31281 0.8282,6.83267 0,3.93397 -1.03525,7.35031 -0.98349,3.36457 -3.10576,5.84918 -2.12227,2.48461 -5.38332,3.93397 -3.20929,1.39759 -7.66088,1.39759 h -12.00895 z m 12.216,34.99159 q 2.58813,0 5.17627,-0.77644 2.6399,-0.82821 4.76217,-2.69166 2.12227,-1.91522 3.41633,-5.07275 1.34584,-3.20928 1.34584,-8.02322 0,-3.77867 -0.77645,-6.47033 -0.72467,-2.69166 -1.96698,-4.50336 -1.19054,-1.86345 -2.79518,-2.89871 -1.55288,-1.08702 -3.26105,-1.65641 -1.65641,-0.56938 -3.36458,-0.72467 -1.65641,-0.20705 -3.00224,-0.20705 h -9.47257 v 33.0246 z"
         style="font-style:normal;font-variant:normal;font-weight:200;font-stretch:normal;font-size:51.7627px;line-height:1.25;font-family:'Helvetica Neue';-inkscape-font-specification:'Helvetica Neue Ultra-Light';letter-spacing:5px;fill:#ffffff;fill-opacity:1"
         id="path850" />
    </g>
    <path
       inkscape:connector-curvature="0"
       id="path4332"
       d="m 535.85368,591.48262 c -7.9629,-0.53927 -13.54231,-7.52893 -16.32018,-14.43239 -0.24908,-4.81299 -2.03325,-9.32935 -1.9414,-14.13366 -0.33852,-5.55744 1.29505,-11.03923 4.30284,-15.67625 0.92926,-4.76299 4.44027,-8.1934 7.77545,-11.42944 1.58343,-4.29655 3.93544,-8.29421 5.43182,-12.60722 0.42494,-6.63216 2.62579,-13.49364 7.78676,-17.96959 4.48354,-2.67658 5.40856,-7.39113 8.38153,-11.21271 3.80528,-2.411 9.10326,-8.59711 13.64164,-4.59422 0.6368,1.53689 1.04395,7.18677 1.47911,2.37526 0.37122,-4.93685 6.53038,-3.15906 9.29516,-1.30007 4.43224,1.63605 8.57457,5.41481 8.36731,10.49418 2.9466,4.69388 8.81278,7.21924 10.4506,12.80606 1.37978,3.84683 1.85205,7.91443 4.72228,11.02223 1.99544,3.80922 3.1285,7.95966 5.65919,11.52702 2.30087,4.02552 2.03002,8.97458 4.20323,12.92864 2.71641,4.65168 4.44398,9.93756 3.94574,15.37821 0.58848,4.59134 1.35375,9.38968 -0.37748,13.88603 -1.66656,5.99887 -6.94825,10.4782 -13.0019,11.67162 -7.4484,2.47968 -15.41504,-0.35279 -22.18284,-3.56327 -3.76086,-2.84917 -7.27077,-6.14775 -10.28934,-9.76995 -1.87546,-5.73689 -3.5155,3.89146 -6.93949,4.49634 -5.91777,4.55623 -12.21432,10.02664 -20.11041,10.08038 -1.424,0.0393 -2.85872,0.15943 -4.27962,0.0228 z m 5.93774,-1.70879 c 3.95819,-0.45938 7.53832,-2.27961 10.45894,-4.96122 4.4806,-3.34418 10.9555,-5.85392 11.90131,-12.09485 1.06615,-9.69474 0.41889,-19.51983 0.5265,-29.26742 0.95188,-5.2791 -2.84323,-8.85739 -7.25098,-10.84591 -5.36669,-2.8673 -10.92695,-6.37967 -13.36364,-12.25164 -1.44997,-2.35829 -1.4713,-4.33677 0.25343,-0.92385 5.11434,6.73235 12.66223,10.94233 19.89363,14.98423 0.47736,-6.29191 -0.0877,-12.89141 0.75957,-19.26471 -0.15025,-6.38814 1.0226,-12.83232 0.004,-19.17438 -3.33386,-1.88159 -7.74957,2.27873 -11.3513,3.18802 -2.37278,1.79631 -7.61072,3.70351 -8.00157,5.62797 2.44832,-1.16002 9.73909,-0.3416 9.12967,1.48111 -5.21314,-1.33302 -12.4094,-0.66212 -14.71714,5.03826 -3.68663,6.41367 -4.23653,14.35762 -1.72535,21.29598 1.56828,5.48525 4.93173,10.44702 9.00971,14.39372 2.01217,0.55973 8.06256,-8.72103 5.02028,-2.57298 -3.78183,3.79018 -2.5871,9.31366 -3.08834,14.1181 -0.35044,6.64886 -0.72198,14.61909 -6.85851,18.73271 -2.60652,1.47565 -8.04975,4.54742 -9.56615,4.10834 5.00332,-3.03021 11.39002,-5.38049 13.20641,-11.58292 1.88089,-6.42861 1.43396,-13.22619 1.55155,-19.85507 -4.2161,-4.64017 -8.98679,-9.20372 -10.6531,-15.46678 -1.39601,-1.89551 -0.5927,-10.04324 -2.89682,-4.23994 -3.22851,4.55597 -3.32894,10.28192 -1.86616,15.49344 0.88242,5.47744 2.79745,10.72334 5.57484,15.50443 0.0854,5.40887 -5.68309,8.64516 -9.54715,11.50484 -2.48782,2.57668 -7.44705,-0.87818 -7.99321,0.37888 0.56884,6.02396 4.58614,11.51472 9.52574,14.80329 3.66601,2.14689 7.9493,2.2557 12.06348,1.84835 z m 54.9668,-0.59703 c 6.31703,-0.77812 12.42053,-5.07605 14.23508,-11.34954 0.86625,-2.92546 1.81318,-8.40297 -0.24483,-10.04304 -3.43709,4.84521 -8.94331,1.88975 -12.23034,-1.34359 -2.94405,-2.30909 -6.58242,-5.87151 -3.41064,-9.51326 3.82819,-7.4828 6.60773,-15.99004 5.16008,-24.47413 -0.16682,-1.85978 -2.5513,-8.30993 -3.24935,-6.70398 -0.47602,5.60107 -2.49911,11.09478 -5.06392,16.08293 -1.74132,4.22753 -7.65986,6.08549 -7.41163,11.04713 -0.41238,6.67907 -0.52716,14.19516 4.29453,19.45545 1.95069,3.06995 8.92558,6.87931 9.17468,8.34704 -4.51167,-2.22469 -8.81476,-5.19272 -11.96916,-9.14686 -3.74246,-6.37815 -3.17981,-13.89772 -3.48338,-21.00498 -0.79626,-1.88304 -5.19636,-6.82075 -2.98879,-7.26015 1.15029,3.29649 4.68629,7.15288 7.21089,2.49579 5.52368,-4.99802 8.20978,-12.60883 8.70831,-19.89518 -0.0249,-5.0902 -1.90366,-9.99564 -4.24944,-14.40689 -2.4708,-4.72683 -8.58029,-4.44216 -12.80013,-2.5505 -0.97981,-2.64283 8.65603,-2.33813 6.47433,-4.47221 -3.04681,-2.8379 -6.56567,-4.92711 -10.15561,-7.0157 -2.55234,-0.71793 -8.21091,-5.38846 -7.75626,0.0665 -0.24967,12.15502 0.12945,24.31713 -0.0759,36.46672 4.13415,-1.36355 7.91873,-3.77026 11.95961,-5.45589 4.08847,-2.16617 7.52915,-5.6014 9.45575,-9.82457 0.10952,3.49734 -3.06896,7.55824 -5.87655,9.90035 -4.97131,3.27876 -10.9837,4.95961 -15.52691,8.84642 -1.01199,5.05288 -0.3163,10.37868 -0.5355,15.54778 0.31108,6.24667 -0.73641,12.58362 0.24823,18.77379 1.5585,5.68161 6.57989,9.2682 10.71412,13.05298 5.55961,3.17384 12.01734,5.06011 18.47209,4.45737 l 0.92063,-0.0798 v 0 z M 525.6183,572.56221 c 4.29746,-1.24886 7.03282,-5.27126 9.82688,-8.51709 1.36084,-4.04886 -2.43071,-7.52292 -3.16553,-11.37072 -1.26748,-4.74129 -2.2007,-9.5902 -2.37658,-14.50411 -4.22975,2.40282 -7.19328,7.63102 -6.74278,12.60708 -0.21993,3.73002 2.33132,7.47599 1.73166,10.99963 -2.07763,-2.76346 -1.8383,-9.15691 -3.3878,-10.41924 -2.63497,5.47409 -3.25068,12.00209 -1.42848,17.80563 1.16198,1.83215 3.07296,4.16018 5.54263,3.39882 z m 81.07092,-3.87065 c 5.05927,-2.05297 5.75836,-7.98356 3.70862,-12.44791 -0.41352,-2.08311 -2.62104,-8.20353 -3.04839,-2.84157 0.63356,2.22218 -4.38817,10.69949 -2.5342,4.87452 2.72521,-7.27935 1.16441,-15.3731 -1.98678,-22.23431 -1.26328,3.31034 -0.71399,9.03348 -2.54649,12.96372 -0.92079,4.13109 -3.65772,7.59835 -5.05672,11.51211 1.66335,3.47587 5.25475,5.87364 8.49474,7.85986 0.94519,0.29641 1.97648,0.64668 2.96922,0.31358 z m -24.18515,-68.90994 c -0.17314,-5.15013 -5.75933,-7.39098 -9.76314,-9.22893 -3.39667,-2.44803 -7.1174,2.70476 -1.90088,3.16244 4.16614,1.49767 7.81354,4.21564 11.60539,6.31036 l 0.0587,-0.24387 v 0 z m -31.39536,-0.81244 c 4.03963,-2.59304 8.59765,-4.21935 13.13458,-5.68733 0.37798,-6.87744 -7.801,-2.32924 -10.31742,0.31616 -1.26735,0.14519 -6.35999,7.74139 -2.81716,5.37117 z"
       style="fill:#ffffff;fill-opacity:1" />
    <g
       style="font-style:normal;font-weight:normal;font-size:15px;line-height:1.25;font-family:sans-serif;shape-inside:url(#rect1474);fill:#ffffff;fill-opacity:1;stroke:none"
       id="text1472"
       transform="translate(0.2598562,-3.7499997)"
       aria-label="Ferret Interactive Integrated Neuro Development Atlas">
      <path
         inkscape:connector-curvature="0"
         id="path1522"
         style="letter-spacing:1.17188px;fill:#ffffff;fill-opacity:1"
         d="m 502.48625,672.25229 v 10.71 h 1.02 v -5.1 h 5.13 v -0.87 h -5.13 v -3.87 h 5.775 v -0.87 z" />
      <path
         inkscape:connector-curvature="0"
         id="path1524"
         style="letter-spacing:1.17188px;fill:#ffffff;fill-opacity:1"
         d="m 517.09977,678.55229 h -5.01 q 0.06,-0.525 0.24,-1.02 0.195,-0.51 0.51,-0.885 0.315,-0.39 0.765,-0.615 0.45,-0.24 1.035,-0.24 0.57,0 1.02,0.24 0.45,0.225 0.765,0.615 0.315,0.375 0.48,0.87 0.18,0.495 0.195,1.035 z m -5.01,0.795 h 5.955 q 0.03,-0.81 -0.15,-1.59 -0.18,-0.795 -0.6,-1.395 -0.405,-0.615 -1.065,-0.99 -0.66,-0.375 -1.59,-0.375 -0.915,0 -1.59,0.36 -0.66,0.345 -1.08,0.93 -0.42,0.57 -0.63,1.305 -0.195,0.735 -0.195,1.5 0,0.825 0.195,1.575 0.21,0.735 0.63,1.305 0.42,0.555 1.08,0.885 0.675,0.315 1.59,0.315 1.47,0 2.265,-0.72 0.81,-0.72 1.11,-2.04 h -0.945 q -0.225,0.9 -0.81,1.44 -0.585,0.54 -1.62,0.54 -0.675,0 -1.155,-0.285 -0.48,-0.285 -0.795,-0.72 -0.315,-0.435 -0.465,-0.975 -0.135,-0.555 -0.135,-1.065 z" />
      <path
         inkscape:connector-curvature="0"
         id="path1526"
         style="letter-spacing:1.17188px;fill:#ffffff;fill-opacity:1"
         d="m 520.49962,675.22229 v 7.74 h 0.945 v -4.125 q 0,-0.615 0.21,-1.125 0.21,-0.525 0.585,-0.9 0.39,-0.375 0.915,-0.57 0.525,-0.21 1.17,-0.18 v -0.945 q -1.05,-0.045 -1.815,0.465 -0.75,0.51 -1.11,1.455 h -0.03 v -1.815 z" />
      <path
         inkscape:connector-curvature="0"
         id="path1528"
         style="letter-spacing:1.17188px;fill:#ffffff;fill-opacity:1"
         d="m 526.3883,675.22229 v 7.74 h 0.945 v -4.125 q 0,-0.615 0.21,-1.125 0.21,-0.525 0.585,-0.9 0.39,-0.375 0.915,-0.57 0.525,-0.21 1.17,-0.18 v -0.945 q -1.05,-0.045 -1.815,0.465 -0.75,0.51 -1.11,1.455 h -0.03 v -1.815 z" />
      <path
         inkscape:connector-curvature="0"
         id="path1530"
         style="letter-spacing:1.17188px;fill:#ffffff;fill-opacity:1"
         d="m 537.5605,678.55229 h -5.01 q 0.06,-0.525 0.24,-1.02 0.195,-0.51 0.51,-0.885 0.315,-0.39 0.765,-0.615 0.45,-0.24 1.035,-0.24 0.57,0 1.02,0.24 0.45,0.225 0.765,0.615 0.315,0.375 0.48,0.87 0.18,0.495 0.195,1.035 z m -5.01,0.795 h 5.955 q 0.03,-0.81 -0.15,-1.59 -0.18,-0.795 -0.6,-1.395 -0.405,-0.615 -1.065,-0.99 -0.66,-0.375 -1.59,-0.375 -0.915,0 -1.59,0.36 -0.66,0.345 -1.08,0.93 -0.42,0.57 -0.63,1.305 -0.195,0.735 -0.195,1.5 0,0.825 0.195,1.575 0.21,0.735 0.63,1.305 0.42,0.555 1.08,0.885 0.675,0.315 1.59,0.315 1.47,0 2.265,-0.72 0.81,-0.72 1.11,-2.04 h -0.945 q -0.225,0.9 -0.81,1.44 -0.585,0.54 -1.62,0.54 -0.675,0 -1.155,-0.285 -0.48,-0.285 -0.795,-0.72 -0.315,-0.435 -0.465,-0.975 -0.135,-0.555 -0.135,-1.065 z" />
      <path
         inkscape:connector-curvature="0"
         id="path1532"
         style="letter-spacing:1.17188px;fill:#ffffff;fill-opacity:1"
         d="m 542.44885,675.22229 v -2.325 h -0.945 v 2.325 h -1.35 v 0.795 h 1.35 v 5.295 q -0.015,0.99 0.36,1.365 0.375,0.36 1.32,0.36 0.21,0 0.42,-0.015 0.21,-0.015 0.42,-0.015 v -0.795 q -0.405,0.045 -0.81,0.045 -0.51,-0.03 -0.645,-0.285 -0.12,-0.27 -0.12,-0.735 v -5.22 h 1.575 v -0.795 z" />
      <path
         inkscape:connector-curvature="0"
         id="path1534"
         style="letter-spacing:1.17188px;fill:#ffffff;fill-opacity:1"
         d="m 552.16089,672.25229 v 10.71 h 1.02 v -10.71 z" />
      <path
         inkscape:connector-curvature="0"
         id="path1536"
         style="letter-spacing:1.17188px;fill:#ffffff;fill-opacity:1"
         d="m 556.40262,675.22229 v 7.74 h 0.945 v -4.515 q 0.015,-0.57 0.18,-1.05 0.18,-0.495 0.48,-0.84 0.315,-0.36 0.75,-0.555 0.45,-0.21 1.02,-0.21 0.57,0 0.945,0.18 0.39,0.18 0.615,0.495 0.225,0.315 0.315,0.75 0.09,0.42 0.09,0.915 v 4.83 h 0.945 v -4.98 q 0,-0.69 -0.135,-1.245 -0.135,-0.555 -0.465,-0.93 -0.33,-0.39 -0.885,-0.6 -0.54,-0.21 -1.35,-0.21 -0.825,0 -1.515,0.435 -0.69,0.42 -0.96,1.125 h -0.03 v -1.335 z" />
      <path
         inkscape:connector-curvature="0"
         id="path1538"
         style="letter-spacing:1.17188px;fill:#ffffff;fill-opacity:1"
         d="m 567.14614,675.22229 v -2.325 h -0.945 v 2.325 h -1.35 v 0.795 h 1.35 v 5.295 q -0.015,0.99 0.36,1.365 0.375,0.36 1.32,0.36 0.21,0 0.42,-0.015 0.21,-0.015 0.42,-0.015 v -0.795 q -0.405,0.045 -0.81,0.045 -0.51,-0.03 -0.645,-0.285 -0.12,-0.27 -0.12,-0.735 v -5.22 h 1.575 v -0.795 z" />
      <path
         inkscape:connector-curvature="0"
         id="path1540"
         style="letter-spacing:1.17188px;fill:#ffffff;fill-opacity:1"
         d="m 576.83615,678.55229 h -5.01 q 0.06,-0.525 0.24,-1.02 0.195,-0.51 0.51,-0.885 0.315,-0.39 0.765,-0.615 0.45,-0.24 1.035,-0.24 0.57,0 1.02,0.24 0.45,0.225 0.765,0.615 0.315,0.375 0.48,0.87 0.18,0.495 0.195,1.035 z m -5.01,0.795 h 5.955 q 0.03,-0.81 -0.15,-1.59 -0.18,-0.795 -0.6,-1.395 -0.405,-0.615 -1.065,-0.99 -0.66,-0.375 -1.59,-0.375 -0.915,0 -1.59,0.36 -0.66,0.345 -1.08,0.93 -0.42,0.57 -0.63,1.305 -0.195,0.735 -0.195,1.5 0,0.825 0.195,1.575 0.21,0.735 0.63,1.305 0.42,0.555 1.08,0.885 0.675,0.315 1.59,0.315 1.47,0 2.265,-0.72 0.81,-0.72 1.11,-2.04 h -0.945 q -0.225,0.9 -0.81,1.44 -0.585,0.54 -1.62,0.54 -0.675,0 -1.155,-0.285 -0.48,-0.285 -0.795,-0.72 -0.315,-0.435 -0.465,-0.975 -0.135,-0.555 -0.135,-1.065 z" />
      <path
         inkscape:connector-curvature="0"
         id="path1542"
         style="letter-spacing:1.17188px;fill:#ffffff;fill-opacity:1"
         d="m 580.23599,675.22229 v 7.74 h 0.945 v -4.125 q 0,-0.615 0.21,-1.125 0.21,-0.525 0.585,-0.9 0.39,-0.375 0.915,-0.57 0.525,-0.21 1.17,-0.18 v -0.945 q -1.05,-0.045 -1.815,0.465 -0.75,0.51 -1.11,1.455 h -0.03 v -1.815 z" />
      <path
         inkscape:connector-curvature="0"
         id="path1544"
         style="letter-spacing:1.17188px;fill:#ffffff;fill-opacity:1"
         d="m 586.03467,677.59229 h 0.945 q 0.03,-0.945 0.6,-1.365 0.57,-0.435 1.47,-0.435 0.42,0 0.78,0.075 0.375,0.06 0.645,0.24 0.285,0.18 0.435,0.495 0.165,0.3 0.165,0.78 0,0.315 -0.09,0.51 -0.075,0.195 -0.225,0.315 -0.15,0.105 -0.375,0.15 -0.225,0.045 -0.525,0.075 -0.765,0.09 -1.515,0.195 -0.735,0.09 -1.335,0.33 -0.585,0.24 -0.945,0.705 -0.36,0.45 -0.36,1.26 0,0.585 0.195,1.02 0.21,0.42 0.555,0.705 0.36,0.27 0.825,0.39 0.48,0.135 1.02,0.135 0.57,0 0.975,-0.105 0.42,-0.105 0.735,-0.3 0.33,-0.195 0.585,-0.48 0.27,-0.3 0.525,-0.675 h 0.03 q 0,0.3 0.03,0.555 0.045,0.24 0.165,0.42 0.12,0.18 0.33,0.285 0.225,0.09 0.585,0.09 0.195,0 0.315,-0.015 0.135,-0.015 0.3,-0.045 v -0.795 q -0.135,0.06 -0.3,0.06 -0.555,0 -0.555,-0.57 v -4.11 q 0,-0.78 -0.255,-1.26 -0.255,-0.495 -0.66,-0.765 -0.405,-0.27 -0.915,-0.36 -0.51,-0.105 -1.02,-0.105 -0.675,0 -1.23,0.15 -0.555,0.15 -0.975,0.465 -0.405,0.315 -0.645,0.81 -0.24,0.495 -0.285,1.17 z m 5.04,1.14 v 1.23 q 0,0.57 -0.225,1.02 -0.21,0.45 -0.585,0.765 -0.36,0.315 -0.855,0.48 -0.495,0.165 -1.035,0.165 -0.33,0 -0.645,-0.105 -0.315,-0.105 -0.555,-0.3 -0.24,-0.21 -0.39,-0.48 -0.135,-0.285 -0.135,-0.645 0,-0.57 0.33,-0.87 0.345,-0.315 0.87,-0.48 0.525,-0.165 1.155,-0.24 0.645,-0.09 1.245,-0.195 0.195,-0.03 0.45,-0.105 0.255,-0.075 0.345,-0.24 z" />
      <path
         inkscape:connector-curvature="0"
         id="path1546"
         style="letter-spacing:1.17188px;fill:#ffffff;fill-opacity:1"
         d="m 600.54952,677.65229 h 0.945 q -0.165,-1.335 -1.035,-1.995 -0.855,-0.66 -2.1,-0.66 -0.885,0 -1.575,0.33 -0.675,0.33 -1.14,0.885 -0.465,0.555 -0.705,1.305 -0.24,0.735 -0.24,1.575 0,0.84 0.24,1.59 0.24,0.735 0.705,1.29 0.465,0.555 1.14,0.885 0.69,0.315 1.575,0.315 1.32,0 2.16,-0.78 0.84,-0.795 1.035,-2.205 h -0.945 q -0.045,0.48 -0.24,0.885 -0.195,0.405 -0.495,0.705 -0.3,0.285 -0.69,0.45 -0.39,0.165 -0.825,0.165 -0.675,0 -1.185,-0.285 -0.51,-0.285 -0.855,-0.75 -0.33,-0.465 -0.51,-1.05 -0.165,-0.6 -0.165,-1.215 0,-0.615 0.165,-1.2 0.18,-0.6 0.51,-1.065 0.345,-0.465 0.855,-0.75 0.51,-0.285 1.185,-0.285 0.945,0 1.47,0.495 0.525,0.495 0.72,1.365 z" />
      <path
         inkscape:connector-curvature="0"
         id="path1548"
         style="letter-spacing:1.17188px;fill:#ffffff;fill-opacity:1"
         d="m 605.55437,675.22229 v -2.325 h -0.945 v 2.325 h -1.35 v 0.795 h 1.35 v 5.295 q -0.015,0.99 0.36,1.365 0.375,0.36 1.32,0.36 0.21,0 0.42,-0.015 0.21,-0.015 0.42,-0.015 v -0.795 q -0.405,0.045 -0.81,0.045 -0.51,-0.03 -0.645,-0.285 -0.12,-0.27 -0.12,-0.735 v -5.22 h 1.575 v -0.795 z" />
      <path
         inkscape:connector-curvature="0"
         id="path1550"
         style="letter-spacing:1.17188px;fill:#ffffff;fill-opacity:1"
         d="m 609.69437,672.25229 v 1.515 h 0.945 v -1.515 z m 0,2.97 v 7.74 h 0.945 v -7.74 z" />
      <path
         inkscape:connector-curvature="0"
         id="path1552"
         style="letter-spacing:1.17188px;fill:#ffffff;fill-opacity:1"
         d="m 612.76445,675.22229 2.985,7.74 h 1.005 l 2.895,-7.74 h -0.975 l -2.4,6.795 h -0.03 l -2.43,-6.795 z" />
      <path
         inkscape:connector-curvature="0"
         id="path1554"
         style="letter-spacing:1.17188px;fill:#ffffff;fill-opacity:1"
         d="m 627.31469,678.55229 h -5.01 q 0.06,-0.525 0.24,-1.02 0.195,-0.51 0.51,-0.885 0.315,-0.39 0.765,-0.615 0.45,-0.24 1.035,-0.24 0.57,0 1.02,0.24 0.45,0.225 0.765,0.615 0.315,0.375 0.48,0.87 0.18,0.495 0.195,1.035 z m -5.01,0.795 h 5.955 q 0.03,-0.81 -0.15,-1.59 -0.18,-0.795 -0.6,-1.395 -0.405,-0.615 -1.065,-0.99 -0.66,-0.375 -1.59,-0.375 -0.915,0 -1.59,0.36 -0.66,0.345 -1.08,0.93 -0.42,0.57 -0.63,1.305 -0.195,0.735 -0.195,1.5 0,0.825 0.195,1.575 0.21,0.735 0.63,1.305 0.42,0.555 1.08,0.885 0.675,0.315 1.59,0.315 1.47,0 2.265,-0.72 0.81,-0.72 1.11,-2.04 h -0.945 q -0.225,0.9 -0.81,1.44 -0.585,0.54 -1.62,0.54 -0.675,0 -1.155,-0.285 -0.48,-0.285 -0.795,-0.72 -0.315,-0.435 -0.465,-0.975 -0.135,-0.555 -0.135,-1.065 z" />
      <path
         inkscape:connector-curvature="0"
         id="path1556"
         style="letter-spacing:1.21875px;fill:#ffffff;fill-opacity:1"
         d="m 502.56125,691.48472 v 10.71 h 1.02 v -10.71 z" />
      <path
         inkscape:connector-curvature="0"
         id="path1558"
         style="letter-spacing:1.21875px;fill:#ffffff;fill-opacity:1"
         d="m 506.84984,694.45472 v 7.74 h 0.945 v -4.515 q 0.015,-0.57 0.18,-1.05 0.18,-0.495 0.48,-0.84 0.315,-0.36 0.75,-0.555 0.45,-0.21 1.02,-0.21 0.57,0 0.945,0.18 0.39,0.18 0.615,0.495 0.225,0.315 0.315,0.75 0.09,0.42 0.09,0.915 v 4.83 h 0.945 v -4.98 q 0,-0.69 -0.135,-1.245 -0.135,-0.555 -0.465,-0.93 -0.33,-0.39 -0.885,-0.6 -0.54,-0.21 -1.35,-0.21 -0.825,0 -1.515,0.435 -0.69,0.42 -0.96,1.125 h -0.03 v -1.335 z" />
      <path
         inkscape:connector-curvature="0"
         id="path1560"
         style="letter-spacing:1.21875px;fill:#ffffff;fill-opacity:1"
         d="m 517.64023,694.45472 v -2.325 h -0.945 v 2.325 h -1.35 v 0.795 h 1.35 v 5.295 q -0.015,0.99 0.36,1.365 0.375,0.36 1.32,0.36 0.21,0 0.42,-0.015 0.21,-0.015 0.42,-0.015 v -0.795 q -0.405,0.045 -0.81,0.045 -0.51,-0.03 -0.645,-0.285 -0.12,-0.27 -0.12,-0.735 v -5.22 h 1.575 v -0.795 z" />
      <path
         inkscape:connector-curvature="0"
         id="path1562"
         style="letter-spacing:1.21875px;fill:#ffffff;fill-opacity:1"
         d="m 527.37711,697.78472 h -5.01 q 0.06,-0.525 0.24,-1.02 0.195,-0.51 0.51,-0.885 0.315,-0.39 0.765,-0.615 0.45,-0.24 1.035,-0.24 0.57,0 1.02,0.24 0.45,0.225 0.765,0.615 0.315,0.375 0.48,0.87 0.18,0.495 0.195,1.035 z m -5.01,0.795 h 5.955 q 0.03,-0.81 -0.15,-1.59 -0.18,-0.795 -0.6,-1.395 -0.405,-0.615 -1.065,-0.99 -0.66,-0.375 -1.59,-0.375 -0.915,0 -1.59,0.36 -0.66,0.345 -1.08,0.93 -0.42,0.57 -0.63,1.305 -0.195,0.735 -0.195,1.5 0,0.825 0.195,1.575 0.21,0.735 0.63,1.305 0.42,0.555 1.08,0.885 0.675,0.315 1.59,0.315 1.47,0 2.265,-0.72 0.81,-0.72 1.11,-2.04 h -0.945 q -0.225,0.9 -0.81,1.44 -0.585,0.54 -1.62,0.54 -0.675,0 -1.155,-0.285 -0.48,-0.285 -0.795,-0.72 -0.315,-0.435 -0.465,-0.975 -0.135,-0.555 -0.135,-1.065 z" />
      <path
         inkscape:connector-curvature="0"
         id="path1564"
         style="letter-spacing:1.21875px;fill:#ffffff;fill-opacity:1"
         d="m 537.36383,701.56472 v -7.11 h -0.945 v 1.335 h -0.03 q -0.135,-0.315 -0.39,-0.6 -0.24,-0.285 -0.555,-0.495 -0.315,-0.225 -0.705,-0.345 -0.375,-0.12 -0.81,-0.12 -0.84,0 -1.5,0.315 -0.645,0.3 -1.095,0.84 -0.435,0.525 -0.675,1.245 -0.225,0.705 -0.225,1.5 0,0.825 0.195,1.56 0.195,0.72 0.615,1.26 0.435,0.54 1.095,0.855 0.66,0.3 1.59,0.3 0.855,0 1.485,-0.435 0.645,-0.435 0.975,-1.155 h 0.03 v 1.05 q 0,1.41 -0.585,2.16 -0.585,0.75 -1.905,0.75 -0.39,0 -0.765,-0.09 -0.375,-0.075 -0.69,-0.255 -0.3,-0.18 -0.525,-0.48 -0.21,-0.285 -0.285,-0.72 h -0.945 q 0.045,0.615 0.33,1.05 0.3,0.45 0.735,0.735 0.45,0.285 1.005,0.42 0.555,0.135 1.14,0.135 0.945,0 1.59,-0.255 0.66,-0.255 1.065,-0.735 0.405,-0.48 0.585,-1.17 0.195,-0.69 0.195,-1.545 z m -3.435,-0.255 q -0.66,0 -1.14,-0.255 -0.48,-0.27 -0.795,-0.69 -0.315,-0.435 -0.465,-0.99 -0.15,-0.555 -0.15,-1.14 0,-0.6 0.135,-1.17 0.15,-0.585 0.465,-1.035 0.315,-0.45 0.795,-0.72 0.48,-0.285 1.155,-0.285 0.675,0 1.14,0.285 0.48,0.285 0.78,0.75 0.3,0.465 0.435,1.035 0.135,0.57 0.135,1.14 0,0.585 -0.165,1.14 -0.15,0.555 -0.465,0.99 -0.315,0.42 -0.78,0.69 -0.465,0.255 -1.08,0.255 z" />
      <path
         inkscape:connector-curvature="0"
         id="path1566"
         style="letter-spacing:1.21875px;fill:#ffffff;fill-opacity:1"
         d="m 540.39219,694.45472 v 7.74 h 0.945 v -4.125 q 0,-0.615 0.21,-1.125 0.21,-0.525 0.585,-0.9 0.39,-0.375 0.915,-0.57 0.525,-0.21 1.17,-0.18 v -0.945 q -1.05,-0.045 -1.815,0.465 -0.75,0.51 -1.11,1.455 h -0.03 v -1.815 z" />
      <path
         inkscape:connector-curvature="0"
         id="path1568"
         style="letter-spacing:1.21875px;fill:#ffffff;fill-opacity:1"
         d="m 546.23773,696.82472 h 0.945 q 0.03,-0.945 0.6,-1.365 0.57,-0.435 1.47,-0.435 0.42,0 0.78,0.075 0.375,0.06 0.645,0.24 0.285,0.18 0.435,0.495 0.165,0.3 0.165,0.78 0,0.315 -0.09,0.51 -0.075,0.195 -0.225,0.315 -0.15,0.105 -0.375,0.15 -0.225,0.045 -0.525,0.075 -0.765,0.09 -1.515,0.195 -0.735,0.09 -1.335,0.33 -0.585,0.24 -0.945,0.705 -0.36,0.45 -0.36,1.26 0,0.585 0.195,1.02 0.21,0.42 0.555,0.705 0.36,0.27 0.825,0.39 0.48,0.135 1.02,0.135 0.57,0 0.975,-0.105 0.42,-0.105 0.735,-0.3 0.33,-0.195 0.585,-0.48 0.27,-0.3 0.525,-0.675 h 0.03 q 0,0.3 0.03,0.555 0.045,0.24 0.165,0.42 0.12,0.18 0.33,0.285 0.225,0.09 0.585,0.09 0.195,0 0.315,-0.015 0.135,-0.015 0.3,-0.045 v -0.795 q -0.135,0.06 -0.3,0.06 -0.555,0 -0.555,-0.57 v -4.11 q 0,-0.78 -0.255,-1.26 -0.255,-0.495 -0.66,-0.765 -0.405,-0.27 -0.915,-0.36 -0.51,-0.105 -1.02,-0.105 -0.675,0 -1.23,0.15 -0.555,0.15 -0.975,0.465 -0.405,0.315 -0.645,0.81 -0.24,0.495 -0.285,1.17 z m 5.04,1.14 v 1.23 q 0,0.57 -0.225,1.02 -0.21,0.45 -0.585,0.765 -0.36,0.315 -0.855,0.48 -0.495,0.165 -1.035,0.165 -0.33,0 -0.645,-0.105 -0.315,-0.105 -0.555,-0.3 -0.24,-0.21 -0.39,-0.48 -0.135,-0.285 -0.135,-0.645 0,-0.57 0.33,-0.87 0.345,-0.315 0.87,-0.48 0.525,-0.165 1.155,-0.24 0.645,-0.09 1.245,-0.195 0.195,-0.03 0.45,-0.105 0.255,-0.075 0.345,-0.24 z" />
      <path
         inkscape:connector-curvature="0"
         id="path1570"
         style="letter-spacing:1.21875px;fill:#ffffff;fill-opacity:1"
         d="m 556.83945,694.45472 v -2.325 h -0.945 v 2.325 h -1.35 v 0.795 h 1.35 v 5.295 q -0.015,0.99 0.36,1.365 0.375,0.36 1.32,0.36 0.21,0 0.42,-0.015 0.21,-0.015 0.42,-0.015 v -0.795 q -0.405,0.045 -0.81,0.045 -0.51,-0.03 -0.645,-0.285 -0.12,-0.27 -0.12,-0.735 v -5.22 h 1.575 v -0.795 z" />
      <path
         inkscape:connector-curvature="0"
         id="path1572"
         style="letter-spacing:1.21875px;fill:#ffffff;fill-opacity:1"
         d="m 566.57633,697.78472 h -5.01 q 0.06,-0.525 0.24,-1.02 0.195,-0.51 0.51,-0.885 0.315,-0.39 0.765,-0.615 0.45,-0.24 1.035,-0.24 0.57,0 1.02,0.24 0.45,0.225 0.765,0.615 0.315,0.375 0.48,0.87 0.18,0.495 0.195,1.035 z m -5.01,0.795 h 5.955 q 0.03,-0.81 -0.15,-1.59 -0.18,-0.795 -0.6,-1.395 -0.405,-0.615 -1.065,-0.99 -0.66,-0.375 -1.59,-0.375 -0.915,0 -1.59,0.36 -0.66,0.345 -1.08,0.93 -0.42,0.57 -0.63,1.305 -0.195,0.735 -0.195,1.5 0,0.825 0.195,1.575 0.21,0.735 0.63,1.305 0.42,0.555 1.08,0.885 0.675,0.315 1.59,0.315 1.47,0 2.265,-0.72 0.81,-0.72 1.11,-2.04 h -0.945 q -0.225,0.9 -0.81,1.44 -0.585,0.54 -1.62,0.54 -0.675,0 -1.155,-0.285 -0.48,-0.285 -0.795,-0.72 -0.315,-0.435 -0.465,-0.975 -0.135,-0.555 -0.135,-1.065 z" />
      <path
         inkscape:connector-curvature="0"
         id="path1574"
         style="letter-spacing:1.21875px;fill:#ffffff;fill-opacity:1"
         d="m 576.83305,702.19472 v -10.71 h -0.945 v 4.44 h -0.03 q -0.15,-0.42 -0.435,-0.735 -0.27,-0.315 -0.63,-0.525 -0.36,-0.225 -0.78,-0.33 -0.405,-0.105 -0.84,-0.105 -0.885,0 -1.545,0.33 -0.645,0.33 -1.08,0.9 -0.435,0.555 -0.645,1.305 -0.21,0.735 -0.21,1.56 0,0.825 0.21,1.575 0.21,0.735 0.645,1.305 0.435,0.555 1.08,0.885 0.66,0.315 1.545,0.315 0.42,0 0.84,-0.12 0.435,-0.12 0.81,-0.33 0.375,-0.225 0.66,-0.54 0.3,-0.315 0.45,-0.69 h 0.03 v 1.47 z m -6.195,-3.87 q 0,-0.6 0.135,-1.185 0.15,-0.6 0.45,-1.065 0.315,-0.465 0.795,-0.75 0.48,-0.3 1.155,-0.3 0.75,0 1.26,0.3 0.525,0.285 0.84,0.75 0.33,0.465 0.465,1.065 0.15,0.585 0.15,1.185 0,0.6 -0.15,1.2 -0.135,0.585 -0.465,1.05 -0.315,0.465 -0.84,0.765 -0.51,0.285 -1.26,0.285 -0.675,0 -1.155,-0.285 -0.48,-0.3 -0.795,-0.765 -0.3,-0.465 -0.45,-1.05 -0.135,-0.6 -0.135,-1.2 z" />
      <path
         inkscape:connector-curvature="0"
         id="path1576"
         style="letter-spacing:1.21875px;fill:#ffffff;fill-opacity:1"
         d="m 585.39898,691.48472 v 10.71 h 1.02 v -9.06 h 0.03 l 6.24,9.06 h 1.14 v -10.71 h -1.02 v 9.06 h -0.03 l -6.24,-9.06 z" />
      <path
         inkscape:connector-curvature="0"
         id="path1578"
         style="letter-spacing:1.21875px;fill:#ffffff;fill-opacity:1"
         d="m 602.56461,697.78472 h -5.01 q 0.06,-0.525 0.24,-1.02 0.195,-0.51 0.51,-0.885 0.315,-0.39 0.765,-0.615 0.45,-0.24 1.035,-0.24 0.57,0 1.02,0.24 0.45,0.225 0.765,0.615 0.315,0.375 0.48,0.87 0.18,0.495 0.195,1.035 z m -5.01,0.795 h 5.955 q 0.03,-0.81 -0.15,-1.59 -0.18,-0.795 -0.6,-1.395 -0.405,-0.615 -1.065,-0.99 -0.66,-0.375 -1.59,-0.375 -0.915,0 -1.59,0.36 -0.66,0.345 -1.08,0.93 -0.42,0.57 -0.63,1.305 -0.195,0.735 -0.195,1.5 0,0.825 0.195,1.575 0.21,0.735 0.63,1.305 0.42,0.555 1.08,0.885 0.675,0.315 1.59,0.315 1.47,0 2.265,-0.72 0.81,-0.72 1.11,-2.04 h -0.945 q -0.225,0.9 -0.81,1.44 -0.585,0.54 -1.62,0.54 -0.675,0 -1.155,-0.285 -0.48,-0.285 -0.795,-0.72 -0.315,-0.435 -0.465,-0.975 -0.135,-0.555 -0.135,-1.065 z" />
      <path
         inkscape:connector-curvature="0"
         id="path1580"
         style="letter-spacing:1.21875px;fill:#ffffff;fill-opacity:1"
         d="m 612.28133,702.19472 v -7.74 h -0.945 v 4.065 q 0,0.585 -0.135,1.155 -0.135,0.555 -0.42,0.99 -0.285,0.435 -0.72,0.705 -0.435,0.255 -1.05,0.255 -1.125,0 -1.59,-0.54 -0.45,-0.54 -0.48,-1.59 v -5.04 h -0.945 v 5.025 q 0,0.69 0.15,1.23 0.15,0.54 0.465,0.915 0.33,0.375 0.84,0.57 0.525,0.21 1.26,0.21 0.87,0 1.575,-0.405 0.72,-0.42 1.095,-1.2 h 0.03 v 1.395 z" />
      <path
         inkscape:connector-curvature="0"
         id="path1582"
         style="letter-spacing:1.21875px;fill:#ffffff;fill-opacity:1"
         d="m 615.28672,694.45472 v 7.74 h 0.945 v -4.125 q 0,-0.615 0.21,-1.125 0.21,-0.525 0.585,-0.9 0.39,-0.375 0.915,-0.57 0.525,-0.21 1.17,-0.18 v -0.945 q -1.05,-0.045 -1.815,0.465 -0.75,0.51 -1.11,1.455 h -0.03 v -1.815 z" />
      <path
         inkscape:connector-curvature="0"
         id="path1584"
         style="letter-spacing:1.21875px;fill:#ffffff;fill-opacity:1"
         d="m 624.2108,695.02472 q 0.675,0 1.185,0.285 0.51,0.285 0.84,0.75 0.345,0.465 0.51,1.065 0.18,0.585 0.18,1.2 0,0.615 -0.18,1.215 -0.165,0.585 -0.51,1.05 -0.33,0.465 -0.84,0.75 -0.51,0.285 -1.185,0.285 -0.675,0 -1.185,-0.285 -0.51,-0.285 -0.855,-0.75 -0.33,-0.465 -0.51,-1.05 -0.165,-0.6 -0.165,-1.215 0,-0.615 0.165,-1.2 0.18,-0.6 0.51,-1.065 0.345,-0.465 0.855,-0.75 0.51,-0.285 1.185,-0.285 z m 0,-0.795 q -0.885,0 -1.575,0.33 -0.675,0.33 -1.14,0.885 -0.465,0.555 -0.705,1.305 -0.24,0.735 -0.24,1.575 0,0.84 0.24,1.59 0.24,0.735 0.705,1.29 0.465,0.555 1.14,0.885 0.69,0.315 1.575,0.315 0.885,0 1.56,-0.315 0.69,-0.33 1.155,-0.885 0.465,-0.555 0.705,-1.29 0.24,-0.75 0.24,-1.59 0,-0.84 -0.24,-1.575 -0.24,-0.75 -0.705,-1.305 -0.465,-0.555 -1.155,-0.885 -0.675,-0.33 -1.56,-0.33 z" />
      <path
         inkscape:connector-curvature="0"
         id="path1586"
         style="letter-spacing:0.375px;fill:#ffffff;fill-opacity:1"
         d="m 502.48625,710.71714 v 10.71 h 3.705 q 2.445,-0.06 3.675,-1.365 1.245,-1.32 1.245,-3.99 0,-2.67 -1.245,-3.975 -1.23,-1.32 -3.675,-1.38 z m 1.02,9.84 v -8.97 h 2.175 q 1.155,0 1.98,0.255 0.84,0.24 1.38,0.78 0.54,0.54 0.795,1.395 0.255,0.855 0.255,2.055 0,1.2 -0.255,2.055 -0.255,0.855 -0.795,1.395 -0.54,0.54 -1.38,0.795 -0.825,0.24 -1.98,0.24 z" />
      <path
         inkscape:connector-curvature="0"
         id="path1588"
         style="letter-spacing:0.375px;fill:#ffffff;fill-opacity:1"
         d="m 518.52945,717.01714 h -5.01 q 0.06,-0.525 0.24,-1.02 0.195,-0.51 0.51,-0.885 0.315,-0.39 0.765,-0.615 0.45,-0.24 1.035,-0.24 0.57,0 1.02,0.24 0.45,0.225 0.765,0.615 0.315,0.375 0.48,0.87 0.18,0.495 0.195,1.035 z m -5.01,0.795 h 5.955 q 0.03,-0.81 -0.15,-1.59 -0.18,-0.795 -0.6,-1.395 -0.405,-0.615 -1.065,-0.99 -0.66,-0.375 -1.59,-0.375 -0.915,0 -1.59,0.36 -0.66,0.345 -1.08,0.93 -0.42,0.57 -0.63,1.305 -0.195,0.735 -0.195,1.5 0,0.825 0.195,1.575 0.21,0.735 0.63,1.305 0.42,0.555 1.08,0.885 0.675,0.315 1.59,0.315 1.47,0 2.265,-0.72 0.81,-0.72 1.11,-2.04 h -0.945 q -0.225,0.9 -0.81,1.44 -0.585,0.54 -1.62,0.54 -0.675,0 -1.155,-0.285 -0.48,-0.285 -0.795,-0.72 -0.315,-0.435 -0.465,-0.975 -0.135,-0.555 -0.135,-1.065 z" />
      <path
         inkscape:connector-curvature="0"
         id="path1590"
         style="letter-spacing:0.375px;fill:#ffffff;fill-opacity:1"
         d="m 520.26242,713.68714 2.985,7.74 h 1.005 l 2.895,-7.74 h -0.975 l -2.4,6.795 h -0.03 l -2.43,-6.795 z" />
      <path
         inkscape:connector-curvature="0"
         id="path1592"
         style="letter-spacing:0.375px;fill:#ffffff;fill-opacity:1"
         d="m 534.01578,717.01714 h -5.01 q 0.06,-0.525 0.24,-1.02 0.195,-0.51 0.51,-0.885 0.315,-0.39 0.765,-0.615 0.45,-0.24 1.035,-0.24 0.57,0 1.02,0.24 0.45,0.225 0.765,0.615 0.315,0.375 0.48,0.87 0.18,0.495 0.195,1.035 z m -5.01,0.795 h 5.955 q 0.03,-0.81 -0.15,-1.59 -0.18,-0.795 -0.6,-1.395 -0.405,-0.615 -1.065,-0.99 -0.66,-0.375 -1.59,-0.375 -0.915,0 -1.59,0.36 -0.66,0.345 -1.08,0.93 -0.42,0.57 -0.63,1.305 -0.195,0.735 -0.195,1.5 0,0.825 0.195,1.575 0.21,0.735 0.63,1.305 0.42,0.555 1.08,0.885 0.675,0.315 1.59,0.315 1.47,0 2.265,-0.72 0.81,-0.72 1.11,-2.04 h -0.945 q -0.225,0.9 -0.81,1.44 -0.585,0.54 -1.62,0.54 -0.675,0 -1.155,-0.285 -0.48,-0.285 -0.795,-0.72 -0.315,-0.435 -0.465,-0.975 -0.135,-0.555 -0.135,-1.065 z" />
      <path
         inkscape:connector-curvature="0"
         id="path1594"
         style="letter-spacing:0.375px;fill:#ffffff;fill-opacity:1"
         d="m 536.63375,710.71714 v 10.71 h 0.945 v -10.71 z" />
      <path
         inkscape:connector-curvature="0"
         id="path1596"
         style="letter-spacing:0.375px;fill:#ffffff;fill-opacity:1"
         d="m 543.04695,714.25714 q 0.675,0 1.185,0.285 0.51,0.285 0.84,0.75 0.345,0.465 0.51,1.065 0.18,0.585 0.18,1.2 0,0.615 -0.18,1.215 -0.165,0.585 -0.51,1.05 -0.33,0.465 -0.84,0.75 -0.51,0.285 -1.185,0.285 -0.675,0 -1.185,-0.285 -0.51,-0.285 -0.855,-0.75 -0.33,-0.465 -0.51,-1.05 -0.165,-0.6 -0.165,-1.215 0,-0.615 0.165,-1.2 0.18,-0.6 0.51,-1.065 0.345,-0.465 0.855,-0.75 0.51,-0.285 1.185,-0.285 z m 0,-0.795 q -0.885,0 -1.575,0.33 -0.675,0.33 -1.14,0.885 -0.465,0.555 -0.705,1.305 -0.24,0.735 -0.24,1.575 0,0.84 0.24,1.59 0.24,0.735 0.705,1.29 0.465,0.555 1.14,0.885 0.69,0.315 1.575,0.315 0.885,0 1.56,-0.315 0.69,-0.33 1.155,-0.885 0.465,-0.555 0.705,-1.29 0.24,-0.75 0.24,-1.59 0,-0.84 -0.24,-1.575 -0.24,-0.75 -0.705,-1.305 -0.465,-0.555 -1.155,-0.885 -0.675,-0.33 -1.56,-0.33 z" />
      <path
         inkscape:connector-curvature="0"
         id="path1598"
         style="letter-spacing:0.375px;fill:#ffffff;fill-opacity:1"
         d="m 548.50156,713.68714 v 10.59 h 0.945 v -4.32 h 0.03 q 0.15,0.42 0.42,0.735 0.285,0.315 0.645,0.525 0.36,0.21 0.78,0.315 0.42,0.105 0.84,0.105 0.885,0 1.53,-0.315 0.66,-0.33 1.095,-0.885 0.435,-0.57 0.645,-1.305 0.21,-0.75 0.21,-1.575 0,-0.825 -0.21,-1.56 -0.21,-0.75 -0.645,-1.305 -0.435,-0.57 -1.095,-0.9 -0.645,-0.33 -1.53,-0.33 -0.945,0 -1.695,0.45 -0.735,0.435 -1.065,1.245 h -0.03 v -1.47 z m 6.195,3.87 q 0,0.6 -0.15,1.2 -0.135,0.585 -0.45,1.05 -0.3,0.465 -0.78,0.765 -0.48,0.285 -1.155,0.285 -0.75,0 -1.275,-0.285 -0.51,-0.3 -0.84,-0.765 -0.315,-0.465 -0.465,-1.05 -0.135,-0.6 -0.135,-1.2 0,-0.66 0.12,-1.26 0.135,-0.6 0.45,-1.05 0.315,-0.45 0.84,-0.72 0.525,-0.27 1.305,-0.27 0.675,0 1.155,0.3 0.48,0.285 0.78,0.75 0.315,0.465 0.45,1.065 0.15,0.585 0.15,1.185 z" />
      <path
         inkscape:connector-curvature="0"
         id="path1600"
         style="letter-spacing:0.375px;fill:#ffffff;fill-opacity:1"
         d="m 557.48984,713.68714 v 7.74 h 0.945 v -4.32 q 0,-0.615 0.135,-1.125 0.135,-0.525 0.405,-0.9 0.285,-0.39 0.72,-0.6 0.45,-0.225 1.05,-0.225 0.45,0 0.765,0.15 0.315,0.15 0.495,0.42 0.195,0.255 0.27,0.615 0.09,0.345 0.09,0.735 v 5.25 h 0.945 v -4.38 q 0,-0.54 0.09,-1.035 0.105,-0.51 0.345,-0.9 0.24,-0.39 0.645,-0.615 0.405,-0.24 1.02,-0.24 1.02,0 1.425,0.51 0.405,0.495 0.405,1.455 v 5.205 h 0.945 v -5.25 q 0,-2.715 -2.565,-2.715 -0.765,0 -1.44,0.375 -0.675,0.375 -1.02,1.14 -0.21,-0.765 -0.84,-1.14 -0.615,-0.375 -1.38,-0.375 -0.945,0 -1.56,0.405 -0.6,0.405 -0.975,1.125 h -0.045 v -1.305 z" />
      <path
         inkscape:connector-curvature="0"
         id="path1602"
         style="letter-spacing:0.375px;fill:#ffffff;fill-opacity:1"
         d="m 575.93961,717.01714 h -5.01 q 0.06,-0.525 0.24,-1.02 0.195,-0.51 0.51,-0.885 0.315,-0.39 0.765,-0.615 0.45,-0.24 1.035,-0.24 0.57,0 1.02,0.24 0.45,0.225 0.765,0.615 0.315,0.375 0.48,0.87 0.18,0.495 0.195,1.035 z m -5.01,0.795 h 5.955 q 0.03,-0.81 -0.15,-1.59 -0.18,-0.795 -0.6,-1.395 -0.405,-0.615 -1.065,-0.99 -0.66,-0.375 -1.59,-0.375 -0.915,0 -1.59,0.36 -0.66,0.345 -1.08,0.93 -0.42,0.57 -0.63,1.305 -0.195,0.735 -0.195,1.5 0,0.825 0.195,1.575 0.21,0.735 0.63,1.305 0.42,0.555 1.08,0.885 0.675,0.315 1.59,0.315 1.47,0 2.265,-0.72 0.81,-0.72 1.11,-2.04 h -0.945 q -0.225,0.9 -0.81,1.44 -0.585,0.54 -1.62,0.54 -0.675,0 -1.155,-0.285 -0.48,-0.285 -0.795,-0.72 -0.315,-0.435 -0.465,-0.975 -0.135,-0.555 -0.135,-1.065 z" />
      <path
         inkscape:connector-curvature="0"
         id="path1604"
         style="letter-spacing:0.375px;fill:#ffffff;fill-opacity:1"
         d="m 578.52758,713.68714 v 7.74 h 0.945 v -4.515 q 0.015,-0.57 0.18,-1.05 0.18,-0.495 0.48,-0.84 0.315,-0.36 0.75,-0.555 0.45,-0.21 1.02,-0.21 0.57,0 0.945,0.18 0.39,0.18 0.615,0.495 0.225,0.315 0.315,0.75 0.09,0.42 0.09,0.915 v 4.83 h 0.945 v -4.98 q 0,-0.69 -0.135,-1.245 -0.135,-0.555 -0.465,-0.93 -0.33,-0.39 -0.885,-0.6 -0.54,-0.21 -1.35,-0.21 -0.825,0 -1.515,0.435 -0.69,0.42 -0.96,1.125 h -0.03 v -1.335 z" />
      <path
         inkscape:connector-curvature="0"
         id="path1606"
         style="letter-spacing:0.375px;fill:#ffffff;fill-opacity:1"
         d="m 588.47422,713.68714 v -2.325 h -0.945 v 2.325 h -1.35 v 0.795 h 1.35 v 5.295 q -0.015,0.99 0.36,1.365 0.375,0.36 1.32,0.36 0.21,0 0.42,-0.015 0.21,-0.015 0.42,-0.015 v -0.795 q -0.405,0.045 -0.81,0.045 -0.51,-0.03 -0.645,-0.285 -0.12,-0.27 -0.12,-0.735 v -5.22 h 1.575 v -0.795 z" />
      <path
         inkscape:connector-curvature="0"
         id="path1608"
         style="letter-spacing:0.375px;fill:#ffffff;fill-opacity:1"
         d="m 598.0325,717.22714 2.145,-5.49 2.07,5.49 z m 1.62,-6.51 -4.305,10.71 h 1.08 l 1.29,-3.33 h 4.875 l 1.305,3.33 h 1.095 l -4.2,-10.71 z" />
      <path
         inkscape:connector-curvature="0"
         id="path1610"
         style="letter-spacing:0.375px;fill:#ffffff;fill-opacity:1"
         d="m 607.67539,713.68714 v -2.325 h -0.945 v 2.325 h -1.35 v 0.795 h 1.35 v 5.295 q -0.015,0.99 0.36,1.365 0.375,0.36 1.32,0.36 0.21,0 0.42,-0.015 0.21,-0.015 0.42,-0.015 v -0.795 q -0.405,0.045 -0.81,0.045 -0.51,-0.03 -0.645,-0.285 -0.12,-0.27 -0.12,-0.735 v -5.22 h 1.575 v -0.795 z" />
      <path
         inkscape:connector-curvature="0"
         id="path1612"
         style="letter-spacing:0.375px;fill:#ffffff;fill-opacity:1"
         d="m 611.01852,710.71714 v 10.71 h 0.945 v -10.71 z" />
      <path
         inkscape:connector-curvature="0"
         id="path1614"
         style="letter-spacing:0.375px;fill:#ffffff;fill-opacity:1"
         d="m 614.07172,716.05714 h 0.945 q 0.03,-0.945 0.6,-1.365 0.57,-0.435 1.47,-0.435 0.42,0 0.78,0.075 0.375,0.06 0.645,0.24 0.285,0.18 0.435,0.495 0.165,0.3 0.165,0.78 0,0.315 -0.09,0.51 -0.075,0.195 -0.225,0.315 -0.15,0.105 -0.375,0.15 -0.225,0.045 -0.525,0.075 -0.765,0.09 -1.515,0.195 -0.735,0.09 -1.335,0.33 -0.585,0.24 -0.945,0.705 -0.36,0.45 -0.36,1.26 0,0.585 0.195,1.02 0.21,0.42 0.555,0.705 0.36,0.27 0.825,0.39 0.48,0.135 1.02,0.135 0.57,0 0.975,-0.105 0.42,-0.105 0.735,-0.3 0.33,-0.195 0.585,-0.48 0.27,-0.3 0.525,-0.675 h 0.03 q 0,0.3 0.03,0.555 0.045,0.24 0.165,0.42 0.12,0.18 0.33,0.285 0.225,0.09 0.585,0.09 0.195,0 0.315,-0.015 0.135,-0.015 0.3,-0.045 v -0.795 q -0.135,0.06 -0.3,0.06 -0.555,0 -0.555,-0.57 v -4.11 q 0,-0.78 -0.255,-1.26 -0.255,-0.495 -0.66,-0.765 -0.405,-0.27 -0.915,-0.36 -0.51,-0.105 -1.02,-0.105 -0.675,0 -1.23,0.15 -0.555,0.15 -0.975,0.465 -0.405,0.315 -0.645,0.81 -0.24,0.495 -0.285,1.17 z m 5.04,1.14 v 1.23 q 0,0.57 -0.225,1.02 -0.21,0.45 -0.585,0.765 -0.36,0.315 -0.855,0.48 -0.495,0.165 -1.035,0.165 -0.33,0 -0.645,-0.105 -0.315,-0.105 -0.555,-0.3 -0.24,-0.21 -0.39,-0.48 -0.135,-0.285 -0.135,-0.645 0,-0.57 0.33,-0.87 0.345,-0.315 0.87,-0.48 0.525,-0.165 1.155,-0.24 0.645,-0.09 1.245,-0.195 0.195,-0.03 0.45,-0.105 0.255,-0.075 0.345,-0.24 z" />
      <path
         inkscape:connector-curvature="0"
         id="path1616"
         style="letter-spacing:0.375px;fill:#ffffff;fill-opacity:1"
         d="m 626.96469,715.95214 h 0.945 q -0.03,-0.63 -0.255,-1.095 -0.225,-0.465 -0.615,-0.78 -0.375,-0.315 -0.885,-0.465 -0.495,-0.15 -1.08,-0.15 -0.51,0 -1.035,0.12 -0.51,0.12 -0.93,0.375 -0.42,0.255 -0.69,0.675 -0.255,0.42 -0.255,1.005 0,0.495 0.165,0.84 0.165,0.33 0.45,0.57 0.3,0.225 0.69,0.39 0.39,0.15 0.855,0.27 l 1.215,0.27 q 0.315,0.075 0.615,0.18 0.315,0.105 0.555,0.27 0.24,0.15 0.375,0.39 0.15,0.225 0.15,0.57 0,0.405 -0.21,0.69 -0.195,0.27 -0.51,0.45 -0.315,0.18 -0.69,0.255 -0.36,0.075 -0.705,0.075 -0.945,0 -1.59,-0.48 -0.63,-0.495 -0.69,-1.455 h -0.945 q 0.12,1.425 0.96,2.07 0.855,0.645 2.22,0.645 0.54,0 1.095,-0.12 0.555,-0.12 0.99,-0.39 0.45,-0.285 0.735,-0.72 0.285,-0.45 0.285,-1.08 0,-0.51 -0.195,-0.885 -0.195,-0.375 -0.51,-0.63 -0.3,-0.255 -0.705,-0.405 -0.39,-0.165 -0.795,-0.225 l -1.26,-0.285 q -0.24,-0.06 -0.525,-0.15 -0.285,-0.105 -0.525,-0.255 -0.24,-0.15 -0.405,-0.36 -0.15,-0.225 -0.15,-0.54 0,-0.375 0.165,-0.63 0.165,-0.255 0.435,-0.405 0.27,-0.165 0.585,-0.225 0.33,-0.075 0.645,-0.075 0.405,0 0.765,0.105 0.36,0.09 0.63,0.3 0.285,0.21 0.45,0.54 0.165,0.315 0.18,0.75 z" />
    </g>
  </g>
</svg>
