<?xml version="1.0" encoding="UTF-8" standalone="no"?>
<svg
   xmlns:dc="http://purl.org/dc/elements/1.1/"
   xmlns:cc="http://creativecommons.org/ns#"
   xmlns:rdf="http://www.w3.org/1999/02/22-rdf-syntax-ns#"
   xmlns:svg="http://www.w3.org/2000/svg"
   xmlns="http://www.w3.org/2000/svg"
   xmlns:sodipodi="http://sodipodi.sourceforge.net/DTD/sodipodi-0.dtd"
   xmlns:inkscape="http://www.inkscape.org/namespaces/inkscape"
   sodipodi:docname="fiind_with-font-and-text_2.svg"
   inkscape:version="1.0beta1 (32d4812, 2019-09-19)"
   version="1.1"
   id="svg2"
   viewBox="0 0 165.58638 86.926041"
   height="24.532461mm"
   width="46.732155mm">
  <defs
     id="defs4">
    <rect
       id="rect847"
       height="158.15199"
       width="129.74146"
       y="656.01093"
       x="500.73685" />
  </defs>
  <sodipodi:namedview
     inkscape:guide-bbox="true"
     showguides="true"
     inkscape:document-rotation="0"
     fit-margin-bottom="5"
     fit-margin-right="5"
     fit-margin-left="5"
     fit-margin-top="2.5"
     inkscape:window-maximized="0"
     inkscape:window-y="23"
     inkscape:window-x="0"
     inkscape:window-height="907"
     inkscape:window-width="1600"
     showgrid="false"
     inkscape:current-layer="layer1"
     inkscape:document-units="px"
     inkscape:cy="61.489719"
     inkscape:cx="67.154736"
     inkscape:zoom="1.979899"
     inkscape:pageshadow="2"
     inkscape:pageopacity="0.0"
     borderopacity="1.0"
     bordercolor="#666666"
     pagecolor="#ffffff"
     id="base" />
  <metadata
     id="metadata7">
    <rdf:RDF>
      <cc:Work
         rdf:about="">
        <dc:format>image/svg+xml</dc:format>
        <dc:type
           rdf:resource="http://purl.org/dc/dcmitype/StillImage" />
        <dc:title />
      </cc:Work>
    </rdf:RDF>
  </metadata>
  <g
     transform="translate(-483.58589,-668.11274)"
     id="layer1"
     inkscape:groupmode="layer"
     inkscape:label="Layer 1">
    <g
       style="font-style:normal;font-weight:normal;font-size:17.5px;line-height:1.25;font-family:sans-serif;inline-size:160.624;fill:#000000;fill-opacity:1;stroke:none;stroke-width:0.962504"
       id="text853"
       aria-label="Ferret Interactive 
Integrated Neuro 
Development Atlas">
      <path
         id="path860"
         style="font-style:normal;font-variant:normal;font-weight:100;font-stretch:normal;font-family:'Helvetica Neue';-inkscape-font-specification:'Helvetica Neue Thin';letter-spacing:0.962504px;fill:#b3ffff;fill-opacity:1;stroke-width:0.962504"
         d="m 501.65242,682.781 v -5.46 h 7.35 v -0.35 h -7.7 v 12.495 h 0.35 v -6.335 h 6.65 v -0.35 z" />
      <path
         id="path862"
         style="font-style:normal;font-variant:normal;font-weight:100;font-stretch:normal;font-family:'Helvetica Neue';-inkscape-font-specification:'Helvetica Neue Thin';letter-spacing:0.962504px;fill:#b3ffff;fill-opacity:1;stroke-width:0.962504"
         d="m 510.51563,685.0385 h 7.525 q 0.035,-0.9275 -0.1925,-1.785 -0.21,-0.8575 -0.7,-1.5225 -0.4725,-0.665 -1.2425,-1.0675 -0.7525,-0.4025 -1.8025,-0.4025 -0.7525,0 -1.47,0.315 -0.7175,0.315 -1.26,0.9275 -0.5425,0.595 -0.875,1.47 -0.3325,0.875 -0.3325,1.995 0,0.9975 0.2275,1.8725 0.2275,0.8575 0.7,1.505 0.4725,0.63 1.2075,0.98 0.7525,0.35 1.8025,0.3325 1.54,0 2.59,-0.8575 1.05,-0.875 1.2425,-2.45 h -0.35 q -0.2275,1.4875 -1.1725,2.24 -0.9275,0.735 -2.345,0.735 -0.9625,0 -1.6275,-0.3325 -0.665,-0.3325 -1.085,-0.91 -0.42,-0.5775 -0.63,-1.3475 -0.1925,-0.7875 -0.21,-1.6975 z m 7.175,-0.35 h -7.175 q 0.0525,-0.945 0.35,-1.6975 0.2975,-0.7525 0.77,-1.2775 0.49,-0.5425 1.12,-0.8225 0.6475,-0.28 1.3825,-0.28 0.875,0 1.54,0.3325 0.665,0.315 1.1025,0.875 0.455,0.56 0.6825,1.3125 0.2275,0.735 0.2275,1.5575 z" />
      <path
         id="path864"
         style="font-style:normal;font-variant:normal;font-weight:100;font-stretch:normal;font-family:'Helvetica Neue';-inkscape-font-specification:'Helvetica Neue Thin';letter-spacing:0.962504px;fill:#b3ffff;fill-opacity:1;stroke-width:0.962504"
         d="m 520.75313,689.466 v -5.0925 q 0,-0.735 0.21,-1.435 0.21,-0.7 0.6475,-1.225 0.4375,-0.5425 1.1025,-0.84 0.6825,-0.315 1.61,-0.2625 v -0.35 q -0.805,-0.0175 -1.4175,0.175 -0.595,0.1925 -1.0325,0.525 -0.4375,0.3325 -0.7,0.7875 -0.2625,0.4375 -0.385,0.945 h -0.035 v -2.2225 h -0.35 v 8.995 z" />
      <path
         id="path866"
         style="font-style:normal;font-variant:normal;font-weight:100;font-stretch:normal;font-family:'Helvetica Neue';-inkscape-font-specification:'Helvetica Neue Thin';letter-spacing:0.962504px;fill:#b3ffff;fill-opacity:1;stroke-width:0.962504"
         d="m 526.26154,689.466 v -5.0925 q 0,-0.735 0.21,-1.435 0.21,-0.7 0.6475,-1.225 0.4375,-0.5425 1.1025,-0.84 0.6825,-0.315 1.61,-0.2625 v -0.35 q -0.805,-0.0175 -1.4175,0.175 -0.595,0.1925 -1.0325,0.525 -0.4375,0.3325 -0.7,0.7875 -0.2625,0.4375 -0.385,0.945 h -0.035 v -2.2225 h -0.35 v 8.995 z" />
      <path
         id="path868"
         style="font-style:normal;font-variant:normal;font-weight:100;font-stretch:normal;font-family:'Helvetica Neue';-inkscape-font-specification:'Helvetica Neue Thin';letter-spacing:0.962504px;fill:#b3ffff;fill-opacity:1;stroke-width:0.962504"
         d="m 531.24494,685.0385 h 7.525 q 0.035,-0.9275 -0.1925,-1.785 -0.21,-0.8575 -0.7,-1.5225 -0.4725,-0.665 -1.2425,-1.0675 -0.7525,-0.4025 -1.8025,-0.4025 -0.7525,0 -1.47,0.315 -0.7175,0.315 -1.26,0.9275 -0.5425,0.595 -0.875,1.47 -0.3325,0.875 -0.3325,1.995 0,0.9975 0.2275,1.8725 0.2275,0.8575 0.7,1.505 0.4725,0.63 1.2075,0.98 0.7525,0.35 1.8025,0.3325 1.54,0 2.59,-0.8575 1.05,-0.875 1.2425,-2.45 h -0.35 q -0.2275,1.4875 -1.1725,2.24 -0.9275,0.735 -2.345,0.735 -0.9625,0 -1.6275,-0.3325 -0.665,-0.3325 -1.085,-0.91 -0.42,-0.5775 -0.63,-1.3475 -0.1925,-0.7875 -0.21,-1.6975 z m 7.175,-0.35 h -7.175 q 0.0525,-0.945 0.35,-1.6975 0.2975,-0.7525 0.77,-1.2775 0.49,-0.5425 1.12,-0.8225 0.6475,-0.28 1.3825,-0.28 0.875,0 1.54,0.3325 0.665,0.315 1.1025,0.875 0.455,0.56 0.6825,1.3125 0.2275,0.735 0.2275,1.5575 z" />
      <path
         id="path870"
         style="font-style:normal;font-variant:normal;font-weight:100;font-stretch:normal;font-family:'Helvetica Neue';-inkscape-font-specification:'Helvetica Neue Thin';letter-spacing:0.962504px;fill:#b3ffff;fill-opacity:1;stroke-width:0.962504"
         d="m 542.09494,680.821 h 2.03 v -0.35 h -2.03 v -2.835 h -0.35 v 2.835 h -1.645 v 0.35 h 1.645 v 6.965 q 0,0.9625 0.42,1.33 0.4375,0.35 1.05,0.35 0.4025,0 0.5425,-0.0175 0.1575,-0.0175 0.315,-0.035 v -0.35 q -0.0875,0.035 -0.2975,0.0525 -0.21,0 -0.4725,0 -0.21,0 -0.42,-0.0175 -0.21,-0.035 -0.385,-0.175 -0.175,-0.14 -0.2975,-0.42 -0.105,-0.28 -0.105,-0.7875 z" />
      <path
         id="path872"
         style="font-style:normal;font-variant:normal;font-weight:100;font-stretch:normal;font-family:'Helvetica Neue';-inkscape-font-specification:'Helvetica Neue Thin';letter-spacing:0.962504px;fill:#b3ffff;fill-opacity:1;stroke-width:0.962504"
         d="m 552.09757,676.971 v 12.495 h 0.35 v -12.495 z" />
      <path
         id="path874"
         style="font-style:normal;font-variant:normal;font-weight:100;font-stretch:normal;font-family:'Helvetica Neue';-inkscape-font-specification:'Helvetica Neue Thin';letter-spacing:0.962504px;fill:#b3ffff;fill-opacity:1;stroke-width:0.962504"
         d="m 555.33343,680.471 v 8.995 h 0.35 v -5.0925 q 0,-0.7525 0.21,-1.435 0.21,-0.6825 0.6125,-1.19 0.42,-0.525 1.0325,-0.8225 0.6125,-0.315 1.4175,-0.315 0.5775,0 1.085,0.175 0.525,0.1575 0.91,0.525 0.4025,0.35 0.63,0.91 0.2275,0.5425 0.2275,1.33 v 5.915 h 0.35 v -5.9675 q 0,-0.7875 -0.245,-1.3825 -0.2275,-0.6125 -0.665,-1.015 -0.42,-0.42 -1.015,-0.63 -0.5775,-0.21 -1.2775,-0.21 -0.665,0 -1.2075,0.1925 -0.5425,0.175 -0.9625,0.5075 -0.4025,0.3325 -0.6825,0.77 -0.2625,0.4375 -0.385,0.9625 h -0.035 v -2.2225 z" />
      <path
         id="path876"
         style="font-style:normal;font-variant:normal;font-weight:100;font-stretch:normal;font-family:'Helvetica Neue';-inkscape-font-specification:'Helvetica Neue Thin';letter-spacing:0.962504px;fill:#b3ffff;fill-opacity:1;stroke-width:0.962504"
         d="m 566.00844,680.821 h 2.03 v -0.35 h -2.03 v -2.835 h -0.35 v 2.835 h -1.645 v 0.35 h 1.645 v 6.965 q 0,0.9625 0.42,1.33 0.4375,0.35 1.05,0.35 0.4025,0 0.5425,-0.0175 0.1575,-0.0175 0.315,-0.035 v -0.35 q -0.0875,0.035 -0.2975,0.0525 -0.21,0 -0.4725,0 -0.21,0 -0.42,-0.0175 -0.21,-0.035 -0.385,-0.175 -0.175,-0.14 -0.2975,-0.42 -0.105,-0.28 -0.105,-0.7875 z" />
      <path
         id="path878"
         style="font-style:normal;font-variant:normal;font-weight:100;font-stretch:normal;font-family:'Helvetica Neue';-inkscape-font-specification:'Helvetica Neue Thin';letter-spacing:0.962504px;fill:#b3ffff;fill-opacity:1;stroke-width:0.962504"
         d="m 570.03754,685.0385 h 7.525 q 0.035,-0.9275 -0.1925,-1.785 -0.21,-0.8575 -0.7,-1.5225 -0.4725,-0.665 -1.2425,-1.0675 -0.7525,-0.4025 -1.8025,-0.4025 -0.7525,0 -1.47,0.315 -0.7175,0.315 -1.26,0.9275 -0.5425,0.595 -0.875,1.47 -0.3325,0.875 -0.3325,1.995 0,0.9975 0.2275,1.8725 0.2275,0.8575 0.7,1.505 0.4725,0.63 1.2075,0.98 0.7525,0.35 1.8025,0.3325 1.54,0 2.59,-0.8575 1.05,-0.875 1.2425,-2.45 h -0.35 q -0.2275,1.4875 -1.1725,2.24 -0.9275,0.735 -2.345,0.735 -0.9625,0 -1.6275,-0.3325 -0.665,-0.3325 -1.085,-0.91 -0.42,-0.5775 -0.63,-1.3475 -0.1925,-0.7875 -0.21,-1.6975 z m 7.175,-0.35 h -7.175 q 0.0525,-0.945 0.35,-1.6975 0.2975,-0.7525 0.77,-1.2775 0.49,-0.5425 1.12,-0.8225 0.6475,-0.28 1.3825,-0.28 0.875,0 1.54,0.3325 0.665,0.315 1.1025,0.875 0.455,0.56 0.6825,1.3125 0.2275,0.735 0.2275,1.5575 z" />
      <path
         id="path880"
         style="font-style:normal;font-variant:normal;font-weight:100;font-stretch:normal;font-family:'Helvetica Neue';-inkscape-font-specification:'Helvetica Neue Thin';letter-spacing:0.962504px;fill:#b3ffff;fill-opacity:1;stroke-width:0.962504"
         d="m 580.27505,689.466 v -5.0925 q 0,-0.735 0.21,-1.435 0.21,-0.7 0.6475,-1.225 0.4375,-0.5425 1.1025,-0.84 0.6825,-0.315 1.61,-0.2625 v -0.35 q -0.805,-0.0175 -1.4175,0.175 -0.595,0.1925 -1.0325,0.525 -0.4375,0.3325 -0.7,0.7875 -0.2625,0.4375 -0.385,0.945 h -0.035 v -2.2225 h -0.35 v 8.995 z" />
      <path
         id="path882"
         style="font-style:normal;font-variant:normal;font-weight:100;font-stretch:normal;font-family:'Helvetica Neue';-inkscape-font-specification:'Helvetica Neue Thin';letter-spacing:0.962504px;fill:#b3ffff;fill-opacity:1;stroke-width:0.962504"
         d="m 585.41595,683.2535 h 0.35 q 0.0875,-1.26 0.875,-1.9425 0.7875,-0.7 2.205,-0.7 0.8925,0 1.4175,0.245 0.525,0.2275 0.7875,0.595 0.28,0.3675 0.35,0.805 0.07,0.4375 0.07,0.84 0,0.5075 -0.21,0.7875 -0.1925,0.2625 -0.63,0.4025 -0.42,0.1225 -1.085,0.175 -0.665,0.035 -1.5925,0.0875 -0.56,0.035 -1.12,0.1575 -0.56,0.105 -0.9975,0.4025 -0.4375,0.28 -0.7175,0.7875 -0.2625,0.5075 -0.2625,1.3475 0,1.2075 0.8225,1.82 0.8225,0.595 2.1875,0.595 0.7,0 1.295,-0.1925 0.595,-0.175 1.05,-0.49 0.4725,-0.315 0.77,-0.7175 0.315,-0.4025 0.455,-0.84 h 0.035 v 1.1725 q 0,0.5075 0.28,0.7 0.2975,0.175 0.6825,0.175 h 0.525 v -0.35 q -0.175,0.0175 -0.385,0.035 -0.1925,0 -0.3675,-0.035 -0.175,-0.0525 -0.28,-0.175 -0.105,-0.1225 -0.105,-0.385 v -5.7225 q -0.0175,-0.735 -0.2625,-1.225 -0.245,-0.49 -0.6475,-0.7875 -0.4025,-0.315 -0.945,-0.4375 -0.525,-0.1225 -1.12,-0.1225 -0.84,0 -1.47,0.2275 -0.6125,0.2275 -1.05,0.63 -0.42,0.4025 -0.6475,0.9625 -0.2275,0.5425 -0.2625,1.1725 z m 6.055,0.9275 v 1.6625 q 0,0.665 -0.245,1.295 -0.2275,0.63 -0.7,1.12 -0.455,0.4725 -1.1375,0.77 -0.6825,0.2975 -1.5575,0.2975 -0.735,0 -1.2425,-0.175 -0.49,-0.1925 -0.805,-0.4725 -0.315,-0.2975 -0.455,-0.665 -0.1225,-0.385 -0.1225,-0.77 0,-0.7175 0.2275,-1.155 0.2275,-0.455 0.6125,-0.7 0.385,-0.2625 0.875,-0.35 0.5075,-0.105 1.0325,-0.14 0.525,-0.035 1.0675,-0.0525 0.56,-0.0175 1.0325,-0.0875 0.4725,-0.07 0.84,-0.1925 0.3675,-0.14 0.5425,-0.385 z" />
      <path
         id="path884"
         style="font-style:normal;font-variant:normal;font-weight:100;font-stretch:normal;font-family:'Helvetica Neue';-inkscape-font-specification:'Helvetica Neue Thin';letter-spacing:0.962504px;fill:#b3ffff;fill-opacity:1;stroke-width:0.962504"
         d="m 602.04915,686.4035 h -0.35 q -0.0525,0.6825 -0.3325,1.225 -0.28,0.525 -0.735,0.91 -0.4375,0.385 -1.015,0.595 -0.5775,0.1925 -1.2425,0.1925 -0.8925,0 -1.575,-0.3325 -0.6825,-0.35 -1.1375,-0.9275 -0.455,-0.5775 -0.7,-1.33 -0.2275,-0.7525 -0.2275,-1.575 0,-0.7875 0.1925,-1.5925 0.21,-0.8225 0.6475,-1.47 0.455,-0.665 1.19,-1.0675 0.7525,-0.42 1.82,-0.42 0.56,0 1.0675,0.1575 0.5075,0.1575 0.91,0.49 0.4025,0.315 0.6825,0.805 0.28,0.4725 0.385,1.1375 h 0.35 q -0.0875,-0.7175 -0.4025,-1.26 -0.2975,-0.56 -0.7525,-0.9275 -0.455,-0.3675 -1.0325,-0.56 -0.5775,-0.1925 -1.2075,-0.1925 -1.0675,0 -1.8725,0.4025 -0.7875,0.4025 -1.3125,1.085 -0.5075,0.665 -0.77,1.5575 -0.245,0.875 -0.245,1.855 0,0.9275 0.2625,1.75 0.2625,0.805 0.77,1.4175 0.5075,0.6125 1.2425,0.98 0.7525,0.35 1.715,0.35 0.77,0 1.4,-0.2275 0.6475,-0.2275 1.12,-0.6475 0.49,-0.42 0.7875,-1.015 0.2975,-0.6125 0.3675,-1.365 z" />
      <path
         id="path886"
         style="font-style:normal;font-variant:normal;font-weight:100;font-stretch:normal;font-family:'Helvetica Neue';-inkscape-font-specification:'Helvetica Neue Thin';letter-spacing:0.962504px;fill:#b3ffff;fill-opacity:1;stroke-width:0.962504"
         d="m 605.47916,680.821 h 2.03 v -0.35 h -2.03 v -2.835 h -0.35 v 2.835 h -1.645 v 0.35 h 1.645 v 6.965 q 0,0.9625 0.42,1.33 0.4375,0.35 1.05,0.35 0.4025,0 0.5425,-0.0175 0.1575,-0.0175 0.315,-0.035 v -0.35 q -0.0875,0.035 -0.2975,0.0525 -0.21,0 -0.4725,0 -0.21,0 -0.42,-0.0175 -0.21,-0.035 -0.385,-0.175 -0.175,-0.14 -0.2975,-0.42 -0.105,-0.28 -0.105,-0.7875 z" />
      <path
         id="path888"
         style="font-style:normal;font-variant:normal;font-weight:100;font-stretch:normal;font-family:'Helvetica Neue';-inkscape-font-specification:'Helvetica Neue Thin';letter-spacing:0.962504px;fill:#b3ffff;fill-opacity:1;stroke-width:0.962504"
         d="m 610.03326,678.7385 v -1.7675 h -0.35 v 1.7675 z m 0,10.7275 v -8.995 h -0.35 v 8.995 z" />
      <path
         id="path890"
         style="font-style:normal;font-variant:normal;font-weight:100;font-stretch:normal;font-family:'Helvetica Neue';-inkscape-font-specification:'Helvetica Neue Thin';letter-spacing:0.962504px;fill:#b3ffff;fill-opacity:1;stroke-width:0.962504"
         d="m 618.9208,680.471 -3.22,8.645 h -0.035 l -3.4825,-8.645 h -0.4025 l 3.6925,8.995 h 0.4375 l 3.395,-8.995 z" />
      <path
         id="path892"
         style="font-style:normal;font-variant:normal;font-weight:100;font-stretch:normal;font-family:'Helvetica Neue';-inkscape-font-specification:'Helvetica Neue Thin';letter-spacing:0.962504px;fill:#b3ffff;fill-opacity:1;stroke-width:0.962504"
         d="m 620.83269,685.0385 h 7.525 q 0.035,-0.9275 -0.1925,-1.785 -0.21,-0.8575 -0.7,-1.5225 -0.4725,-0.665 -1.2425,-1.0675 -0.7525,-0.4025 -1.8025,-0.4025 -0.7525,0 -1.47,0.315 -0.7175,0.315 -1.26,0.9275 -0.5425,0.595 -0.875,1.47 -0.3325,0.875 -0.3325,1.995 0,0.9975 0.2275,1.8725 0.2275,0.8575 0.7,1.505 0.4725,0.63 1.2075,0.98 0.7525,0.35 1.8025,0.3325 1.54,0 2.59,-0.8575 1.05,-0.875 1.2425,-2.45 h -0.35 q -0.2275,1.4875 -1.1725,2.24 -0.9275,0.735 -2.345,0.735 -0.9625,0 -1.6275,-0.3325 -0.665,-0.3325 -1.085,-0.91 -0.42,-0.5775 -0.63,-1.3475 -0.1925,-0.7875 -0.21,-1.6975 z m 7.175,-0.35 h -7.175 q 0.0525,-0.945 0.35,-1.6975 0.2975,-0.7525 0.77,-1.2775 0.49,-0.5425 1.12,-0.8225 0.6475,-0.28 1.3825,-0.28 0.875,0 1.54,0.3325 0.665,0.315 1.1025,0.875 0.455,0.56 0.6825,1.3125 0.2275,0.735 0.2275,1.5575 z" />
      <path
         id="path894"
         style="font-style:normal;font-variant:normal;font-weight:100;font-stretch:normal;font-family:'Helvetica Neue';-inkscape-font-specification:'Helvetica Neue Thin';letter-spacing:0.962504px;fill:#b3ffff;fill-opacity:1;stroke-width:0.962504"
         d="m 501.30242,699.40885 v 12.495 h 0.35 v -12.495 z" />
      <path
         id="path896"
         style="font-style:normal;font-variant:normal;font-weight:100;font-stretch:normal;font-family:'Helvetica Neue';-inkscape-font-specification:'Helvetica Neue Thin';letter-spacing:0.962504px;fill:#b3ffff;fill-opacity:1;stroke-width:0.962504"
         d="m 504.53829,702.90885 v 8.995 h 0.35 v -5.0925 q 0,-0.7525 0.21,-1.435 0.21,-0.6825 0.6125,-1.19 0.42,-0.525 1.0325,-0.8225 0.6125,-0.315 1.4175,-0.315 0.5775,0 1.085,0.175 0.525,0.1575 0.91,0.525 0.4025,0.35 0.63,0.91 0.2275,0.5425 0.2275,1.33 v 5.915 h 0.35 v -5.9675 q 0,-0.7875 -0.245,-1.3825 -0.2275,-0.6125 -0.665,-1.015 -0.42,-0.42 -1.015,-0.63 -0.5775,-0.21 -1.2775,-0.21 -0.665,0 -1.2075,0.1925 -0.5425,0.175 -0.9625,0.5075 -0.4025,0.3325 -0.6825,0.77 -0.2625,0.4375 -0.385,0.9625 h -0.035 v -2.2225 z" />
      <path
         id="path898"
         style="font-style:normal;font-variant:normal;font-weight:100;font-stretch:normal;font-family:'Helvetica Neue';-inkscape-font-specification:'Helvetica Neue Thin';letter-spacing:0.962504px;fill:#b3ffff;fill-opacity:1;stroke-width:0.962504"
         d="m 515.21329,703.25885 h 2.03 v -0.35 h -2.03 v -2.835 h -0.35 v 2.835 h -1.645 v 0.35 h 1.645 v 6.965 q 0,0.9625 0.42,1.33 0.4375,0.35 1.05,0.35 0.4025,0 0.5425,-0.0175 0.1575,-0.0175 0.315,-0.035 v -0.35 q -0.0875,0.035 -0.2975,0.0525 -0.21,0 -0.4725,0 -0.21,0 -0.42,-0.0175 -0.21,-0.035 -0.385,-0.175 -0.175,-0.14 -0.2975,-0.42 -0.105,-0.28 -0.105,-0.7875 z" />
      <path
         id="path900"
         style="font-style:normal;font-variant:normal;font-weight:100;font-stretch:normal;font-family:'Helvetica Neue';-inkscape-font-specification:'Helvetica Neue Thin';letter-spacing:0.962504px;fill:#b3ffff;fill-opacity:1;stroke-width:0.962504"
         d="m 519.2424,707.47635 h 7.525 q 0.035,-0.9275 -0.1925,-1.785 -0.21,-0.8575 -0.7,-1.5225 -0.4725,-0.665 -1.2425,-1.0675 -0.7525,-0.4025 -1.8025,-0.4025 -0.7525,0 -1.47,0.315 -0.7175,0.315 -1.26,0.9275 -0.5425,0.595 -0.875,1.47 -0.3325,0.875 -0.3325,1.995 0,0.9975 0.2275,1.8725 0.2275,0.8575 0.7,1.505 0.4725,0.63 1.2075,0.98 0.7525,0.35 1.8025,0.3325 1.54,0 2.59,-0.8575 1.05,-0.875 1.2425,-2.45 h -0.35 q -0.2275,1.4875 -1.1725,2.24 -0.9275,0.735 -2.345,0.735 -0.9625,0 -1.6275,-0.3325 -0.665,-0.3325 -1.085,-0.91 -0.42,-0.5775 -0.63,-1.3475 -0.1925,-0.7875 -0.21,-1.6975 z m 7.175,-0.35 h -7.175 q 0.0525,-0.945 0.35,-1.6975 0.2975,-0.7525 0.77,-1.2775 0.49,-0.5425 1.12,-0.8225 0.6475,-0.28 1.3825,-0.28 0.875,0 1.54,0.3325 0.665,0.315 1.1025,0.875 0.455,0.56 0.6825,1.3125 0.2275,0.735 0.2275,1.5575 z" />
      <path
         id="path902"
         style="font-style:normal;font-variant:normal;font-weight:100;font-stretch:normal;font-family:'Helvetica Neue';-inkscape-font-specification:'Helvetica Neue Thin';letter-spacing:0.962504px;fill:#b3ffff;fill-opacity:1;stroke-width:0.962504"
         d="m 535.9724,708.89385 v 2.7125 q 0,1.68 -0.8925,2.45 -0.875,0.7875 -2.52,0.7875 -0.595,0 -1.155,-0.14 -0.5425,-0.14 -0.9625,-0.4375 -0.42,-0.2975 -0.6825,-0.77 -0.245,-0.4725 -0.2625,-1.1375 h -0.35 q 0.0175,0.77 0.2975,1.295 0.28,0.5425 0.7525,0.875 0.4725,0.35 1.085,0.5075 0.6125,0.1575 1.295,0.1575 1.785,0 2.765,-0.875 0.98,-0.8575 0.98,-2.7125 v -8.6975 h -0.35 v 2.3975 h -0.035 q -0.14,-0.56 -0.455,-1.0325 -0.2975,-0.4725 -0.7525,-0.8225 -0.4375,-0.35 -0.9975,-0.5425 -0.56,-0.21 -1.2075,-0.21 -0.945,0 -1.68,0.35 -0.7175,0.35 -1.2075,0.9625 -0.49,0.595 -0.735,1.4 -0.245,0.7875 -0.245,1.6975 0,0.8575 0.2275,1.645 0.245,0.7875 0.7,1.3825 0.4725,0.5775 1.1725,0.9275 0.7,0.35 1.645,0.35 0.5775,0 1.1375,-0.1575 0.5775,-0.175 1.05,-0.49 0.49,-0.3325 0.84,-0.805 0.3675,-0.4725 0.5075,-1.0675 z m -0.0175,-1.785 q 0,0.805 -0.245,1.54 -0.2275,0.7175 -0.6825,1.26 -0.4375,0.525 -1.1025,0.84 -0.665,0.315 -1.54,0.315 -0.8225,0 -1.4525,-0.2975 -0.63,-0.315 -1.0675,-0.84 -0.42,-0.5425 -0.6475,-1.26 -0.21,-0.7175 -0.21,-1.5575 0,-0.8225 0.21,-1.5575 0.2275,-0.735 0.665,-1.295 0.455,-0.56 1.1025,-0.875 0.665,-0.3325 1.54,-0.3325 0.84,0 1.4875,0.35 0.6475,0.3325 1.0675,0.91 0.4375,0.56 0.6475,1.295 0.2275,0.735 0.2275,1.505 z" />
      <path
         id="path904"
         style="font-style:normal;font-variant:normal;font-weight:100;font-stretch:normal;font-family:'Helvetica Neue';-inkscape-font-specification:'Helvetica Neue Thin';letter-spacing:0.962504px;fill:#b3ffff;fill-opacity:1;stroke-width:0.962504"
         d="m 539.5342,711.90385 v -5.0925 q 0,-0.735 0.21,-1.435 0.21,-0.7 0.6475,-1.225 0.4375,-0.5425 1.1025,-0.84 0.6825,-0.315 1.61,-0.2625 v -0.35 q -0.805,-0.0175 -1.4175,0.175 -0.595,0.1925 -1.0325,0.525 -0.4375,0.3325 -0.7,0.7875 -0.2625,0.4375 -0.385,0.945 h -0.035 v -2.2225 h -0.35 v 8.995 z" />
      <path
         id="path906"
         style="font-style:normal;font-variant:normal;font-weight:100;font-stretch:normal;font-family:'Helvetica Neue';-inkscape-font-specification:'Helvetica Neue Thin';letter-spacing:0.962504px;fill:#b3ffff;fill-opacity:1;stroke-width:0.962504"
         d="m 544.6751,705.69135 h 0.35 q 0.0875,-1.26 0.875,-1.9425 0.7875,-0.7 2.205,-0.7 0.8925,0 1.4175,0.245 0.525,0.2275 0.7875,0.595 0.28,0.3675 0.35,0.805 0.07,0.4375 0.07,0.84 0,0.5075 -0.21,0.7875 -0.1925,0.2625 -0.63,0.4025 -0.42,0.1225 -1.085,0.175 -0.665,0.035 -1.5925,0.0875 -0.56,0.035 -1.12,0.1575 -0.56,0.105 -0.9975,0.4025 -0.4375,0.28 -0.7175,0.7875 -0.2625,0.5075 -0.2625,1.3475 0,1.2075 0.8225,1.82 0.8225,0.595 2.1875,0.595 0.7,0 1.295,-0.1925 0.595,-0.175 1.05,-0.49 0.4725,-0.315 0.77,-0.7175 0.315,-0.4025 0.455,-0.84 h 0.035 v 1.1725 q 0,0.5075 0.28,0.7 0.2975,0.175 0.6825,0.175 h 0.525 v -0.35 q -0.175,0.0175 -0.385,0.035 -0.1925,0 -0.3675,-0.035 -0.175,-0.0525 -0.28,-0.175 -0.105,-0.1225 -0.105,-0.385 v -5.7225 q -0.0175,-0.735 -0.2625,-1.225 -0.245,-0.49 -0.6475,-0.7875 -0.4025,-0.315 -0.945,-0.4375 -0.525,-0.1225 -1.12,-0.1225 -0.84,0 -1.47,0.2275 -0.6125,0.2275 -1.05,0.63 -0.42,0.4025 -0.6475,0.9625 -0.2275,0.5425 -0.2625,1.1725 z m 6.055,0.9275 v 1.6625 q 0,0.665 -0.245,1.295 -0.2275,0.63 -0.7,1.12 -0.455,0.4725 -1.1375,0.77 -0.6825,0.2975 -1.5575,0.2975 -0.735,0 -1.2425,-0.175 -0.49,-0.1925 -0.805,-0.4725 -0.315,-0.2975 -0.455,-0.665 -0.1225,-0.385 -0.1225,-0.77 0,-0.7175 0.2275,-1.155 0.2275,-0.455 0.6125,-0.7 0.385,-0.2625 0.875,-0.35 0.5075,-0.105 1.0325,-0.14 0.525,-0.035 1.0675,-0.0525 0.56,-0.0175 1.0325,-0.0875 0.4725,-0.07 0.84,-0.1925 0.3675,-0.14 0.5425,-0.385 z" />
      <path
         id="path908"
         style="font-style:normal;font-variant:normal;font-weight:100;font-stretch:normal;font-family:'Helvetica Neue';-inkscape-font-specification:'Helvetica Neue Thin';letter-spacing:0.962504px;fill:#b3ffff;fill-opacity:1;stroke-width:0.962504"
         d="m 555.02581,703.25885 h 2.03 v -0.35 h -2.03 v -2.835 h -0.35 v 2.835 h -1.645 v 0.35 h 1.645 v 6.965 q 0,0.9625 0.42,1.33 0.4375,0.35 1.05,0.35 0.4025,0 0.5425,-0.0175 0.1575,-0.0175 0.315,-0.035 v -0.35 q -0.0875,0.035 -0.2975,0.0525 -0.21,0 -0.4725,0 -0.21,0 -0.42,-0.0175 -0.21,-0.035 -0.385,-0.175 -0.175,-0.14 -0.2975,-0.42 -0.105,-0.28 -0.105,-0.7875 z" />
      <path
         id="path910"
         style="font-style:normal;font-variant:normal;font-weight:100;font-stretch:normal;font-family:'Helvetica Neue';-inkscape-font-specification:'Helvetica Neue Thin';letter-spacing:0.962504px;fill:#b3ffff;fill-opacity:1;stroke-width:0.962504"
         d="m 559.05491,707.47635 h 7.525 q 0.035,-0.9275 -0.1925,-1.785 -0.21,-0.8575 -0.7,-1.5225 -0.4725,-0.665 -1.2425,-1.0675 -0.7525,-0.4025 -1.8025,-0.4025 -0.7525,0 -1.47,0.315 -0.7175,0.315 -1.26,0.9275 -0.5425,0.595 -0.875,1.47 -0.3325,0.875 -0.3325,1.995 0,0.9975 0.2275,1.8725 0.2275,0.8575 0.7,1.505 0.4725,0.63 1.2075,0.98 0.7525,0.35 1.8025,0.3325 1.54,0 2.59,-0.8575 1.05,-0.875 1.2425,-2.45 h -0.35 q -0.2275,1.4875 -1.1725,2.24 -0.9275,0.735 -2.345,0.735 -0.9625,0 -1.6275,-0.3325 -0.665,-0.3325 -1.085,-0.91 -0.42,-0.5775 -0.63,-1.3475 -0.1925,-0.7875 -0.21,-1.6975 z m 7.175,-0.35 h -7.175 q 0.0525,-0.945 0.35,-1.6975 0.2975,-0.7525 0.77,-1.2775 0.49,-0.5425 1.12,-0.8225 0.6475,-0.28 1.3825,-0.28 0.875,0 1.54,0.3325 0.665,0.315 1.1025,0.875 0.455,0.56 0.6825,1.3125 0.2275,0.735 0.2275,1.5575 z" />
      <path
         id="path912"
         style="font-style:normal;font-variant:normal;font-weight:100;font-stretch:normal;font-family:'Helvetica Neue';-inkscape-font-specification:'Helvetica Neue Thin';letter-spacing:0.962504px;fill:#b3ffff;fill-opacity:1;stroke-width:0.962504"
         d="m 575.94242,699.40885 v 6.02 h -0.035 q -0.315,-1.225 -1.2425,-1.9775 -0.9275,-0.7525 -2.3625,-0.7525 -0.9275,0 -1.645,0.385 -0.7175,0.385 -1.2075,1.0325 -0.4725,0.6475 -0.735,1.505 -0.245,0.8575 -0.245,1.8025 0,1.015 0.2625,1.8725 0.2625,0.8575 0.7525,1.4875 0.5075,0.6125 1.2075,0.9625 0.7175,0.35 1.61,0.35 1.3825,0 2.31,-0.7525 0.945,-0.7525 1.295,-1.96 h 0.035 v 2.52 h 0.35 v -12.495 z m 0,8.015 q 0,0.875 -0.245,1.6625 -0.245,0.7875 -0.7175,1.3825 -0.455,0.595 -1.1375,0.945 -0.665,0.35 -1.54,0.35 -0.875,0 -1.54,-0.35 -0.6475,-0.35 -1.085,-0.945 -0.42,-0.6125 -0.6475,-1.4 -0.21,-0.7875 -0.21,-1.645 0,-0.7875 0.1925,-1.5575 0.21,-0.7875 0.63,-1.4 0.42,-0.63 1.085,-1.015 0.665,-0.4025 1.575,-0.4025 1.645,0 2.6425,1.1375 0.9975,1.12 0.9975,3.2375 z" />
      <path
         id="path914"
         style="font-style:normal;font-variant:normal;font-weight:100;font-stretch:normal;font-family:'Helvetica Neue';-inkscape-font-specification:'Helvetica Neue Thin';letter-spacing:0.962504px;fill:#b3ffff;fill-opacity:1;stroke-width:0.962504"
         d="m 585.10286,699.40885 v 12.495 h 0.35 v -12.0575 h 0.035 l 8.54,12.0575 h 0.525 v -12.495 h -0.35 v 12.0575 h -0.035 l -8.54,-12.0575 z" />
      <path
         id="path916"
         style="font-style:normal;font-variant:normal;font-weight:100;font-stretch:normal;font-family:'Helvetica Neue';-inkscape-font-specification:'Helvetica Neue Thin';letter-spacing:0.962504px;fill:#b3ffff;fill-opacity:1;stroke-width:0.962504"
         d="m 597.25552,707.47635 h 7.525 q 0.035,-0.9275 -0.1925,-1.785 -0.21,-0.8575 -0.7,-1.5225 -0.4725,-0.665 -1.2425,-1.0675 -0.7525,-0.4025 -1.8025,-0.4025 -0.7525,0 -1.47,0.315 -0.7175,0.315 -1.26,0.9275 -0.5425,0.595 -0.875,1.47 -0.3325,0.875 -0.3325,1.995 0,0.9975 0.2275,1.8725 0.2275,0.8575 0.7,1.505 0.4725,0.63 1.2075,0.98 0.7525,0.35 1.8025,0.3325 1.54,0 2.59,-0.8575 1.05,-0.875 1.2425,-2.45 h -0.35 q -0.2275,1.4875 -1.1725,2.24 -0.9275,0.735 -2.345,0.735 -0.9625,0 -1.6275,-0.3325 -0.665,-0.3325 -1.085,-0.91 -0.42,-0.5775 -0.63,-1.3475 -0.1925,-0.7875 -0.21,-1.6975 z m 7.175,-0.35 h -7.175 q 0.0525,-0.945 0.35,-1.6975 0.2975,-0.7525 0.77,-1.2775 0.49,-0.5425 1.12,-0.8225 0.6475,-0.28 1.3825,-0.28 0.875,0 1.54,0.3325 0.665,0.315 1.1025,0.875 0.455,0.56 0.6825,1.3125 0.2275,0.735 0.2275,1.5575 z" />
      <path
         id="path918"
         style="font-style:normal;font-variant:normal;font-weight:100;font-stretch:normal;font-family:'Helvetica Neue';-inkscape-font-specification:'Helvetica Neue Thin';letter-spacing:0.962504px;fill:#b3ffff;fill-opacity:1;stroke-width:0.962504"
         d="m 613.96802,711.90385 v -8.995 h -0.35 v 5.0925 q 0,0.7525 -0.21,1.435 -0.21,0.6825 -0.63,1.2075 -0.4025,0.5075 -1.015,0.8225 -0.6125,0.2975 -1.4175,0.2975 -0.5775,0 -1.1025,-0.1575 -0.5075,-0.175 -0.91,-0.525 -0.385,-0.3675 -0.6125,-0.91 -0.2275,-0.56 -0.2275,-1.3475 v -5.915 h -0.35 v 5.9675 q 0,0.7875 0.2275,1.4 0.245,0.595 0.665,1.015 0.4375,0.4025 1.015,0.6125 0.595,0.1925 1.295,0.1925 1.33,0 2.1525,-0.6825 0.84,-0.6825 1.085,-1.7325 h 0.035 v 2.2225 z" />
      <path
         id="path920"
         style="font-style:normal;font-variant:normal;font-weight:100;font-stretch:normal;font-family:'Helvetica Neue';-inkscape-font-specification:'Helvetica Neue Thin';letter-spacing:0.962504px;fill:#b3ffff;fill-opacity:1;stroke-width:0.962504"
         d="m 617.20553,711.90385 v -5.0925 q 0,-0.735 0.21,-1.435 0.21,-0.7 0.6475,-1.225 0.4375,-0.5425 1.1025,-0.84 0.6825,-0.315 1.61,-0.2625 v -0.35 q -0.805,-0.0175 -1.4175,0.175 -0.595,0.1925 -1.0325,0.525 -0.4375,0.3325 -0.7,0.7875 -0.2625,0.4375 -0.385,0.945 h -0.035 v -2.2225 h -0.35 v 8.995 z" />
      <path
         id="path922"
         style="font-style:normal;font-variant:normal;font-weight:100;font-stretch:normal;font-family:'Helvetica Neue';-inkscape-font-specification:'Helvetica Neue Thin';letter-spacing:0.962504px;fill:#b3ffff;fill-opacity:1;stroke-width:0.962504"
         d="m 622.24143,707.40635 q 0,-0.84 0.2275,-1.6275 0.245,-0.7875 0.7175,-1.3825 0.4725,-0.6125 1.155,-0.98 0.7,-0.3675 1.61,-0.3675 0.8925,0 1.575,0.3675 0.7,0.3675 1.1725,0.98 0.4725,0.595 0.7,1.3825 0.245,0.7875 0.245,1.6275 0,0.8575 -0.245,1.645 -0.2275,0.7875 -0.7,1.4 -0.4725,0.595 -1.1725,0.9625 -0.6825,0.35 -1.575,0.35 -0.91,0 -1.61,-0.35 -0.6825,-0.3675 -1.155,-0.9625 -0.4725,-0.6125 -0.7175,-1.4 -0.2275,-0.7875 -0.2275,-1.645 z m -0.35,0 q 0,0.9275 0.2625,1.785 0.2625,0.84 0.77,1.4875 0.525,0.6475 1.2775,1.0325 0.7525,0.385 1.7325,0.385 0.9975,0 1.75,-0.385 0.7525,-0.385 1.26,-1.0325 0.525,-0.6475 0.7875,-1.4875 0.2625,-0.8575 0.2625,-1.785 0,-0.9275 -0.2625,-1.7675 -0.2625,-0.8575 -0.7875,-1.505 -0.5075,-0.6475 -1.26,-1.0325 -0.7525,-0.4025 -1.7325,-0.4025 -0.9975,0 -1.75,0.4025 -0.7525,0.385 -1.2775,1.0325 -0.5075,0.6475 -0.77,1.505 -0.2625,0.84 -0.2625,1.7675 z" />
      <path
         id="path924"
         style="font-style:normal;font-variant:normal;font-weight:100;font-stretch:normal;font-family:'Helvetica Neue';-inkscape-font-specification:'Helvetica Neue Thin';fill:#b3ffff;fill-opacity:1"
         d="m 501.65242,733.89225 v -11.795 h 3.9375 q 0.945,0 1.8375,0.2625 0.91,0.2625 1.6275,0.945 0.7175,0.665 1.155,1.8025 0.4375,1.1375 0.4375,2.8875 0,1.505 -0.4375,2.625 -0.42,1.1025 -1.1725,1.8375 -0.735,0.7175 -1.7325,1.085 -0.98,0.35 -2.0825,0.35 z m -0.35,-12.145 v 12.495 h 3.8325 q 1.1375,0 2.1875,-0.35 1.05,-0.35 1.8725,-1.085 0.8225,-0.7525 1.3125,-1.9425 0.49,-1.19 0.49,-2.87 0,-1.8375 -0.49,-3.045 -0.4725,-1.2075 -1.2425,-1.9075 -0.7525,-0.7175 -1.715,-0.9975 -0.945,-0.2975 -1.8725,-0.2975 z" />
      <path
         id="path926"
         style="font-style:normal;font-variant:normal;font-weight:100;font-stretch:normal;font-family:'Helvetica Neue';-inkscape-font-specification:'Helvetica Neue Thin';fill:#b3ffff;fill-opacity:1"
         d="m 512.49258,729.81475 h 7.525 q 0.035,-0.9275 -0.1925,-1.785 -0.21,-0.8575 -0.7,-1.5225 -0.4725,-0.665 -1.2425,-1.0675 -0.7525,-0.4025 -1.8025,-0.4025 -0.7525,0 -1.47,0.315 -0.7175,0.315 -1.26,0.9275 -0.5425,0.595 -0.875,1.47 -0.3325,0.875 -0.3325,1.995 0,0.9975 0.2275,1.8725 0.2275,0.8575 0.7,1.505 0.4725,0.63 1.2075,0.98 0.7525,0.35 1.8025,0.3325 1.54,0 2.59,-0.8575 1.05,-0.875 1.2425,-2.45 h -0.35 q -0.2275,1.4875 -1.1725,2.24 -0.9275,0.735 -2.345,0.735 -0.9625,0 -1.6275,-0.3325 -0.665,-0.3325 -1.085,-0.91 -0.42,-0.5775 -0.63,-1.3475 -0.1925,-0.7875 -0.21,-1.6975 z m 7.175,-0.35 h -7.175 q 0.0525,-0.945 0.35,-1.6975 0.2975,-0.7525 0.77,-1.2775 0.49,-0.5425 1.12,-0.8225 0.6475,-0.28 1.3825,-0.28 0.875,0 1.54,0.3325 0.665,0.315 1.1025,0.875 0.455,0.56 0.6825,1.3125 0.2275,0.735 0.2275,1.5575 z" />
      <path
         id="path928"
         style="font-style:normal;font-variant:normal;font-weight:100;font-stretch:normal;font-family:'Helvetica Neue';-inkscape-font-specification:'Helvetica Neue Thin';fill:#b3ffff;fill-opacity:1"
         d="m 527.40258,725.24725 -3.22,8.645 h -0.035 l -3.4825,-8.645 h -0.4025 l 3.6925,8.995 h 0.4375 l 3.395,-8.995 z" />
      <path
         id="path930"
         style="font-style:normal;font-variant:normal;font-weight:100;font-stretch:normal;font-family:'Helvetica Neue';-inkscape-font-specification:'Helvetica Neue Thin';fill:#b3ffff;fill-opacity:1"
         d="m 528.35195,729.81475 h 7.525 q 0.035,-0.9275 -0.1925,-1.785 -0.21,-0.8575 -0.7,-1.5225 -0.4725,-0.665 -1.2425,-1.0675 -0.7525,-0.4025 -1.8025,-0.4025 -0.7525,0 -1.47,0.315 -0.7175,0.315 -1.26,0.9275 -0.5425,0.595 -0.875,1.47 -0.3325,0.875 -0.3325,1.995 0,0.9975 0.2275,1.8725 0.2275,0.8575 0.7,1.505 0.4725,0.63 1.2075,0.98 0.7525,0.35 1.8025,0.3325 1.54,0 2.59,-0.8575 1.05,-0.875 1.2425,-2.45 h -0.35 q -0.2275,1.4875 -1.1725,2.24 -0.9275,0.735 -2.345,0.735 -0.9625,0 -1.6275,-0.3325 -0.665,-0.3325 -1.085,-0.91 -0.42,-0.5775 -0.63,-1.3475 -0.1925,-0.7875 -0.21,-1.6975 z m 7.175,-0.35 h -7.175 q 0.0525,-0.945 0.35,-1.6975 0.2975,-0.7525 0.77,-1.2775 0.49,-0.5425 1.12,-0.8225 0.6475,-0.28 1.3825,-0.28 0.875,0 1.54,0.3325 0.665,0.315 1.1025,0.875 0.455,0.56 0.6825,1.3125 0.2275,0.735 0.2275,1.5575 z" />
      <path
         id="path932"
         style="font-style:normal;font-variant:normal;font-weight:100;font-stretch:normal;font-family:'Helvetica Neue';-inkscape-font-specification:'Helvetica Neue Thin';fill:#b3ffff;fill-opacity:1"
         d="m 537.27695,721.74725 v 12.495 h 0.35 v -12.495 z" />
      <path
         id="path934"
         style="font-style:normal;font-variant:normal;font-weight:100;font-stretch:normal;font-family:'Helvetica Neue';-inkscape-font-specification:'Helvetica Neue Thin';fill:#b3ffff;fill-opacity:1"
         d="m 539.44449,729.74475 q 0,-0.84 0.2275,-1.6275 0.245,-0.7875 0.7175,-1.3825 0.4725,-0.6125 1.155,-0.98 0.7,-0.3675 1.61,-0.3675 0.8925,0 1.575,0.3675 0.7,0.3675 1.1725,0.98 0.4725,0.595 0.7,1.3825 0.245,0.7875 0.245,1.6275 0,0.8575 -0.245,1.645 -0.2275,0.7875 -0.7,1.4 -0.4725,0.595 -1.1725,0.9625 -0.6825,0.35 -1.575,0.35 -0.91,0 -1.61,-0.35 -0.6825,-0.3675 -1.155,-0.9625 -0.4725,-0.6125 -0.7175,-1.4 -0.2275,-0.7875 -0.2275,-1.645 z m -0.35,0 q 0,0.9275 0.2625,1.785 0.2625,0.84 0.77,1.4875 0.525,0.6475 1.2775,1.0325 0.7525,0.385 1.7325,0.385 0.9975,0 1.75,-0.385 0.7525,-0.385 1.26,-1.0325 0.525,-0.6475 0.7875,-1.4875 0.2625,-0.8575 0.2625,-1.785 0,-0.9275 -0.2625,-1.7675 -0.2625,-0.8575 -0.7875,-1.505 -0.5075,-0.6475 -1.26,-1.0325 -0.7525,-0.4025 -1.7325,-0.4025 -0.9975,0 -1.75,0.4025 -0.7525,0.385 -1.2775,1.0325 -0.5075,0.6475 -0.77,1.505 -0.2625,0.84 -0.2625,1.7675 z" />
      <path
         id="path936"
         style="font-style:normal;font-variant:normal;font-weight:100;font-stretch:normal;font-family:'Helvetica Neue';-inkscape-font-specification:'Helvetica Neue Thin';fill:#b3ffff;fill-opacity:1"
         d="m 549.00879,737.32225 v -5.6 h 0.035 q 0.315,1.225 1.2425,1.9775 0.9275,0.735 2.3625,0.735 0.9275,0 1.645,-0.3675 0.7175,-0.385 1.19,-1.0325 0.49,-0.6475 0.735,-1.505 0.2625,-0.8575 0.2625,-1.8025 0,-1.015 -0.2625,-1.8725 -0.2625,-0.8575 -0.77,-1.4875 -0.49,-0.63 -1.2075,-0.98 -0.7,-0.35 -1.5925,-0.35 -0.6825,0 -1.2775,0.21 -0.5775,0.1925 -1.0325,0.56 -0.455,0.3675 -0.7875,0.875 -0.3325,0.49 -0.5075,1.085 h -0.035 v -2.52 h -0.35 v 12.075 z m 3.64,-3.22 q -1.645,0 -2.6425,-1.12 -0.9975,-1.1375 -0.9975,-3.255 0,-0.875 0.245,-1.6625 0.245,-0.7875 0.7,-1.3825 0.4725,-0.595 1.155,-0.945 0.6825,-0.35 1.54,-0.35 0.875,0 1.5225,0.35 0.665,0.35 1.085,0.9625 0.4375,0.595 0.6475,1.3825 0.2275,0.77 0.2275,1.645 0,0.7875 -0.21,1.575 -0.1925,0.77 -0.6125,1.4 -0.42,0.6125 -1.085,1.015 -0.6475,0.385 -1.575,0.385 z" />
      <path
         id="path938"
         style="font-style:normal;font-variant:normal;font-weight:100;font-stretch:normal;font-family:'Helvetica Neue';-inkscape-font-specification:'Helvetica Neue Thin';fill:#b3ffff;fill-opacity:1"
         d="m 558.0582,725.24725 v 8.995 h 0.35 v -5.0925 q 0,-0.7525 0.1925,-1.435 0.21,-0.6825 0.5775,-1.19 0.385,-0.525 0.9275,-0.8225 0.5425,-0.315 1.2075,-0.315 0.7525,0 1.225,0.245 0.4725,0.245 0.735,0.665 0.2625,0.42 0.35,0.98 0.105,0.56 0.105,1.19 v 5.775 h 0.35 v -5.705 q 0,-0.63 0.1925,-1.19 0.1925,-0.5775 0.56,-1.015 0.3675,-0.4375 0.8925,-0.6825 0.525,-0.2625 1.1725,-0.2625 0.735,0 1.2075,0.21 0.49,0.21 0.77,0.595 0.2975,0.385 0.4025,0.9275 0.1225,0.5425 0.1225,1.2075 v 5.915 h 0.35 v -5.915 q 0,-0.735 -0.14,-1.33 -0.14,-0.6125 -0.4725,-1.0325 -0.3325,-0.4375 -0.875,-0.6825 -0.5425,-0.245 -1.365,-0.245 -1.05,0 -1.82,0.5775 -0.77,0.5775 -1.0325,1.5225 h -0.035 q -0.2275,-0.9975 -0.945,-1.5575 -0.7,-0.5775 -1.75,-0.5425 -0.525,0 -0.9975,0.1925 -0.455,0.175 -0.84,0.5075 -0.385,0.3325 -0.6475,0.77 -0.2625,0.4375 -0.385,0.9625 h -0.035 v -2.2225 z" />
      <path
         id="path940"
         style="font-style:normal;font-variant:normal;font-weight:100;font-stretch:normal;font-family:'Helvetica Neue';-inkscape-font-specification:'Helvetica Neue Thin';fill:#b3ffff;fill-opacity:1"
         d="m 571.48672,729.81475 h 7.525 q 0.035,-0.9275 -0.1925,-1.785 -0.21,-0.8575 -0.7,-1.5225 -0.4725,-0.665 -1.2425,-1.0675 -0.7525,-0.4025 -1.8025,-0.4025 -0.7525,0 -1.47,0.315 -0.7175,0.315 -1.26,0.9275 -0.5425,0.595 -0.875,1.47 -0.3325,0.875 -0.3325,1.995 0,0.9975 0.2275,1.8725 0.2275,0.8575 0.7,1.505 0.4725,0.63 1.2075,0.98 0.7525,0.35 1.8025,0.3325 1.54,0 2.59,-0.8575 1.05,-0.875 1.2425,-2.45 h -0.35 q -0.2275,1.4875 -1.1725,2.24 -0.9275,0.735 -2.345,0.735 -0.9625,0 -1.6275,-0.3325 -0.665,-0.3325 -1.085,-0.91 -0.42,-0.5775 -0.63,-1.3475 -0.1925,-0.7875 -0.21,-1.6975 z m 7.175,-0.35 h -7.175 q 0.0525,-0.945 0.35,-1.6975 0.2975,-0.7525 0.77,-1.2775 0.49,-0.5425 1.12,-0.8225 0.6475,-0.28 1.3825,-0.28 0.875,0 1.54,0.3325 0.665,0.315 1.1025,0.875 0.455,0.56 0.6825,1.3125 0.2275,0.735 0.2275,1.5575 z" />
      <path
         id="path942"
         style="font-style:normal;font-variant:normal;font-weight:100;font-stretch:normal;font-family:'Helvetica Neue';-inkscape-font-specification:'Helvetica Neue Thin';fill:#b3ffff;fill-opacity:1"
         d="m 580.41172,725.24725 v 8.995 h 0.35 v -5.0925 q 0,-0.7525 0.21,-1.435 0.21,-0.6825 0.6125,-1.19 0.42,-0.525 1.0325,-0.8225 0.6125,-0.315 1.4175,-0.315 0.5775,0 1.085,0.175 0.525,0.1575 0.91,0.525 0.4025,0.35 0.63,0.91 0.2275,0.5425 0.2275,1.33 v 5.915 h 0.35 v -5.9675 q 0,-0.7875 -0.245,-1.3825 -0.2275,-0.6125 -0.665,-1.015 -0.42,-0.42 -1.015,-0.63 -0.5775,-0.21 -1.2775,-0.21 -0.665,0 -1.2075,0.1925 -0.5425,0.175 -0.9625,0.5075 -0.4025,0.3325 -0.6825,0.77 -0.2625,0.4375 -0.385,0.9625 h -0.035 v -2.2225 z" />
      <path
         id="path944"
         style="font-style:normal;font-variant:normal;font-weight:100;font-stretch:normal;font-family:'Helvetica Neue';-inkscape-font-specification:'Helvetica Neue Thin';fill:#b3ffff;fill-opacity:1"
         d="m 590.12422,725.59725 h 2.03 v -0.35 h -2.03 v -2.835 h -0.35 v 2.835 h -1.645 v 0.35 h 1.645 v 6.965 q 0,0.9625 0.42,1.33 0.4375,0.35 1.05,0.35 0.4025,0 0.5425,-0.0175 0.1575,-0.0175 0.315,-0.035 v -0.35 q -0.0875,0.035 -0.2975,0.0525 -0.21,0 -0.4725,0 -0.21,0 -0.42,-0.0175 -0.21,-0.035 -0.385,-0.175 -0.175,-0.14 -0.2975,-0.42 -0.105,-0.28 -0.105,-0.7875 z" />
      <path
         id="path946"
         style="font-style:normal;font-variant:normal;font-weight:100;font-stretch:normal;font-family:'Helvetica Neue';-inkscape-font-specification:'Helvetica Neue Thin';fill:#b3ffff;fill-opacity:1"
         d="m 599.11184,730.12975 h 6.37 l 1.645,4.1125 h 0.385 l -4.935,-12.495 h -0.455 l -5.0575,12.495 h 0.385 z m 6.23,-0.35 h -6.09 l 3.08,-7.6825 h 0.035 z" />
      <path
         id="path948"
         style="font-style:normal;font-variant:normal;font-weight:100;font-stretch:normal;font-family:'Helvetica Neue';-inkscape-font-specification:'Helvetica Neue Thin';fill:#b3ffff;fill-opacity:1"
         d="m 609.23066,725.59725 h 2.03 v -0.35 h -2.03 v -2.835 h -0.35 v 2.835 h -1.645 v 0.35 h 1.645 v 6.965 q 0,0.9625 0.42,1.33 0.4375,0.35 1.05,0.35 0.4025,0 0.5425,-0.0175 0.1575,-0.0175 0.315,-0.035 v -0.35 q -0.0875,0.035 -0.2975,0.0525 -0.21,0 -0.4725,0 -0.21,0 -0.42,-0.0175 -0.21,-0.035 -0.385,-0.175 -0.175,-0.14 -0.2975,-0.42 -0.105,-0.28 -0.105,-0.7875 z" />
      <path
         id="path950"
         style="font-style:normal;font-variant:normal;font-weight:100;font-stretch:normal;font-family:'Helvetica Neue';-inkscape-font-specification:'Helvetica Neue Thin';fill:#b3ffff;fill-opacity:1"
         d="m 612.47227,721.74725 v 12.495 h 0.35 v -12.495 z" />
      <path
         id="path952"
         style="font-style:normal;font-variant:normal;font-weight:100;font-stretch:normal;font-family:'Helvetica Neue';-inkscape-font-specification:'Helvetica Neue Thin';fill:#b3ffff;fill-opacity:1"
         d="m 614.7448,728.02975 h 0.35 q 0.0875,-1.26 0.875,-1.9425 0.7875,-0.7 2.205,-0.7 0.8925,0 1.4175,0.245 0.525,0.2275 0.7875,0.595 0.28,0.3675 0.35,0.805 0.07,0.4375 0.07,0.84 0,0.5075 -0.21,0.7875 -0.1925,0.2625 -0.63,0.4025 -0.42,0.1225 -1.085,0.175 -0.665,0.035 -1.5925,0.0875 -0.56,0.035 -1.12,0.1575 -0.56,0.105 -0.9975,0.4025 -0.4375,0.28 -0.7175,0.7875 -0.2625,0.5075 -0.2625,1.3475 0,1.2075 0.8225,1.82 0.8225,0.595 2.1875,0.595 0.7,0 1.295,-0.1925 0.595,-0.175 1.05,-0.49 0.4725,-0.315 0.77,-0.7175 0.315,-0.4025 0.455,-0.84 h 0.035 v 1.1725 q 0,0.5075 0.28,0.7 0.2975,0.175 0.6825,0.175 h 0.525 v -0.35 q -0.175,0.0175 -0.385,0.035 -0.1925,0 -0.3675,-0.035 -0.175,-0.0525 -0.28,-0.175 -0.105,-0.1225 -0.105,-0.385 v -5.7225 q -0.0175,-0.735 -0.2625,-1.225 -0.245,-0.49 -0.6475,-0.7875 -0.4025,-0.315 -0.945,-0.4375 -0.525,-0.1225 -1.12,-0.1225 -0.84,0 -1.47,0.2275 -0.6125,0.2275 -1.05,0.63 -0.42,0.4025 -0.6475,0.9625 -0.2275,0.5425 -0.2625,1.1725 z m 6.055,0.9275 v 1.6625 q 0,0.665 -0.245,1.295 -0.2275,0.63 -0.7,1.12 -0.455,0.4725 -1.1375,0.77 -0.6825,0.2975 -1.5575,0.2975 -0.735,0 -1.2425,-0.175 -0.49,-0.1925 -0.805,-0.4725 -0.315,-0.2975 -0.455,-0.665 -0.1225,-0.385 -0.1225,-0.77 0,-0.7175 0.2275,-1.155 0.2275,-0.455 0.6125,-0.7 0.385,-0.2625 0.875,-0.35 0.5075,-0.105 1.0325,-0.14 0.525,-0.035 1.0675,-0.0525 0.56,-0.0175 1.0325,-0.0875 0.4725,-0.07 0.84,-0.1925 0.3675,-0.14 0.5425,-0.385 z" />
      <path
         id="path954"
         style="font-style:normal;font-variant:normal;font-weight:100;font-stretch:normal;font-family:'Helvetica Neue';-inkscape-font-specification:'Helvetica Neue Thin';fill:#b3ffff;fill-opacity:1"
         d="m 629.03301,727.90725 h 0.35 q 0,-1.505 -0.875,-2.1875 -0.875,-0.6825 -2.38,-0.6825 -0.84,0 -1.4175,0.21 -0.5775,0.21 -0.945,0.5425 -0.3675,0.3325 -0.525,0.735 -0.1575,0.4025 -0.1575,0.77 0,0.735 0.2625,1.1725 0.2625,0.4375 0.8225,0.6825 0.385,0.175 0.875,0.315 0.49,0.14 1.1375,0.2975 0.5775,0.14 1.1375,0.28 0.56,0.14 0.98,0.385 0.4375,0.2275 0.7,0.595 0.28,0.3675 0.28,0.9625 0,0.5775 -0.28,0.98 -0.2625,0.4025 -0.6825,0.665 -0.42,0.245 -0.945,0.3675 -0.5075,0.105 -0.9975,0.105 -1.5925,0 -2.45,-0.7 -0.84,-0.7175 -0.84,-2.24 h -0.35 q 0,1.6975 0.91,2.485 0.9275,0.7875 2.73,0.7875 0.5775,0 1.155,-0.14 0.595,-0.1225 1.05,-0.42 0.4725,-0.2975 0.7525,-0.77 0.2975,-0.4725 0.2975,-1.155 0,-0.6475 -0.2625,-1.05 -0.245,-0.4025 -0.665,-0.665 -0.4025,-0.2625 -0.9275,-0.4025 -0.5075,-0.1575 -1.0325,-0.2975 -0.735,-0.1925 -1.295,-0.3325 -0.5425,-0.14 -1.015,-0.3325 -0.455,-0.1925 -0.735,-0.5425 -0.2625,-0.3675 -0.2625,-1.0325 0,-0.1225 0.07,-0.4375 0.07,-0.315 0.3325,-0.63 0.2625,-0.3325 0.805,-0.5775 0.5425,-0.2625 1.4875,-0.2625 0.6475,0 1.1725,0.14 0.5425,0.14 0.9275,0.455 0.385,0.2975 0.595,0.77 0.21,0.4725 0.21,1.155 z" />
    </g>
  </g>
</svg>
