<?xml version="1.0" encoding="UTF-8" standalone="no"?>
<!-- Created with Inkscape (http://www.inkscape.org/) -->

<svg
   xmlns:dc="http://purl.org/dc/elements/1.1/"
   xmlns:cc="http://creativecommons.org/ns#"
   xmlns:rdf="http://www.w3.org/1999/02/22-rdf-syntax-ns#"
   xmlns:svg="http://www.w3.org/2000/svg"
   xmlns="http://www.w3.org/2000/svg"
   xmlns:sodipodi="http://sodipodi.sourceforge.net/DTD/sodipodi-0.dtd"
   xmlns:inkscape="http://www.inkscape.org/namespaces/inkscape"
   width="105.63174mm"
   height="105.63174mm"
   viewBox="0 0 374.28571 374.28571"
   id="svg2"
   version="1.1"
   inkscape:version="0.92.2 5c3e80d, 2017-08-06"
   sodipodi:docname="fiind.svg">
  <defs
     id="defs4" />
  <sodipodi:namedview
     id="base"
     pagecolor="#ffffff"
     bordercolor="#666666"
     borderopacity="1.0"
     inkscape:pageopacity="0.0"
     inkscape:pageshadow="2"
     inkscape:zoom="0.98994949"
     inkscape:cx="-44.901642"
     inkscape:cy="136.30179"
     inkscape:document-units="px"
     inkscape:current-layer="layer1"
     showgrid="false"
     inkscape:window-width="1680"
     inkscape:window-height="1005"
     inkscape:window-x="-2"
     inkscape:window-y="2"
     inkscape:window-maximized="0"
     fit-margin-top="0"
     fit-margin-left="0"
     fit-margin-right="0"
     fit-margin-bottom="0"
     inkscape:snap-global="false" />
  <metadata
     id="metadata7">
    <rdf:RDF>
      <cc:Work
         rdf:about="">
        <dc:format>image/svg+xml</dc:format>
        <dc:type
           rdf:resource="http://purl.org/dc/dcmitype/StillImage" />
        <dc:title />
      </cc:Work>
    </rdf:RDF>
  </metadata>
  <g
     inkscape:groupmode="layer"
     id="layer2"
     inkscape:label="background"
     style="display:inline" />
  <g
     inkscape:label="Layer 1"
     inkscape:groupmode="layer"
     id="layer1"
     transform="translate(-8.5714305,-9.5050659)"
     style="display:inline">
    <path
       style="fill:#ffffff;fill-opacity:1;fill-rule:evenodd;stroke:none;stroke-width:0.93750006px;stroke-linecap:butt;stroke-linejoin:miter;stroke-opacity:1"
       d="m 189.42054,62.704122 h -13.25826 l -17.99335,13.258252 -9.47017,16.099308 -6.62913,9.470178 -11.36422,12.31124 -7.57614,9.47018 -4.73509,16.0993 -3.78807,21.78142 -8.52317,13.25826 -4.73509,13.25824 -13.25825,14.20528 -7.57615,16.0993 -5.6821,12.31124 -4.73509,23.67545 2.84105,20.8344 4.73509,20.83439 12.31124,19.88739 20.8344,12.31123 19.88737,0.94702 28.41055,-9.47018 17.04632,-13.25826 13.25826,-12.31123 6.62912,-17.99334 7.57615,19.88737 11.36421,11.36422 20.8344,14.20527 25.56949,6.62913 22.72843,-2.84106 20.8344,-11.36421 12.31123,-18.94036 0.94702,-17.04633 v -19.88738 l -1.89404,-17.99334 -8.52315,-18.94036 -6.62913,-20.8344 -9.47019,-21.78141 -9.47017,-19.88739 -6.62913,-12.31123 -8.52316,-22.72843 -16.09932,-17.99335 -7.57614,-10.417194 -1.89403,-6.629126 -2.84106,-7.576145 -7.57614,-10.417199 -11.36422,-5.682108 -12.31123,-3.788072 -6.62913,3.788072 -3.78807,6.629127 -0.94702,7.576144 z"
       id="path835"
       inkscape:connector-curvature="0" />
    <path
       style="fill:#000006;fill-opacity:1;stroke-width:2.63195729"
       d="m 183.96875,58.830078 c -10.74666,1.724602 -18.29567,10.219113 -26.68555,16.335938 -7.07819,10.184057 -11.28621,23.28095 -22.66601,29.742184 -13.55803,12.26282 -17.75518,30.94047 -19.96823,48.21161 -4.66399,11.08007 -9.29365,22.47043 -15.262318,32.77204 -8.767266,8.04758 -16.527295,17.88326 -19.478439,29.59838 -12.457142,18.83919 -12.804712,43.21936 -7.041015,64.5 0.752027,9.08734 2.609175,18.16563 8.126507,25.65583 8.827315,14.86069 25.004205,26.5864 42.930135,25.16253 16.99582,0.54076 32.81229,-7.31973 45.71906,-17.79967 5.41782,-4.79566 12.12062,-8.09572 17.30438,-13.04798 3.3328,-4.59205 5.45998,-10.14613 10.0664,-13.73047 5.77195,12.31993 16.93156,20.76963 27.07227,29.46094 12.21804,7.83248 27.04054,12.56119 41.60807,13.89861 20.08019,0.84857 42.9338,-7.59595 51.42708,-27.16229 5.72398,-11.53366 5.81981,-24.80812 3.78711,-37.36523 -0.12998,-13.53745 -1.04246,-27.54451 -7.93359,-39.57617 -5.03158,-8.61381 -8.04475,-18.10374 -9.56445,-27.91406 -2.58333,-11.42309 -10.73761,-20.07695 -14.30004,-31.14333 -3.01571,-9.74577 -10.91193,-16.91827 -13.42067,-26.83128 -3.03049,-10.66129 -6.01755,-22.23184 -14.98047,-29.57227 -5.82109,-6.17083 -14.83832,-11.16981 -16.6914,-19.927734 -0.86297,-13.519898 -13.29232,-22.174051 -24.80573,-26.704574 -6.45387,-3.825741 -17.7306,-5.904955 -21.40912,2.466293 -4.46622,2.080734 -3.09464,-5.360274 -7.13867,-5.845703 -2.07303,-0.934622 -4.41952,-1.471838 -6.69531,-1.183594 z m 2.08398,3.710938 c 5.93227,-0.203825 8.90896,10.462766 2.00391,11.34375 -12.82465,3.473198 -24.90056,9.632185 -36.1875,16.630859 5.79927,-13.253142 17.36729,-24.602275 31.68945,-27.853516 0.82699,-0.11174 1.66331,-0.102515 2.49414,-0.121093 z m 23.09766,0.568359 c 11.15714,4.216739 24.69318,8.924141 30.05273,20.720703 2.11138,3.243076 -2.35328,6.387295 -4.68164,3.257813 -9.59564,-6.408168 -19.83407,-12.103323 -30.72851,-15.503907 -3.92706,-3.664501 1.44765,-8.513951 5.35742,-8.474609 z m -5.78125,13.189453 c 13.3759,3.842051 25.34155,11.718019 36.62695,19.701172 3.0266,2.288109 5.80718,4.8745 8.51953,7.52148 -5.65895,4.5887 -15.07233,2.33294 -19.1582,8.72852 -0.18581,2.48275 3.44853,-1.22618 5.18555,-0.96484 10.5099,-3.49228 24.85114,-1.12114 29.4375,10.20507 9.11743,16.58528 13.59259,36.67842 7.32617,55.04688 -3.41189,13.54623 -11.26999,25.54892 -20.72656,35.5625 -2.74533,5.03428 -10.41784,5.10386 -13.37891,0.20117 -2.44916,-2.1973 -3.6958,-6.33935 -5.31445,-8.34375 -2.96873,3.94455 2.42815,8.31332 4.12109,11.72852 4.57322,5.17198 5.31104,12.10553 4.68384,18.69544 0.36307,17.8135 1.1486,38.70989 15.7439,51.22643 6.90562,6.48779 16.12532,12.56555 24.01172,16.125 -6.01335,-7.54838 -15.63627,-11.3083 -21.8185,-18.83479 -10.56574,-11.01143 -14.49196,-26.60217 -13.76176,-41.53607 0.0261,-8.83514 -0.74704,-19.14778 6.40643,-25.6682 6.30598,-6.43643 13.65907,-12.34711 16.31769,-21.36595 6.08851,-12.67658 9.91061,-26.39658 11.11981,-40.41335 9.85638,16.04428 11.46783,35.90872 6.82024,53.90712 -2.96656,13.16426 -8.6022,25.49835 -15.07024,37.24718 -1.53907,10.89122 9.41502,17.19198 16.32422,23.52344 6.89699,5.9199 19.1333,9.50047 26.09179,1.61718 3.96296,-2.18361 4.99964,3.6643 4.72266,6.36719 1.48724,18.80508 -9.55945,38.35962 -27.6582,44.81641 -20.56001,7.99531 -44.34495,2.90384 -62.7461,-8.15039 -9.72751,-7.4593 -19.48971,-15.79223 -25.72656,-26.49414 -7.53359,-14.55685 -3.05169,-31.28675 -3.8906,-46.88652 0.76778,-16.05283 -1.03435,-32.25362 0.80271,-48.21895 1.98167,-7.47038 10.70766,-9.87192 16.59611,-13.56338 14.1074,-6.70306 30.30127,-13.18065 37.42733,-28.2335 1.54989,-3.07563 2.65449,-6.40725 2.97461,-9.84765 -6.76974,12.8452 -18.10213,23.1956 -31.73047,28.19726 -8.12696,4.00446 -16.13292,8.32351 -24.69727,11.35157 0.90868,-33.77766 -1.2243,-67.73049 0.82031,-101.404302 0.63855,-1.32854 2.18048,-1.960293 3.59766,-1.84375 z m -13.43945,1.611328 c 6.10655,0.310206 4.70015,7.757748 5.14258,11.835938 0.0733,27.826196 -2.94865,55.461896 -2.62052,83.263006 0.71806,6.63449 -0.90272,9.19889 -6.65949,4.14577 -18.60576,-10.3796 -37.79115,-22.44324 -49.36257,-40.67635 -0.12336,4.36577 3.47563,8.36815 5.3125,12.27343 8.59115,14.6247 24.19513,22.42215 38.53515,30.20899 9.00271,5.00061 14.8666,15.12231 13.24947,25.5104 -1.3879,26.94018 2.41449,54.59338 -2.78267,81.40366 -6.01427,15.76006 -23.87898,20.85004 -35.29883,31.51367 -15.21508,10.86697 -36.90788,12.81639 -53.55617,4.23666 -14.475866,-8.53501 -24.491621,-24.09016 -26.234843,-40.81478 7.752283,1.96924 17.627736,5.91837 23.925097,-1.36533 9.356836,-6.79117 22.296556,-14.61028 22.360056,-27.62295 -3.03731,-8.02639 -8.01547,-15.24574 -10.0672,-23.7107 -3.75639,-13.1409 -7.78374,-26.90176 -6.41131,-40.6936 1.33796,-7.47954 3.99136,-15.48578 9.10351,-21.07617 4.93974,-0.14933 2.55313,6.58505 4.10157,9.59765 3.88873,17.28002 15.88491,30.91414 27.73828,43.38086 4.31534,6.02188 0.54665,13.84574 1.73102,20.60149 -0.34729,14.61456 -0.31559,30.71206 -8.80524,43.27547 -7.19021,9.82877 -20.41575,15.05345 -29.22656,20.76171 8.65161,-0.91356 15.84646,-6.65262 23.66796,-10.22265 14.24564,-9.24162 17.58734,-27.22174 18.31628,-42.8263 1.20466,-11.96422 -0.31374,-24.48246 3.11927,-36.10144 1.88084,-4.59426 6.98856,-8.84404 7.17188,-13.17578 -4.87446,4.08205 -8.35442,10.08774 -14.51563,12.52149 -21.70833,-20.35148 -34.531,-52.89588 -24.99914,-82.10453 3.19386,-11.21893 9.64129,-23.72777 22.20031,-26.16305 7.13019,-2.01716 15.2053,-0.97406 21.97657,0.17187 -2.86386,-5.4675 -10.80685,-4.33297 -16.08985,-4.82226 -5.18076,0.0303 -14.47145,1.32707 -5.06851,-2.882093 11.81576,-7.595498 24.49315,-13.712111 37.30679,-19.362049 2.16945,-0.725745 4.44993,-1.122691 6.74024,-1.082032 z M 295.89844,189.84961 c 7.6751,18.08637 9.15905,39.22383 1.86523,57.61133 0.80579,2.59314 2.84274,-3.1176 3.69922,-3.83399 4.22135,-6.88934 4.43748,-15.13404 4.80273,-22.94531 5.58926,10.37574 11.12541,22.16442 9.9043,34.24414 -1.14427,8.24371 -8.70839,17.92325 -17.81054,15.64649 -9.69972,-3.69833 -18.25208,-10.87932 -23.95508,-19.47852 -2.09054,-5.79656 4.16911,-10.52267 5.60974,-15.77773 7.23276,-13.13396 10.61529,-27.14757 11.53674,-41.91954 0.86288,-5.14151 1.53761,-14.11331 4.00435,-4.39622 z m -193.97461,3.70703 c 1.52949,17.93359 4.56897,36.29445 13.46679,52.24024 2.93577,5.93943 2.15781,13.52835 -3.32941,17.7723 -6.50941,7.94752 -14.428516,17.32011 -25.514335,17.7023 -11.020843,-2.90902 -13.63562,-15.83655 -13.621094,-25.68945 -0.365013,-11.11364 2.185415,-22.27675 7.490235,-32.06836 3.095358,9.38991 3.088831,20.75744 8.117187,28.92969 0.384911,-12.75898 -7.646105,-24.79506 -4.261719,-37.71289 1.922399,-10.31494 8.697088,-19.22637 17.414066,-24.86719 0.0794,1.23112 0.15885,2.46224 0.23828,3.69336 z"
       id="path827"
       inkscape:connector-curvature="0" />
  </g>
</svg>
