<?xml version="1.0" encoding="UTF-8" standalone="no"?>
<svg
   xmlns:dc="http://purl.org/dc/elements/1.1/"
   xmlns:cc="http://creativecommons.org/ns#"
   xmlns:rdf="http://www.w3.org/1999/02/22-rdf-syntax-ns#"
   xmlns:svg="http://www.w3.org/2000/svg"
   xmlns="http://www.w3.org/2000/svg"
   xmlns:sodipodi="http://sodipodi.sourceforge.net/DTD/sodipodi-0.dtd"
   xmlns:inkscape="http://www.inkscape.org/namespaces/inkscape"
   sodipodi:docname="mcgill.svg"
   inkscape:version="1.0beta1 (32d4812, 2019-09-19)"
   xml:space="preserve"
   enable-background="new 0 0 250.25 59"
   viewBox="0 0 46.115772 57.884998"
   height="57.884998"
   width="46.115772"
   y="0px"
   x="0px"
   id="Layer_1"
   version="1.1">
  <metadata
     id="metadata4297">
    <rdf:RDF>
      <cc:Work
         rdf:about="">
        <dc:format>image/svg+xml</dc:format>
        <dc:type
           rdf:resource="http://purl.org/dc/dcmitype/StillImage" />
        <dc:title></dc:title>
      </cc:Work>
    </rdf:RDF>
  </metadata>
  <defs
     id="defs4295">
    <inkscape:path-effect
       message="Use fill-rule evenodd on &lt;b&gt;fill and stroke&lt;/b&gt; dialog if no flatten result after convert clip to paths."
       is_inverse="true"
       hide_clip="false"
       flatten="false"
       inverse="true"
       uri="#clipPath910"
       is_visible="true"
       id="path-effect914"
       effect="powerclip" />
    <clipPath
       id="clipPath910"
       clipPathUnits="userSpaceOnUse">
      <path
         style="clip-rule:evenodd;opacity:1;fill:#ffffff;fill-opacity:0.985337;fill-rule:evenodd;stop-opacity:1"
         inkscape:connector-curvature="0"
         id="path912"
         d="m 8.16793,1000014.7 -7.17,7.8 c 1.609,7.5 6.074,23.2 22.34,33.8 16.118,-11.1 20.437,-26.3 21.412,-33.9 l -6.969,-7.7 -7.719,7.8 -7.109,-7.7 -7.085,7.7 -7.7,-7.8" />
      <path
         d="m 8.16793,15.744 -7.17,7.798 c 1.609,7.474 6.074,23.143 22.34,33.712 16.118,-11.093 20.437,-26.298 21.412,-33.883 l -6.969,-7.645 -7.719,7.822 -7.109,-7.755 -7.085,7.657 -7.7,-7.706 M -0.99999983,-1 H 47.115773 V 58.885 H -0.99999983 Z"
         style="fill-rule:evenodd"
         id="lpe_path-effect914" />
    </clipPath>
  </defs>
  <sodipodi:namedview
     inkscape:document-rotation="0"
     inkscape:current-layer="Layer_1"
     inkscape:window-maximized="0"
     inkscape:window-y="23"
     inkscape:window-x="0"
     inkscape:cy="25.835562"
     inkscape:cx="31.889043"
     inkscape:zoom="7.9195959"
     fit-margin-bottom="0"
     fit-margin-right="0"
     fit-margin-left="0"
     fit-margin-top="0"
     showgrid="false"
     id="namedview4293"
     inkscape:window-height="907"
     inkscape:window-width="1600"
     inkscape:pageshadow="2"
     inkscape:pageopacity="0"
     guidetolerance="10"
     gridtolerance="10"
     objecttolerance="10"
     borderopacity="1"
     bordercolor="#666666"
     pagecolor="#9b9b9b" />
  <path
     d="M 23.101562 0 C 15.133563 -5.9211895e-16 7.7795156 0.33534315 0.35351562 4.0273438 C 0.35351562 12.330344 -0.86425 19.195234 1.21875 26.615234 C 4.08275 36.812234 8.8405339 48.344766 23.394531 57.884766 C 36.729531 48.807766 42.576891 36.520953 44.587891 27.626953 C 46.597891 18.732953 46.249484 11.843625 45.646484 4.015625 C 39.761484 0.890625 29.991575 0 23.101562 0 z M 22.269531 2.7304688 C 22.494812 2.7489842 22.706547 2.799375 22.904297 2.890625 L 22.904297 12.230469 C 22.235297 11.987469 21.353609 12.077312 20.349609 12.320312 C 19.345609 12.564312 18.767563 12.595359 17.976562 12.443359 L 17.976562 3.1640625 C 17.976562 3.1640625 19.071375 3.6208594 19.984375 3.2558594 C 20.805625 2.9138594 21.593688 2.6749219 22.269531 2.7304688 z M 23.787109 2.7304688 C 24.389078 2.6749219 25.138109 2.9138594 26.005859 3.2558594 C 26.916859 3.6208594 28.011719 3.1640625 28.011719 3.1640625 L 28.011719 12.443359 C 27.190719 12.595359 26.641422 12.564312 25.607422 12.320312 C 24.573422 12.077312 23.812375 11.987469 23.234375 12.230469 L 23.234375 2.890625 C 23.401625 2.799375 23.586453 2.7489844 23.787109 2.7304688 z M 28.332031 3.0800781 L 29.154297 3.8710938 L 29.154297 13.150391 L 28.332031 12.359375 L 28.332031 3.0800781 z M 17.654297 3.171875 L 17.654297 12.419922 L 16.773438 13.242188 L 16.773438 3.8710938 L 17.654297 3.171875 z M 19.984375 4.3515625 L 19.984375 5.5683594 L 20.228516 5.5683594 L 20.228516 4.7167969 L 20.714844 5.5683594 L 20.988281 5.5683594 L 20.988281 4.3515625 L 20.744141 4.3515625 L 20.744141 5.203125 L 20.257812 4.3515625 L 19.984375 4.3515625 z M 24.179688 4.3515625 C 23.845688 4.3515625 23.601564 4.5642344 23.601562 4.9902344 C 23.601562 5.4462344 23.845688 5.6582031 24.179688 5.6582031 C 24.483687 5.6582031 24.664562 5.477125 24.726562 5.203125 L 24.453125 5.203125 C 24.424125 5.355125 24.330686 5.4453125 24.179688 5.4453125 C 23.936688 5.4453125 23.875 5.2332344 23.875 4.9902344 C 23.875 4.6552344 24.058688 4.5644531 24.179688 4.5644531 C 24.392688 4.5644531 24.424125 4.7163437 24.453125 4.7773438 L 24.726562 4.7773438 C 24.695563 4.5943438 24.545687 4.3515625 24.179688 4.3515625 z M 19.375 4.3808594 L 19.375 5.5976562 L 19.619141 5.5976562 L 19.619141 4.3808594 L 19.375 4.3808594 z M 25.548828 4.5039062 C 25.366828 4.5039062 24.939453 4.5645781 24.939453 5.1425781 C 24.939453 5.7505781 25.366828 5.8105469 25.548828 5.8105469 C 25.699828 5.8105469 26.154297 5.7505781 26.154297 5.1425781 C 26.154297 4.5645781 25.699828 4.5039064 25.548828 4.5039062 z M 26.339844 4.5332031 L 26.339844 5.78125 L 26.582031 5.78125 L 26.582031 4.8984375 L 27.101562 5.78125 L 27.373047 5.78125 L 27.373047 4.5332031 L 27.101562 4.5332031 L 27.101562 5.4160156 L 27.099609 5.4160156 L 26.613281 4.5332031 L 26.339844 4.5332031 z M 25.548828 4.7167969 C 25.669828 4.7167969 25.882814 4.8075781 25.882812 5.1425781 C 25.882812 5.5075781 25.669828 5.5976562 25.548828 5.5976562 C 25.396828 5.5976562 25.214844 5.5075781 25.214844 5.1425781 C 25.214844 4.8075781 25.396828 4.7167969 25.548828 4.7167969 z M 7.9277344 5.3867188 C 8.4757344 5.7517188 8.5476094 6.3372187 8.4746094 7.3242188 C 8.5476094 7.1412188 8.8034375 7.25 9.0234375 7.25 C 9.0964375 7.324 9.4607031 7.32375 9.0957031 7.46875 C 8.4747031 7.68775 7.9272967 9.6247656 10.154297 9.2597656 C 10.666297 10.865766 13.36675 9.0769375 11.46875 7.8359375 C 11.39575 7.8359375 11.21275 7.7615 11.46875 7.6875 C 11.61475 7.6875 11.980812 7.6872185 12.382812 8.1992188 C 12.564813 8.1262187 12.965344 7.4685 13.402344 7.6875 C 13.402344 7.7245 11.978031 10.865094 11.832031 11.121094 C 11.212031 10.792094 7.5627344 10.572266 7.9277344 10.572266 C 8.2197344 10.572266 4.6046406 10.683094 4.0566406 11.121094 C 3.8726406 10.792094 2.4492185 7.6152344 2.4492188 7.6152344 C 2.8872186 7.4322344 3.3627656 8.0539531 3.5097656 8.1269531 C 3.8737656 7.6159531 4.2385 7.6152344 4.3125 7.6152344 C 4.6785 7.6872344 4.4598281 7.7629375 4.4238281 7.8359375 C 2.6708281 9.2599375 5.2254375 10.865766 5.7734375 9.2597656 C 8.0374375 9.5147656 7.4171406 7.6885937 6.8691406 7.4335938 C 6.4311406 7.3245938 6.7231406 7.25 6.8691406 7.25 C 7.0511406 7.141 7.34375 7.1412186 7.34375 7.3242188 C 7.34375 6.3382188 7.4157344 5.6787188 7.9277344 5.3867188 z M 38.382812 5.3867188 C 38.930813 5.7517188 39.003641 6.3372187 38.931641 7.3242188 C 39.003641 7.1412188 39.259516 7.25 39.478516 7.25 C 39.551516 7.324 39.915781 7.32375 39.550781 7.46875 C 38.930781 7.68775 38.382375 9.6247656 40.609375 9.2597656 C 41.118375 10.865766 43.821828 9.0769375 41.923828 7.8359375 C 41.850828 7.8359375 41.666828 7.7615 41.923828 7.6875 C 42.069828 7.6875 42.433984 7.6872175 42.833984 8.1992188 C 43.017984 8.1262187 43.419422 7.4685 43.857422 7.6875 C 43.857422 7.7245 42.433109 10.865094 42.287109 11.121094 C 41.666109 10.792094 38.015859 10.572266 38.380859 10.572266 C 38.672859 10.572266 35.058719 10.683094 34.511719 11.121094 C 34.327719 10.792094 32.904297 7.6152344 32.904297 7.6152344 C 33.342297 7.4322344 33.817844 8.0539531 33.964844 8.1269531 C 34.328844 7.6159531 34.693578 7.6152344 34.767578 7.6152344 C 35.132578 7.6872344 34.912 7.7629375 34.875 7.8359375 C 33.122 9.2599375 35.680516 10.865766 36.228516 9.2597656 C 38.491516 9.5147656 37.870266 7.6885937 37.322266 7.4335938 C 36.884266 7.3245938 37.176266 7.25 37.322266 7.25 C 37.506266 7.141 37.798828 7.1412186 37.798828 7.3242188 C 37.798828 6.3382188 37.870812 5.6787188 38.382812 5.3867188 z M 20.988281 6.7246094 L 20.988281 7.9707031 L 21.230469 7.9707031 L 21.230469 6.9375 L 21.474609 7.9707031 L 21.71875 7.9707031 L 21.960938 6.9375 L 21.960938 7.9707031 L 22.203125 7.9707031 L 22.203125 6.7246094 L 21.810547 6.7246094 L 21.597656 7.6972656 L 21.384766 6.7246094 L 20.988281 6.7246094 z M 20.197266 6.8144531 C 20.015266 6.8144531 19.589844 6.875125 19.589844 7.453125 C 19.589844 8.062125 20.015266 8.1230469 20.197266 8.1230469 C 20.349266 8.1230469 20.804687 8.062125 20.804688 7.453125 C 20.804688 6.875125 20.349266 6.8144531 20.197266 6.8144531 z M 18.373047 6.9667969 L 18.373047 8.2148438 L 18.919922 8.2148438 C 19.346922 8.2148438 19.4375 7.8191719 19.4375 7.5761719 C 19.4375 7.3321719 19.347172 6.9667969 18.951172 6.9667969 L 18.373047 6.9667969 z M 24.666016 6.9980469 L 24.666016 8.2441406 L 24.939453 8.2441406 L 24.939453 7.7285156 L 25.486328 7.7285156 L 25.486328 7.484375 L 24.939453 7.484375 L 24.939453 7.2109375 L 25.578125 7.2109375 L 25.578125 6.9980469 L 24.666016 6.9980469 z M 20.197266 7.0273438 C 20.318266 7.0273438 20.53125 7.118125 20.53125 7.453125 C 20.53125 7.818125 20.318266 7.9101562 20.197266 7.9101562 C 20.044266 7.9101562 19.863281 7.818125 19.863281 7.453125 C 19.863281 7.118125 20.044266 7.0273437 20.197266 7.0273438 z M 25.882812 7.0273438 L 25.882812 8.2753906 L 26.15625 8.2753906 L 26.15625 7.0273438 L 25.882812 7.0273438 z M 18.646484 7.1796875 L 18.890625 7.1796875 C 19.011625 7.1796875 19.193359 7.2111719 19.193359 7.5761719 C 19.193359 7.7891719 19.102625 8.0019531 18.890625 8.0019531 L 18.646484 8.0019531 L 18.646484 7.1796875 z M 7.9277344 8.8574219 L 7.1601562 10.316406 L 8.7304688 10.316406 L 7.9277344 8.8574219 z M 38.380859 8.8574219 L 37.613281 10.316406 L 39.183594 10.316406 L 38.380859 8.8574219 z M 21.412109 9.4316406 C 21.231109 9.4316406 20.806641 9.4923145 20.806641 10.070312 C 20.806641 10.679312 21.231109 10.740234 21.412109 10.740234 C 21.565109 10.740234 21.992187 10.679313 21.992188 10.070312 C 21.992188 9.4923145 21.565109 9.4316406 21.412109 9.4316406 z M 24.240234 9.4628906 L 24.240234 10.708984 L 24.787109 10.708984 C 25.214109 10.708984 25.306641 10.313063 25.306641 10.039062 C 25.306641 9.796067 25.214109 9.4628906 24.787109 9.4628906 L 24.240234 9.4628906 z M 19.498047 9.4921875 L 19.498047 10.769531 L 19.771484 10.769531 L 19.771484 9.8574219 L 20.257812 10.769531 L 20.53125 10.769531 L 20.53125 9.4921875 L 20.287109 9.4921875 L 20.287109 10.371094 L 20.289062 10.375 L 20.287109 10.375 L 20.287109 10.371094 L 19.802734 9.4921875 L 19.498047 9.4921875 z M 18.980469 9.6132812 L 18.980469 10.861328 L 19.224609 10.861328 L 19.224609 9.6132812 L 18.980469 9.6132812 z M 26.246094 9.6132812 C 26.064094 9.6132812 25.638672 9.6759081 25.638672 10.253906 C 25.638672 10.861906 26.064094 10.921875 26.246094 10.921875 C 26.398094 10.921875 26.855469 10.861906 26.855469 10.253906 C 26.855469 9.6759081 26.398094 9.6132812 26.246094 9.6132812 z M 21.412109 9.6445312 C 21.534109 9.6445312 21.748047 9.7363145 21.748047 10.070312 C 21.748047 10.435315 21.534109 10.527344 21.412109 10.527344 C 21.261109 10.527344 21.048828 10.435313 21.048828 10.070312 C 21.048828 9.7363145 21.261109 9.6445312 21.412109 9.6445312 z M 24.513672 9.6757812 L 24.757812 9.6757812 C 24.879812 9.6757812 25.029297 9.705317 25.029297 10.070312 C 25.029297 10.283316 24.969813 10.496094 24.757812 10.496094 L 24.513672 10.496094 L 24.513672 9.6757812 z M 5.9199219 9.7324219 L 5.2636719 10.5 L 6.5390625 10.316406 L 5.9199219 9.7324219 z M 9.9726562 9.7324219 L 9.3515625 10.316406 L 10.628906 10.5 L 9.9726562 9.7324219 z M 36.373047 9.7324219 L 35.716797 10.5 L 36.994141 10.316406 L 36.373047 9.7324219 z M 40.425781 9.7324219 L 39.804688 10.316406 L 41.082031 10.5 L 40.425781 9.7324219 z M 26.248047 9.8261719 C 26.369047 9.8261719 26.582031 9.918909 26.582031 10.253906 C 26.582031 10.618906 26.369047 10.708984 26.248047 10.708984 C 26.096047 10.708984 25.912109 10.618906 25.912109 10.253906 C 25.912109 9.9189084 26.097047 9.8261719 26.248047 9.8261719 z M 8.0761719 10.966797 C 9.3181719 10.966797 11.034031 11.148672 11.582031 11.513672 C 11.582031 11.513672 11.326422 12.426609 11.107422 12.974609 C 10.121422 12.609609 8.8086406 12.464844 7.9316406 12.464844 C 6.9466406 12.464844 5.7767656 12.610344 5.0097656 12.902344 C 4.7547656 12.464344 4.4624063 11.696672 4.3164062 11.513672 C 4.9364063 11.039672 7.2371719 10.966797 8.0761719 10.966797 z M 38.53125 10.966797 C 39.77325 10.966797 41.488156 11.148672 42.035156 11.513672 C 42.035156 11.513672 41.7815 12.426609 41.5625 12.974609 C 40.5765 12.609609 39.260766 12.464844 38.384766 12.464844 C 37.398766 12.464844 36.231844 12.610344 35.464844 12.902344 C 35.208844 12.464344 34.915531 11.696672 34.769531 11.513672 C 35.390531 11.039672 37.69125 10.966797 38.53125 10.966797 z M 7.96875 11.259766 C 7.78575 11.259766 7.5664062 11.477156 7.5664062 11.660156 C 7.5664063 11.879156 7.78575 12.099609 7.96875 12.099609 C 8.18775 12.099609 8.40625 11.879156 8.40625 11.660156 C 8.40625 11.477156 8.18775 11.259766 7.96875 11.259766 z M 38.421875 11.259766 C 38.238875 11.259766 38.019531 11.477156 38.019531 11.660156 C 38.019531 11.879156 38.237875 12.099609 38.421875 12.099609 C 38.640875 12.099609 38.859375 11.879156 38.859375 11.660156 C 38.859375 11.477156 38.640875 11.259766 38.421875 11.259766 z M 6.5449219 11.369141 C 6.3609219 11.369141 6.1415781 11.587531 6.1425781 11.769531 C 6.1425781 11.988531 6.3609219 12.207031 6.5449219 12.207031 C 6.7639219 12.207031 6.9824219 11.988531 6.9824219 11.769531 C 6.9824219 11.587531 6.7639219 11.369141 6.5449219 11.369141 z M 9.3925781 11.369141 C 9.2095781 11.369141 8.9902344 11.587531 8.9902344 11.769531 C 8.9902344 11.988531 9.2085781 12.207031 9.3925781 12.207031 C 9.6115781 12.207031 9.8300781 11.988531 9.8300781 11.769531 C 9.8300781 11.587531 9.6115781 11.369141 9.3925781 11.369141 z M 36.998047 11.369141 C 36.815047 11.369141 36.596656 11.587531 36.597656 11.769531 C 36.597656 11.988531 36.815047 12.207031 36.998047 12.207031 C 37.217047 12.207031 37.435547 11.988531 37.435547 11.769531 C 37.435547 11.587531 37.218047 11.369141 36.998047 11.369141 z M 39.845703 11.369141 C 39.662703 11.369141 39.443359 11.587531 39.443359 11.769531 C 39.443359 11.988531 39.661703 12.207031 39.845703 12.207031 C 40.064703 12.207031 40.283203 11.988531 40.283203 11.769531 C 40.283203 11.587531 40.064703 11.369141 39.845703 11.369141 z M 5.2285156 11.660156 C 5.0465156 11.660156 4.828125 11.8805 4.828125 12.0625 C 4.828125 12.2815 5.0465156 12.5 5.2285156 12.5 C 5.4475156 12.5 5.6660156 12.2815 5.6660156 12.0625 C 5.6660156 11.8805 5.4485156 11.660156 5.2285156 11.660156 z M 10.742188 11.660156 C 10.559188 11.660156 10.340797 11.8805 10.341797 12.0625 C 10.341797 12.2815 10.559187 12.5 10.742188 12.5 C 10.961187 12.5 11.181641 12.2815 11.181641 12.0625 C 11.181641 11.8805 10.962187 11.660156 10.742188 11.660156 z M 35.683594 11.660156 C 35.501594 11.660156 35.28125 11.8805 35.28125 12.0625 C 35.28125 12.2815 35.500594 12.5 35.683594 12.5 C 35.902594 12.5 36.121094 12.2815 36.121094 12.0625 C 36.121094 11.8805 35.902594 11.660156 35.683594 11.660156 z M 41.197266 11.660156 C 41.014266 11.660156 40.794922 11.8805 40.794922 12.0625 C 40.794922 12.2815 41.014266 12.5 41.197266 12.5 C 41.415266 12.5 41.634766 12.2815 41.634766 12.0625 C 41.634766 11.8805 41.416266 11.660156 41.197266 11.660156 z M 21.830078 12.316406 C 22.172328 12.289781 22.475469 12.329219 22.855469 12.511719 C 22.429469 12.694719 22.15625 13.059531 22.15625 13.394531 L 17.046875 13.394531 L 17.929688 12.693359 C 18.568687 12.876359 19.936219 12.603719 20.574219 12.511719 C 21.106219 12.435719 21.487828 12.343031 21.830078 12.316406 z M 24.166016 12.316406 C 24.485266 12.343031 24.865359 12.435719 25.443359 12.511719 C 26.111359 12.603719 27.359844 12.876359 28.089844 12.693359 L 28.941406 13.394531 L 23.771484 13.394531 C 23.831484 13.059531 23.587906 12.694719 23.253906 12.511719 C 23.587906 12.329219 23.846766 12.289781 24.166016 12.316406 z M 23.039062 12.693359 C 23.373063 12.876359 23.465047 13.059531 23.373047 13.394531 L 22.613281 13.394531 C 22.522281 13.059531 22.704062 13.058359 23.039062 12.693359 z M 7.9238281 12.757812 C 9.5298281 12.757812 11.019531 13.054422 11.019531 13.232422 C 11.019531 13.411422 9.7080156 13.53125 8.0410156 13.53125 C 6.4350156 13.53125 5.0664063 13.411422 5.0664062 13.232422 C 5.0674063 13.054422 6.3168281 12.757812 7.9238281 12.757812 z M 38.378906 12.757812 C 39.984906 12.757812 41.474609 13.054422 41.474609 13.232422 C 41.474609 13.411422 40.163094 13.53125 38.496094 13.53125 C 36.890094 13.53125 35.521484 13.411422 35.521484 13.232422 C 35.521484 13.054422 36.770906 12.757816 38.378906 12.757812 z "
     style="clip-rule:evenodd;opacity:1;fill:#ffffff;fill-rule:evenodd;stop-opacity:1;fill-opacity:1"
     clip-path="url(#clipPath910)"
     id="path4253" />
  <path
     style="clip-rule:evenodd;opacity:1;fill:#ffffff;fill-rule:evenodd;stop-opacity:1;fill-opacity:1"
     inkscape:connector-curvature="0"
     id="path4277"
     d="m 8.94493,26.553 c 0.138,0 0.236,0.109 0.236,0.236 0,0.138 -0.099,0.246 -0.236,0.246 -0.146,0 -0.255,-0.108 -0.255,-0.246 0,-0.127 0.108,-0.236 0.255,-0.236 m -1.749,3.489 c 0.108,-0.256 0.354,-0.983 0.492,-1.239 -0.138,-0.235 -0.384,-0.481 -0.59,-0.481 0.098,-0.236 0.511,-0.55 0.452,-0.756 -0.118,-0.207 -0.275,-0.177 -0.698,-0.413 0.138,-0.285 0.452,-0.462 0.659,-0.491 0.245,-0.049 0.245,-0.384 0.619,-0.59 0.432,-0.206 0.874,-0.206 1.365,-0.255 0.668,0.078 2.467,0.56 1.984,2.751 1.081,2.191 4.893,-0.727 6.229,-0.727 -0.256,0.481 -0.59,0.962 -0.845,1.454 0.354,0.255 0.845,0 1.229,0 -0.384,1.218 -1.12,1.7 -1.721,2.191 0.601,1.955 2.86,1.189 4.874,0.982 -0.235,0.659 -1.061,0.718 -1.443,1.209 0.687,0.747 1.443,1.71 1.935,2.683 -0.904,-0.59 -2.78,-1.219 -3.409,-1.455 -1.209,-0.481 -3.685,-0.481 -4.893,0 0.235,0.482 0.717,0.727 1.11,0.963 -0.63,1.228 -1.857,0.492 -2.584,0.256 -0.619,0.491 -1.77,0.52 -2.083,0.236 0,0 0,-0.315 0.383,-0.551 0.235,-0.353 -0.737,-0.422 -1.002,-0.904 0,-0.452 0.48,0 0.746,-0.481 -0.617,-1.238 -3.153,-1.474 -2.809,-4.382 z" />
  <path
     style="clip-rule:evenodd;opacity:1;fill:#ffffff;fill-rule:evenodd;stop-opacity:1;fill-opacity:1"
     inkscape:connector-curvature="0"
     id="path4279"
     d="m 26.24393,26.911 c 0.148,0 0.246,0.108 0.246,0.256 0,0.127 -0.098,0.235 -0.246,0.235 -0.137,0 -0.245,-0.108 -0.245,-0.235 0,-0.148 0.108,-0.256 0.245,-0.256 m -1.709,3.478 c 0.108,-0.236 0.345,-0.972 0.491,-1.208 -0.146,-0.256 -0.383,-0.492 -0.59,-0.492 0.099,-0.255 0.511,-0.56 0.443,-0.776 -0.108,-0.206 -0.267,-0.177 -0.698,-0.412 0.146,-0.276 0.462,-0.452 0.668,-0.482 0.256,-0.029 0.256,-0.393 0.619,-0.599 0.432,-0.207 0.874,-0.207 1.365,-0.236 0.668,0.059 2.477,0.55 1.985,2.741 1.08,2.191 4.903,-0.727 6.229,-0.727 -0.246,0.491 -0.59,0.983 -0.846,1.464 0.364,0.236 0.846,0 1.229,0 -0.383,1.219 -1.12,1.71 -1.709,2.191 0.589,1.946 2.849,1.189 4.862,0.983 -0.234,0.648 -1.061,0.727 -1.443,1.209 0.698,0.727 1.443,1.709 1.936,2.682 -0.903,-0.59 -2.78,-1.228 -3.399,-1.464 -1.219,-0.491 -3.694,-0.491 -4.903,0 0.236,0.491 0.727,0.727 1.11,0.973 -0.629,1.218 -1.857,0.491 -2.574,0.245 -0.629,0.482 -1.779,0.531 -2.093,0.246 0,0 0,-0.305 0.383,-0.56 0.235,-0.344 -0.737,-0.413 -1.002,-0.904 0,-0.462 0.48,0 0.757,-0.491 -0.629,-1.209 -3.174,-1.464 -2.82,-4.383 z" />
  <path
     style="clip-rule:evenodd;opacity:1;fill:#ffffff;fill-rule:evenodd;stop-opacity:1;fill-opacity:1"
     inkscape:connector-curvature="0"
     id="path4281"
     d="m 17.96693,39.132 c 0.107,0 0.207,0.108 0.207,0.256 0,0.098 -0.1,0.206 -0.207,0.206 -0.127,0 -0.235,-0.108 -0.235,-0.206 0,-0.148 0.108,-0.256 0.235,-0.256 m -1.729,3.479 c 0.098,-0.236 0.344,-0.973 0.491,-1.209 -0.147,-0.236 -0.394,-0.491 -0.599,-0.491 0.107,-0.236 0.521,-0.56 0.451,-0.767 -0.107,-0.206 -0.284,-0.167 -0.697,-0.412 0.147,-0.285 0.451,-0.452 0.669,-0.492 0.234,-0.029 0.234,-0.383 0.618,-0.589 0.412,-0.216 0.875,-0.216 1.355,-0.246 0.659,0.079 2.477,0.55 1.985,2.761 1.081,2.191 4.902,-0.747 6.22,-0.747 -0.236,0.492 -0.59,0.983 -0.825,1.474 0.343,0.236 0.825,0 1.218,0 -0.393,1.209 -1.109,1.7 -1.71,2.191 0.601,1.956 2.86,1.18 4.874,0.973 -0.235,0.649 -1.081,0.727 -1.464,1.219 0.697,0.727 1.464,1.699 1.955,2.672 -0.904,-0.589 -2.79,-1.208 -3.409,-1.464 -1.229,-0.481 -3.685,-0.481 -4.913,0 0.245,0.491 0.737,0.747 1.12,0.983 -0.629,1.208 -1.847,0.481 -2.574,0.235 -0.639,0.492 -1.778,0.531 -2.084,0.246 0,0 0,-0.304 0.364,-0.56 0.255,-0.334 -0.727,-0.413 -1.002,-0.904 0,-0.442 0.491,0 0.767,-0.481 -0.619,-1.219 -3.164,-1.454 -2.81,-4.392 z" />
</svg>
