<?xml version="1.0" encoding="UTF-8" standalone="no"?>
<svg
   xmlns:dc="http://purl.org/dc/elements/1.1/"
   xmlns:cc="http://creativecommons.org/ns#"
   xmlns:rdf="http://www.w3.org/1999/02/22-rdf-syntax-ns#"
   xmlns:svg="http://www.w3.org/2000/svg"
   xmlns="http://www.w3.org/2000/svg"
   xmlns:sodipodi="http://sodipodi.sourceforge.net/DTD/sodipodi-0.dtd"
   xmlns:inkscape="http://www.inkscape.org/namespaces/inkscape"
   width="302"
   height="302"
   id="svg3553"
   version="1.1"
   inkscape:version="1.0beta1 (32d4812, 2019-09-19)"
   sodipodi:docname="naat.svg">
  <defs
     id="defs3555" />
  <sodipodi:namedview
     id="base"
     pagecolor="#000000"
     bordercolor="#666666"
     borderopacity="1.0"
     inkscape:pageopacity="1"
     inkscape:pageshadow="2"
     inkscape:zoom="0.98994949"
     inkscape:cx="74.865131"
     inkscape:cy="154.48366"
     inkscape:document-units="px"
     inkscape:current-layer="layer1"
     showgrid="false"
     fit-margin-top="1"
     fit-margin-left="1"
     fit-margin-right="1"
     fit-margin-bottom="1"
     inkscape:window-width="1600"
     inkscape:window-height="907"
     inkscape:window-x="0"
     inkscape:window-y="23"
     inkscape:window-maximized="0"
     inkscape:document-rotation="0" />
  <metadata
     id="metadata3558">
    <rdf:RDF>
      <cc:Work
         rdf:about="">
        <dc:format>image/svg+xml</dc:format>
        <dc:type
           rdf:resource="http://purl.org/dc/dcmitype/StillImage" />
        <dc:title />
      </cc:Work>
    </rdf:RDF>
  </metadata>
  <g
     inkscape:label="Layer 1"
     inkscape:groupmode="layer"
     id="layer1"
     transform="translate(-229.86157,-383.16528)">
    <circle
       r="146.5"
       style="fill:#ffffff;fill-opacity:1;stroke:none;stroke-width:9.11373;stroke-miterlimit:4;stroke-dasharray:none;stroke-opacity:1"
       id="path839"
       cx="381.16156"
       cy="533.26526" />
    <path
       style="color:#000000;display:inline;overflow:visible;visibility:visible;fill:#000000;fill-opacity:1;fill-rule:nonzero;stroke:#ffffff;stroke-width:6.4;stroke-opacity:0;marker:none;enable-background:accumulate"
       d="m 380.17499,398.38249 c -63.27813,0 -116.31351,43.28498 -131.5,101.8125 h 7.21875 5 v 3.3125 c 0.60401,-0.40577 1.11756,-0.95719 1.75,-1.3125 h 0.0312 c 1.09318,-0.60731 2.23655,-1.14004 3.40625,-1.59375 1.16969,-0.45371 2.38902,-0.82371 3.625,-1.125 2.47196,-0.60259 5.04297,-0.90622 7.71875,-0.90625 2.1681,2e-5 4.27444,0.19065 6.28125,0.5625 2.0068,0.37185 3.92117,0.94315 5.71875,1.6875 1.79758,0.74435 3.49083,1.66374 5.03125,2.78125 1.54042,1.11751 2.92092,2.4149 4.15625,3.90625 h 0.0312 c 0.006,0.007 -0.006,0.0246 0,0.0312 1.2338,1.48629 2.29699,3.11385 3.1875,4.875 0.89051,1.76115 1.61705,3.66997 2.1875,5.6875 0.57045,2.01753 0.97638,4.15082 1.25,6.40625 0.27362,2.25543 0.40623,4.61891 0.40625,7.09375 v 40.1875 5 h -5 -10.9375 -5 v -5 -39.84375 c -2e-5,-2.8274 -0.27534,-5.1101 -0.75,-6.9375 -0.47467,-1.8274 -1.14867,-3.19948 -1.875,-4.125 -0.72951,-0.92949 -1.53926,-1.59957 -2.65625,-2.0625 -1.117,-0.46293 -2.54123,-0.71873 -4.46875,-0.71875 -1.21141,10e-6 -2.28133,0.0861 -3.28125,0.25 -0.99992,0.16392 -1.92057,0.41887 -2.75,0.75 -0.82944,0.33113 -1.5813,0.74836 -2.28125,1.25 -0.69996,0.50164 -1.35728,1.07454 -1.96875,1.75 -0.61236,0.67645 -1.15276,1.43207 -1.625,2.25 -0.47224,0.81793 -0.86403,1.70061 -1.1875,2.6875 -0.32348,0.98689 -0.58394,2.06667 -0.75,3.25 -0.16606,1.18333 -0.25001,2.46777 -0.25,3.875 v 37.625 5 h -5 -4.90625 c 17.83036,54.32478 68.89882,93.59375 129.1875,93.59375 60.29671,0 111.41832,-39.24404 129.24219,-93.58008 h -4.01172 -11.25 c -9.06412,0 -16.18864,-1.43165 -20.96875,-6.09375 v -0.0312 h -0.0312 c -4.7681,-4.70922 -6.28126,-11.84265 -6.28125,-20.8125 v -31.15625 h -3.03125 -5 v -5 -8.5 -5 h 5 3.03125 v -13.9375 -5 h 5 11 5 v 5 13.9375 h 17.53125 5 v 5 8.5 5 h -5 -17.53125 v 31.15625 c -2e-5,4.19367 0.93124,6.63172 0.9043,6.96289 0.39125,0.11804 2.11253,0.81837 5.37695,0.81836 h 11.25 5 v 5 9.15625 1.85938 c 3.74617,-12.43716 5.76953,-25.62103 5.76953,-39.2793 0,-75.11073 -60.88927,-136 -136,-136 z m 130.23047,175.2793 c -0.317,1.05242 -0.64664,2.09912 -0.98828,3.14062 h 0.98828 z M 345.99921,498.58366 c 10.49965,7e-5 19.29803,2.8459 25.21875,9.0625 5.92446,6.22082 8.53117,15.22408 8.53125,26.15625 v 38 5 h -5 -10.96875 -5 v -2.9375 c -0.66604,0.42764 -1.3281,0.88346 -2.03125,1.25 l -0.0312,0.0312 c -4.59715,2.34745 -9.95658,3.40625 -15.9375,3.40625 -7.75045,0 -14.65282,-2.3258 -19.71875,-7.09375 h -0.0312 l -0.0312,-0.0312 c -5.00787,-4.80952 -7.53126,-11.53721 -7.53125,-19 -1e-5,-8.60538 3.21438,-16.17222 9.46875,-20.9375 6.29986,-4.76207 14.90981,-6.71871 25.5,-6.71875 h 9.71875 c -0.50365,-1.55089 -1.2665,-2.83606 -2.53125,-3.875 l -0.0312,-0.0312 h -0.0312 c -2.14889,-1.81225 -5.47266,-2.99995 -10.6875,-3 -3.4074,5e-5 -6.70286,0.40914 -9.90625,1.21875 -3.19502,0.80758 -6.24719,2.02901 -9.21875,3.65625 l -7.40625,4.03125 v -8.4375 -10.09375 -3.4375 l 3.1875,-1.25 c 4.21903,-1.62907 8.38054,-2.8405 12.4375,-3.65625 0.0218,-0.004 0.0407,-0.0269 0.0625,-0.0312 v 0.0312 c 4.05724,-0.85001 8.04949,-1.31243 11.96875,-1.3125 z m 74.71875,0 c 10.49965,7e-5 19.29802,2.84589 25.21875,9.0625 5.92445,6.22082 8.49994,15.22407 8.5,26.15625 v 38 5 h -5 -10.9375 -5 v -2.9375 c -0.67037,0.431 -1.32325,0.88093 -2.03125,1.25 h -0.0312 v 0.0312 c -4.59715,2.34745 -9.98784,3.40625 -15.96875,3.40625 -7.75045,0 -14.65282,-2.3258 -19.71875,-7.09375 l -0.0312,-0.0312 c -5.00787,-4.80952 -7.53126,-11.53721 -7.53125,-19 -10e-6,-8.60538 3.18313,-16.17222 9.4375,-20.9375 h 0.0312 c 6.29986,-4.76207 14.9098,-6.71871 25.5,-6.71875 h 9.6875 c -0.50368,-1.55053 -1.2667,-2.83623 -2.53125,-3.875 v -0.0312 h -0.0312 c -2.14891,-1.81226 -5.47265,-2.99995 -10.6875,-3 -3.4074,5e-5 -6.70286,0.40914 -9.90625,1.21875 -3.19502,0.80758 -6.27844,2.02901 -9.25,3.65625 l -7.375,4.03125 v -8.4375 -10.09375 -3.4375 l 3.1875,-1.25 c 4.24172,-1.63782 8.39083,-2.87185 12.46875,-3.6875 v 0.0312 c 4.06779,-0.85426 8.07084,-1.31243 12,-1.3125 z m -67.8125,44.75 c -8.46134,3e-5 -14.0333,1.2574 -15.8125,2.3125 -1.89328,1.12276 -2.68752,2.35062 -2.6875,6.0625 -1e-5,2.77551 0.65035,4.18209 2.125,5.53125 0.0117,0.0107 0.0195,0.0206 0.0312,0.0312 1.51436,1.31444 3.60283,2.09376 7.125,2.09375 4.89027,10e-6 8.02044,-1.41534 10.78125,-4.65625 2.39188,-2.80343 3.77637,-6.48605 4.15625,-11.375 z m 74.71875,0 c -8.46134,3e-5 -14.06455,1.2574 -15.84375,2.3125 -1.89328,1.12276 -2.65627,2.35062 -2.65625,6.0625 -1e-5,2.79749 0.65681,4.20365 2.15625,5.5625 1.51295,1.30452 3.61789,2.09376 7.125,2.09375 4.89027,10e-6 7.98919,-1.41534 10.75,-4.65625 2.39188,-2.80343 3.80762,-6.48605 4.1875,-11.375 z"
       id="path5921"
       inkscape:connector-curvature="0" />
  </g>
</svg>
