<?xml version="1.0" encoding="UTF-8" standalone="no"?>
<svg
   xmlns:dc="http://purl.org/dc/elements/1.1/"
   xmlns:cc="http://creativecommons.org/ns#"
   xmlns:rdf="http://www.w3.org/1999/02/22-rdf-syntax-ns#"
   xmlns:svg="http://www.w3.org/2000/svg"
   xmlns="http://www.w3.org/2000/svg"
   xmlns:sodipodi="http://sodipodi.sourceforge.net/DTD/sodipodi-0.dtd"
   xmlns:inkscape="http://www.inkscape.org/namespaces/inkscape"
   sodipodi:docname="nwo-circle.svg"
   inkscape:version="1.0beta1 (32d4812, 2019-09-19)"
   id="svg8"
   version="1.1"
   viewBox="0 0 57.299999 57.299999"
   height="57.299999mm"
   width="57.299999mm">
  <defs
     id="defs2">
    <inkscape:path-effect
       message="Use fill-rule evenodd on &lt;b&gt;fill and stroke&lt;/b&gt; dialog if no flatten result after convert clip to paths."
       is_inverse="true"
       hide_clip="false"
       flatten="false"
       inverse="true"
       uri="#clipPath1274"
       is_visible="true"
       id="path-effect1278"
       effect="powerclip" />
    <inkscape:path-effect
       message="Use fill-rule evenodd on &lt;b&gt;fill and stroke&lt;/b&gt; dialog if no flatten result after convert clip to paths."
       is_inverse="true"
       hide_clip="false"
       flatten="false"
       inverse="true"
       uri="#clipPath1240"
       is_visible="true"
       id="path-effect1244"
       effect="powerclip" />
    <clipPath
       id="clipPath1240"
       clipPathUnits="userSpaceOnUse">
      <path
         inkscape:connector-curvature="0"
         id="path1242"
         d="m 157.80506,1000061 1.5119,-1.3 2.83482,2.2 1.88988,1 3.59078,1.5 2.45684,0.6 3.02381,0.5 2.45685,-0.4 3.59077,-0.9 1.51191,-0.8 0.75595,2.1 -1.51191,0.8 -2.83482,0.9 -1.88988,0.4 -3.59077,-0.2 -3.2128,-0.6 -2.83482,-0.5 -3.40179,-1.7 -2.83482,-1.9 z"
         style="fill:none;stroke:#000000;stroke-width:0.264583px;stroke-linecap:butt;stroke-linejoin:miter;stroke-opacity:1" />
      <path
         inkscape:connector-curvature="0"
         d="m 157.80506,61.988094 1.5119,-1.322917 2.83482,2.267858 1.88988,0.944941 3.59078,1.511906 2.45684,0.566962 3.02381,0.566965 2.45685,-0.377978 3.59077,-0.944939 1.51191,-0.755951 0.75595,2.078868 -1.51191,0.755952 -2.83482,0.944941 -1.88988,0.377975 -3.59077,-0.188986 -3.2128,-0.566965 -2.83482,-0.566965 -3.40179,-1.700893 -2.83482,-1.889879 z m -5.93068,-35.791822 v 42.3 h 42.3 v -42.3 z"
         style="fill-rule:evenodd"
         id="lpe_path-effect1244" />
    </clipPath>
    <clipPath
       id="clipPath1274"
       clipPathUnits="userSpaceOnUse">
      <path
         inkscape:connector-curvature="0"
         id="path1276"
         d="m -199.19345,1000037.9 -2.26786,-0.9 -1.70089,5.1 0.18899,5.5 1.5119,9.6 2.45685,4.2 2.07887,-1.7 -1.32292,-3.1 -1.5119,-5.1 v -4.7 l -0.18899,-3.6 0.18899,-2.8 z"
         style="fill:none;stroke:#000000;stroke-width:0.264583px;stroke-linecap:butt;stroke-linejoin:miter;stroke-opacity:1" />
      <path
         inkscape:connector-curvature="0"
         d="m -199.19345,38.931548 -2.26786,-0.94494 -1.70089,5.102677 0.18899,5.480656 1.5119,9.638392 2.45685,4.15774 2.07887,-1.700896 -1.32292,-3.023809 -1.5119,-5.102677 v -4.724702 l -0.18899,-3.590774 0.18899,-2.834823 z m -3.48093,-21.235276 h 59.3 v 59.3 h -59.3 z"
         style="fill-rule:evenodd"
         id="lpe_path-effect1278" />
    </clipPath>
  </defs>
  <sodipodi:namedview
     inkscape:guide-bbox="true"
     showguides="true"
     fit-margin-left="0"
     fit-margin-bottom="0"
     fit-margin-right="0"
     fit-margin-top="0"
     inkscape:snap-global="false"
     inkscape:window-maximized="0"
     inkscape:window-y="23"
     inkscape:window-x="158"
     inkscape:window-height="1005"
     inkscape:window-width="1679"
     showgrid="false"
     inkscape:document-rotation="0"
     inkscape:current-layer="g2896"
     inkscape:document-units="mm"
     inkscape:cy="103.28536"
     inkscape:cx="94.842327"
     inkscape:zoom="2.8"
     inkscape:pageshadow="2"
     inkscape:pageopacity="0"
     borderopacity="1.0"
     bordercolor="#666666"
     pagecolor="#646464"
     id="base">
    <sodipodi:guide
       id="guide2898"
       orientation="0,-1"
       position="41.293142,57.433634" />
    <sodipodi:guide
       id="guide2900"
       orientation="1,0"
       position="0,60.908138" />
    <sodipodi:guide
       id="guide2902"
       orientation="1,0"
       position="57.062044,64.583094" />
    <sodipodi:guide
       id="guide2904"
       orientation="0,-1"
       position="61.471991,-0.1629492" />
  </sodipodi:namedview>
  <metadata
     id="metadata5">
    <rdf:RDF>
      <cc:Work
         rdf:about="">
        <dc:format>image/svg+xml</dc:format>
        <dc:type
           rdf:resource="http://purl.org/dc/dcmitype/StillImage" />
        <dc:title></dc:title>
      </cc:Work>
    </rdf:RDF>
  </metadata>
  <g
     inkscape:groupmode="layer"
     id="layer1"
     inkscape:label="white bg"
     style="display:inline"
     transform="translate(-1.0000035,-0.99999951)">
    <path
       style="fill:#ffffff;fill-opacity:1;stroke:none;stroke-width:0.143464"
       d="M 27.588895,1.045052 C 21.930989,1.7879285 16.684104,3.2797274 12.094853,6.8682621 -2.4908506,18.273656 -2.6849572,40.702716 11.807927,52.279634 c 3.001912,2.397991 6.502619,4.066324 10.185898,5.105717 3.594905,1.014574 7.488644,1.255594 11.190142,0.799666 4.272052,-0.526366 8.43335,-2.032158 12.050923,-4.362146 C 61.764739,43.176023 62.404297,18.835601 47.099913,6.8682621 44.269238,4.6548222 40.93271,3.0544599 37.487868,2.0714358 34.385903,1.1862601 30.813809,0.621615 27.588895,1.045052 m 0.860782,1.9885636 c 3.271251,-0.3872226 6.919668,-0.00442 10.042435,1.0106698 4.120987,1.33949 7.84558,3.4348722 10.901065,6.5520436 11.342066,11.570923 8.696029,30.995287 -4.73214,39.639954 -3.325911,2.14105 -7.140173,3.325915 -11.04668,3.78844 -3.02392,0.357941 -6.243526,0.0482 -9.181655,-0.759066 C 19.800127,51.992849 15.54156,49.565451 12.251155,46.031663 3.9550863,37.122013 3.0895723,22.709831 10.599448,13.035091 12.477671,10.615424 14.66094,8.5359229 17.259535,6.8989344 20.653879,4.7606987 24.478468,3.5037016 28.449677,3.0336156 m 22.95414,18.8962034 h -0.14347 c 0.03171,3.838219 -0.128264,7.133858 -2.020106,10.61629 -1.434062,2.639725 -3.587301,4.848053 -6.157306,6.398461 -2.363989,1.426026 -5.241722,2.462551 -8.033949,2.495691 C 28.054144,41.523472 21.420255,37.67779 18.611959,31.111475 14.732011,22.038852 19.935844,9.2809565 30.458164,7.7269465 29.660651,7.3923907 28.430596,7.6803978 27.588895,7.8116289 25.181582,8.1869728 22.881433,8.8948483 20.702654,9.9869347 11.157334,14.771238 6.4208636,26.298848 9.7521683,36.419611 14.800328,51.756419 35.427159,56.924686 46.656611,44.883949 50.894805,40.339604 53.106869,34.156334 52.682073,27.955277 52.538471,25.857986 51.871794,23.952361 51.403817,21.929815 M 32.56234,8.6355395 l 0.09554,0.04783 -0.09554,-0.04783 m 13.96372,9.1338385 h -0.14347 c 0.09569,2.227699 -0.106016,4.29687 -1.192036,6.312388 -0.843708,1.565616 -2.087535,2.895091 -3.542256,3.913537 -6.874613,4.812476 -16.434582,-0.469986 -16.779611,-8.647827 -0.128691,-3.050894 1.317423,-5.938508 3.437526,-8.033405 1.124179,-1.110836 2.481485,-2.0194466 4.016974,-2.4394211 -1.731746,-0.7264131 -4.836294,0.8392038 -6.312387,1.7017461 -5.853306,3.420412 -8.496188,10.887306 -6.107954,17.235417 3.621447,9.625815 16.464429,12.268123 23.604889,4.877182 3.880256,-4.016546 4.670163,-9.753645 3.018325,-14.919617 M 29.45392,13.608944 c 1.111699,-0.455981 2.217656,-0.871538 3.44312,-0.650676 5.968219,1.07566 5.979409,10.22083 -0.286926,10.680201 -1.213126,0.08894 -2.190112,-0.274016 -3.299658,-0.704406 1.550982,3.663192 6.905465,4.858529 10.329363,3.520016 3.317448,-1.296908 5.583736,-4.52799 5.583736,-8.110843 0,-6.503725 -7.29755,-10.6120997 -12.900368,-7.508026 -1.184147,0.656044 -2.279489,1.534342 -2.869267,2.773734 z"
       id="path1585"
       inkscape:connector-curvature="0" />
  </g>
  <g
     transform="translate(-1.0000035,-0.99999951)"
     style="display:none"
     inkscape:label="white bg copy"
     id="g2896"
     inkscape:groupmode="layer">
    <path
       sodipodi:nodetypes="ccccccccccccccccccccccccccccccccccccccccccccccccscc"
       inkscape:connector-curvature="0"
       id="path2894"
       d="M 27.585863,1.4467716 C 22.01406,2.1783429 16.847025,3.647439 12.327615,7.1813621 -2.0361186,18.413184 -2.2272712,40.500911 12.045055,51.901648 c 2.956228,2.361497 6.40366,4.004441 10.030885,5.028017 3.540197,0.999133 7.37468,1.236484 11.019847,0.787496 4.207038,-0.518356 8.305009,-2.001233 11.867527,-4.295762 C 61.241607,42.936579 61.871432,18.966578 46.799956,7.1813621 44.012359,5.0016071 40.726607,3.4255997 37.334189,2.4575355 34.279431,1.5858308 30.761699,1.0297787 27.585863,1.4467716 m 0.847682,1.958301 c 3.221468,-0.3813297 6.814362,-0.00435 9.889606,0.995289 4.058272,1.3191054 7.726182,3.3825992 10.735169,6.4523334 11.169458,11.394831 8.563689,30.523588 -4.660125,39.036699 -3.275296,2.108466 -7.031511,3.2753 -10.878568,3.730785 -2.9779,0.352494 -6.148509,0.04746 -9.041925,-0.747514 C 19.915626,51.619227 15.721868,49.22877 12.481538,45.74876 4.3117217,36.9747 3.4593794,22.781848 10.854967,13.254342 12.704606,10.871499 14.85465,8.8236438 17.413699,7.2115676 20.756387,5.1058725 24.522771,3.8680046 28.433545,3.4050726 M 51.038362,22.013707 h -0.141288 c 0.03123,3.779808 -0.126312,7.025293 -1.989363,10.454728 -1.412238,2.599552 -3.532708,4.774274 -6.063602,6.301087 -2.328013,1.404324 -5.161951,2.425074 -7.911685,2.457711 C 28.044031,41.309177 21.5111,37.522021 18.745541,31.055633 14.924639,22.12108 20.049279,9.5573393 30.411466,8.0269788 29.62609,7.6975143 28.414755,7.9811385 27.585863,8.1103725 25.215185,8.4800042 22.950041,9.177107 20.804419,10.252574 11.404363,14.964068 6.739974,26.316247 10.020582,36.282988 14.991916,51.386395 35.304841,56.47601 46.363399,44.618513 50.537095,40.143325 52.715496,34.054155 52.297163,27.947467 52.155748,25.882094 51.499217,24.005469 51.038362,22.013703 M 46.234835,17.91658 h -0.141286 c 0.09423,2.193798 -0.104402,4.23148 -1.173895,6.216325 -0.830868,1.541789 -2.055767,2.851032 -3.488349,3.85398 -6.769993,4.739238 -16.184475,-0.462835 -16.524254,-8.516222 -0.126732,-3.004464 1.297375,-5.848134 3.385214,-7.911149 1.107071,-1.093932 2.44372,-1.9887148 3.955841,-2.4022979 -1.705391,-0.7153583 -4.762692,0.8264324 -6.216323,1.6758489 -5.764228,3.368358 -8.36689,10.721618 -6.015,16.973122 3.566334,9.479325 16.213867,12.081421 23.245661,4.802959 3.821205,-3.95542 4.599091,-9.605211 2.972391,-14.692566 m -16.81233,-4.097117 c 1.094781,-0.449043 2.183907,-0.858276 3.390721,-0.640774 5.877394,1.05929 5.888413,10.065285 -0.282558,10.517666 -1.194665,0.08759 -2.156783,-0.269847 -3.249443,-0.693688 1.527378,3.607446 6.800374,4.784592 10.172167,3.466448 3.266961,-1.277171 5.49876,-4.459082 5.49876,-7.987409 0,-6.404749 -7.186492,-10.4506012 -12.704046,-7.393766 -1.166126,0.64606 -2.244798,1.510991 -2.825601,2.731523 z"
       style="fill:none;fill-opacity:1;stroke:#ffffff;stroke-width:0.590869;stroke-linecap:round;stroke-linejoin:round;stroke-miterlimit:4;stroke-dasharray:none;stroke-opacity:1" />
  </g>
</svg>
