<?xml version="1.0" encoding="UTF-8" standalone="no"?>
<svg
   xmlns:dc="http://purl.org/dc/elements/1.1/"
   xmlns:cc="http://creativecommons.org/ns#"
   xmlns:rdf="http://www.w3.org/1999/02/22-rdf-syntax-ns#"
   xmlns:svg="http://www.w3.org/2000/svg"
   xmlns="http://www.w3.org/2000/svg"
   xmlns:sodipodi="http://sodipodi.sourceforge.net/DTD/sodipodi-0.dtd"
   xmlns:inkscape="http://www.inkscape.org/namespaces/inkscape"
   viewBox="0 0 147.56102 188.06216"
   height="188.06216"
   width="147.56102"
   xml:space="preserve"
   version="1.1"
   id="svg5026"
   sodipodi:docname="nwo.svg"
   inkscape:version="1.0beta1 (32d4812, 2019-09-19)">
  <sodipodi:namedview
   pagecolor="#000000"
   bordercolor="#666666"
   inkscape:document-rotation="0"
   borderopacity="1"
   objecttolerance="10"
   gridtolerance="10"
   guidetolerance="10"
   inkscape:pageopacity="0"
   inkscape:pageshadow="2"
   inkscape:window-width="1678"
   inkscape:window-height="907"
   id="namedview890"
   showgrid="false"
   inkscape:zoom="3.0187024"
   inkscape:cx="49.170794"
   inkscape:cy="73.196917"
   inkscape:window-x="-133"
   inkscape:window-y="23"
   inkscape:window-maximized="0"
   inkscape:current-layer="layer4" />

  <metadata
   id="metadata5032">
    <rdf:RDF>
      <cc:Work
   rdf:about="">
        <dc:format>image/svg+xml</dc:format>

        <dc:type
   rdf:resource="http://purl.org/dc/dcmitype/StillImage" />

        <dc:title></dc:title>

      </cc:Work>

    </rdf:RDF>

  </metadata>

  <defs
   id="defs5030"><inkscape:path-effect
   message="Use fill-rule evenodd on &lt;b&gt;fill and stroke&lt;/b&gt; dialog if no flatten result after convert clip to paths."
   is_inverse="true"
   hide_clip="false"
   flatten="false"
   inverse="true"
   uri="#clipPath1065"
   is_visible="true"
   id="path-effect1069"
   effect="powerclip" />

    <clipPath
   id="clipPath5040"
   clipPathUnits="userSpaceOnUse">
      <path
   id="path5042"
   d="m 0,57.354 566.929,0 0,639.968 L 0,697.322 0,57.354 Z" />

    </clipPath>

    <clipPath
   id="clipPath5054"
   clipPathUnits="userSpaceOnUse">
      <path
   id="path5056"
   d="m 0,0 566.929,0 0,765.354 L 0,765.354 0,0 Z" />

    </clipPath>

    <clipPath
   id="clipPath5062"
   clipPathUnits="userSpaceOnUse">
      <path
   id="path5064"
   d="m -15.1732,698.323 597.2752,0 0,-199.008 -597.2752,0 0,199.008 z" />

    </clipPath>

    <clipPath
   id="clipPath5066"
   clipPathUnits="userSpaceOnUse">
      <path
   id="path5068"
   d="m -14.173,500.315 595.276,0 0,197.008 -595.276,0 0,-197.008 z" />

    </clipPath>

    <linearGradient
   id="linearGradient5070"
   spreadMethod="pad"
   gradientTransform="matrix(0,197.00787,197.00787,0,-14.173233,500.31496)"
   gradientUnits="userSpaceOnUse"
   y2="0"
   x2="1"
   y1="0"
   x1="0">
      <stop
   id="stop5072"
   offset="0"
   style="stop-opacity:1;stop-color:#ffffff" />

      <stop
   id="stop5074"
   offset="1"
   style="stop-opacity:1;stop-color:#000000" />

    </linearGradient>

    <clipPath
   id="clipPath5094"
   clipPathUnits="userSpaceOnUse">
      <path
   id="path5096"
   d="m -32440.6,32721.6 65207.6,0 0,-65489.6 -65207.6,0 0,65489.6 z" />

    </clipPath>

    <linearGradient
   id="linearGradient5098"
   spreadMethod="pad"
   gradientTransform="matrix(498.41318,0,0,-498.41318,33.515961,-8.6693115)"
   gradientUnits="userSpaceOnUse"
   y2="0"
   x2="1"
   y1="0"
   x1="0">
      <stop
   id="stop5100"
   offset="0"
   style="stop-opacity:1;stop-color:#ffffff" />

      <stop
   id="stop5102"
   offset="1"
   style="stop-opacity:0;stop-color:#ffffff" />

    </linearGradient>

    <mask
   id="mask5104"
   height="1"
   width="1"
   y="0"
   x="0"
   maskUnits="userSpaceOnUse">
      <g
   id="g5106">
        <g
   id="g5108"
   clip-path="url(#clipPath5094)">
          <g
   id="g5110">
            <g
   id="g5112">
              <path
   id="path5114"
   style="fill:url(#linearGradient5098);stroke:none"
   d="m -32440.6,32721.6 65207.6,0 0,-65489.6 -65207.6,0 0,65489.6 z" />

            </g>

          </g>

        </g>

      </g>

    </mask>

    <clipPath
   id="clipPath5120"
   clipPathUnits="userSpaceOnUse">
      <path
   id="path5122"
   d="m 33.516,44.3543 498.413,0 0,-53.02361 -498.413,0 0,53.02361 z" />

    </clipPath>

    <clipPath
   id="clipPath5140"
   clipPathUnits="userSpaceOnUse">
      <path
   id="path5142"
   d="m 0,0 566.929,0 0,765.354 L 0,765.354 0,0 Z" />

    </clipPath>

    <clipPath
   id="clipPath5152"
   clipPathUnits="userSpaceOnUse">
      <path
   id="path5154"
   d="m 0,708.662 566.929,0 0,56.693 -566.929,0 0,-56.693 z" />

    </clipPath>

  </defs>

  
  
  
  
  
  
  
  
  
  
  
  
  
  
  
  
  
  
  
  
  
  
  
  
<g
   style="display:none"
   inkscape:label="nwo"
   id="layer1"
   inkscape:groupmode="layer">
  <path
     style="fill:#000000;stroke-width:0.197029"
     d="m 69.56424,1000124.7 c 0.008,-29.5 0.0882,-52.4 0.18318,-52.2 0.14788,0.3 0.17109,0.3 0.18318,-0.2 0.0105,-0.4 0.34514,0.1 1.37094,2.2 8.56491,17.2 24.40092,29.6 43.26762,33.8 5.15427,1.2 7.21778,1.4 13.40048,1.4 4.51821,0 6.20861,0 8.07821,-0.3 7.4536,-1.1 13.03926,-2.9 19.70295,-6.2 7.19672,-3.5 12.0378,-7 17.7401,-12.9 4.32937,-4.5 7.66508,-9.1 10.66408,-14.9 0.95407,-1.8 1.43988,-2.5 1.44464,-2.2 0.006,0.4 0.0466,0.4 0.19818,0.2 0.12363,-0.2 0.18717,13.9 0.18016,40 -0.006,22.6 -0.085,40.1 -0.18016,39.9 -0.14612,-0.4 -0.17124,-0.3 -0.18318,0.2 -0.0118,0.5 -0.11988,0.3 -0.71285,-0.9 -2.22603,-4.7 -6.45379,-8 -11.63958,-9.3 -2.2198,-0.6 -5.80878,-0.6 -7.82992,-0.1 -7.11443,1.7 -12.17902,7.1 -13.5397,14.3 -0.33424,1.7 -0.12666,5.6 0.39789,7.5 1.43321,4.9 4.52535,8.7 9.02446,11 1.16377,0.5 1.55418,0.8 1.22462,0.8 -0.38468,0 -0.42325,0.1 -0.18825,0.2 0.19307,0.1 -3.0047,0.2 -9.22276,0.2 -6.29612,0 -9.47708,-0.1 -9.39653,-0.2 0.067,-0.1 -0.006,-0.2 -0.16123,-0.2 -0.21535,0 0.6989,-3.9 3.8247,-16.4 2.25923,-9 4.11029,-16.4 4.11345,-16.4 0.003,-0.1 -1.56926,-0.1 -3.49426,-0.1 h -3.5 l -2.26749,10 c -2.22059,9.8 -2.27759,10 -2.75569,10.1 -0.48016,0 -0.53819,-0.1 -3.53042,-10 l -3.04223,-10.1 h -2.61603 -2.61604 l -0.49708,1.6 c -0.2734,0.9 -1.63549,5.4 -3.02688,9.9 -2.40584,7.9 -2.55377,8.3 -3.01911,8.4 h -0.48932 l -2.25325,-9.9 -2.25325,-10 h -3.57162 -3.57161 l 4.09692,16.4 c 3.43145,13.7 4.05389,16.4 3.83198,16.7 -0.40075,0.4 -10.44627,0.3 -10.84825,-0.1 -0.23942,-0.2 -0.28147,-2.7 -0.28147,-16.6 v -16.4 h -3.15247 -3.15247 v 9.8 9.7 h -0.53835 c -0.45866,-0.1 -1.59763,-1.5 -7.6947,-9.7 l -7.15634,-9.7 h -2.55084 l -2.55084,-0.1 v 16.4 c 0,13.9 -0.042,16.4 -0.28147,16.6 -0.22732,0.3 -1.13714,0.3 -4.72871,0.3 h -4.44724 z m 16.19183,52.2 c -0.19003,-0.2 -0.24629,-2.5 -0.24629,-10.1 v -9.9 l 0.53603,0.1 c 0.45602,0 1.61849,1.5 7.78779,9.8 6.34535,8.6 7.21594,9.9 6.96517,10.1 -0.42168,0.4 -14.67106,0.4 -15.0427,0 z m 37.87892,0.1 c 0.067,-0.1 -0.008,-0.2 -0.16756,-0.2 -0.3358,0 -0.3335,0 3.60621,-11.9 2.56637,-7.8 2.62103,-8 3.13439,-8 0.51456,0 0.57228,0.2 3.81252,9.9 2.80079,8.4 3.24951,9.9 3.01754,10.1 -0.22117,0.3 -1.52056,0.3 -6.89868,0.3 -4.36729,0 -6.58468,-0.1 -6.50442,-0.2 z m 52.21282,0 c 0.34175,-0.1 0.3175,-0.2 -0.18273,-0.2 -0.46962,0 -0.24998,-0.1 1.18218,-0.8 3.65782,-1.8 6.6024,-4.8 8.27208,-8.5 0.36374,-0.8 0.4617,-0.9 0.47309,-0.5 0.0114,0.4 0.0534,0.4 0.20537,0.2 0.126,-0.2 0.19202,1.4 0.19401,4.8 l 0.003,5.2 h -5.27054 c -3.12642,0 -5.11023,-0.1 -4.87648,-0.2 z m -10.34405,-5.9 c -3.15411,-1.1 -5.41621,-3.3 -6.52307,-6.4 -0.53395,-1.5 -0.75253,-5.8 -0.37862,-7.6 0.79967,-3.6 3.62172,-6.6 7.1713,-7.6 1.38949,-0.4 5.25169,-0.3 6.71805,0 3.50645,1 6.43261,4 7.2896,7.6 0.1634,0.7 0.2971,2.2 0.2971,3.3 0,3.6 -1.02962,6.2 -3.22847,8.3 -2.29112,2.1 -4.16588,2.8 -7.7915,2.8 -1.82546,0 -2.52618,-0.1 -3.55439,-0.4 z m -44.92273,-66.7 c -18.07513,-2.2 -33.26213,-12.4 -42.05743,-28 -3.38045,-6.1 -5.84316,-13.8 -6.6398,-20.9 -0.31631,-2.8 -0.31441,-9.8 0.003,-12.6 0.94745,-8.2 3.76033,-16.4 8.02802,-23.3 3.99912,-6.5 10.44258,-13 16.92375,-17.2 8.41965,-5.36 18.08485,-8.36 28.4215,-8.76 l 3.59579,-0.1 v 0.5 c 0,0.4 -0.11884,0.6 -0.54183,0.7 -3.48129,0.8 -6.5239,1.8 -9.13079,2.9 -13.65459,6.06 -23.03785,18.86 -24.91949,33.96 -1.25258,10 1.90496,21.2 8.41437,29.8 1.61704,2.1 5.15649,5.8 7.26291,7.4 6.08104,4.9 13.81232,8.1 21.66808,9.1 2.14302,0.3 6.92566,0.3 9.07369,0 5.89191,-0.7 11.95528,-2.8 17.07038,-5.9 5.83374,-3.5 11.16122,-8.9 14.57741,-14.7 3.11947,-5.3 5.14595,-11.6 5.77391,-17.8 0.3494,-3.4 0.28079,-4.9 -0.50313,-11 -0.1319,-1 -0.12566,-1 0.37898,-1 0.64199,0 0.67215,0 1.89563,3.6 3.39611,10.1 3.85385,21.2 1.29758,31.6 -5.43114,22 -23.16521,38.1 -45.85443,41.5 -2.88969,0.5 -11.74064,0.6 -14.73851,0.2 z m 9.16188,-36.3 c -6.999,-0.8 -12.98464,-3.1 -18.20156,-7 -2.36084,-1.8 -5.80753,-5.4 -7.5614,-7.8 -1.64294,-2.3 -3.85669,-6.7 -4.76336,-9.5 -2.18467,-6.6 -2.36968,-14.6 -0.49768,-21.4 0.99693,-3.7 2.67931,-7.4 4.70525,-10.4 6.00955,-8.9 15.59431,-14.56 26.37227,-15.66 1.16259,-0.1 2.57928,-0.2 3.14821,-0.2 0.97547,0 1.0344,0.1 1.0344,0.5 0,0.3 -0.11083,0.6 -0.24629,0.6 -5.1223,1.5 -8.66765,3.36 -12.09682,6.66 -3.90958,3.7 -6.22776,7.7 -7.59635,12.9 -0.78338,3 -0.96362,6.9 -0.46473,9.9 2.11514,12.9 13.26311,22.4 26.13385,22.4 11.11273,0 21.36012,-7.5 24.90718,-18.4 1.0273,-3.1 1.35814,-5.5 1.20532,-8.8 -0.071,-1.6 -0.18146,-3.2 -0.24543,-3.7 -0.11519,-0.8 -0.11089,-0.8 0.44767,-0.7 0.51448,0 0.62125,0.2 1.2165,1.8 0.87347,2.3 1.54539,4.9 1.90543,7.3 0.39219,2.6 0.39319,8.6 0.002,11.2 -1.12783,7.5 -4.38164,14.1 -9.55437,19.5 -5.7923,6 -13.23518,9.7 -21.66807,10.7 -1.53318,0.2 -6.78536,0.3 -8.18189,0.1 z m 7.88118,-25.2 c -4.43641,-0.8 -8.40804,-2.9 -11.50017,-5.9 -2.78826,-2.8 -4.37802,-5.6 -3.16126,-5.6 0.22624,0 1.2237,0.4 2.21658,0.9 3.73413,1.8 7.12956,1.9 10.66593,0.2 3.51145,-1.7 5.92764,-4.4 7.13801,-8.1 1.01811,-3.1 0.59128,-6.6 -1.16883,-9.7 -0.82203,-1.5 -2.84937,-3.6 -4.34331,-4.5 -2.52981,-1.7 -5.73114,-2.5 -8.28345,-2 -1.54517,0.2 -3.57511,0.9 -4.57141,1.5 -0.3485,0.3 -0.867,0.4 -1.15222,0.4 -1.37089,0 0.068,-2.4 3.2052,-5.3 4.11148,-3.9 8.93757,-5.66 14.99403,-5.76 4.3305,0 7.29783,0.7 10.85109,2.56 5.38888,2.8 9.0956,7.6 10.87811,14 0.35436,1.3 0.41189,2.1 0.41253,5.5 5.9e-4,3.6 -0.0386,4.1 -0.51944,5.8 -1.05097,3.9 -3.1383,7.5 -5.93388,10.2 -2.82221,2.7 -6.04933,4.5 -9.72288,5.5 -2.46132,0.6 -7.48249,0.8 -10.00463,0.3 z m -67.68085,-22.1 c -0.004,-0.4 -0.0444,-0.5 -0.19582,-0.2 -0.12417,0.2 -0.19205,-5.4 -0.19401,-15.8 l -0.003,-16.06 h 15.81162 c 9.00515,0 15.64199,0.1 15.41756,0.2 -0.35,0.1 -0.33388,0.1 0.14419,0.1 0.4089,0 0.006,0.3 -1.67475,1.2 -12.44197,6.5 -22.26864,16.46 -28.22574,28.76 -0.69858,1.5 -1.07691,2.1 -1.08005,1.8 z m 115.31579,-1 c -0.87442,-2.5 -5.07507,-9.2 -8.05824,-12.9 -2.20858,-2.8 -6.8398,-7.36 -9.62822,-9.66 -3.45735,-2.7 -8.74511,-6.1 -12.14587,-7.7 -0.96844,-0.4 -1.00655,-0.4 -0.46402,-0.5 0.50902,0 0.53638,0 0.19703,-0.1 -0.22449,-0.1 6.32526,-0.2 15.22053,-0.2 h 15.61459 l -0.0139,15.66 c -0.008,8.6 -0.0858,15.5 -0.17371,15.3 -0.1409,-0.4 -0.16848,-0.3 -0.23244,0.2 l -0.0726,0.6 -0.24323,-0.7 z"
     id="path1067"
     inkscape:connector-curvature="0" />
  <path
     inkscape:connector-curvature="0"
     d="M 15.391306,0 V 187.87993 H 132.16971 V 0 Z m 0.985944,0.98594308 15.588299,0.0154102 c 6.359443,0.00563 11.405791,0.046409 13.741582,0.1039854 L 48.34915,1.0745277 46.89527,1.8197625 C 46.60486,1.9965953 46.299911,2.1775945 45.658988,2.5110785 33.391915,8.8920657 23.702566,18.790465 17.829204,30.943599 c -0.469792,0.925464 -0.958927,1.827347 -1.423069,2.755633 l 0.04621,-4.011171 c -0.04509,-2.538306 -0.07203,-6.709608 -0.07319,-12.821111 z m 114.80846,0 V 16.479884 c -0.008,8.171978 -0.0918,14.590911 -0.17524,14.927797 l 0.0173,1.663779 -2.17022,-4.592724 h 0.006 c -1.6999,-2.996296 -4.3037,-6.958479 -6.34895,-9.522439 -2.17753,-2.729792 -6.74432,-7.29779 -9.49354,-9.4974053 -2.69795,-2.1585866 -6.5139,-4.6673696 -9.65531,-6.3990021 L 101.67304,2.1740813 C 101.46479,2.071227 101.24345,1.9554074 101.0472,1.8640484 100.50669,1.612434 100.26732,1.4923936 100.25191,1.4307726 l -0.700957,-0.3678027 3.013677,0.036588 c 2.41976,-0.054099 7.18478,-0.092846 13.22551,-0.09821 z M 74.848298,5.7827872 v 0.5122284 c 0,0.400047 -0.116367,0.5386171 -0.53341,0.6335454 C 70.882534,7.709847 67.882625,8.6765464 65.312379,9.8286203 51.84973,15.863049 42.597944,28.476387 40.742754,43.327578 c -1.234974,9.88621 1.877878,20.912867 8.295787,29.383801 1.594309,2.104318 5.084756,5.680264 7.161567,7.336804 5.995559,4.782264 13.618051,7.968384 21.363385,8.929332 2.112893,0.262147 6.828828,0.261766 8.946663,0 5.809088,-0.71807 11.787145,-2.792396 16.830354,-5.838631 5.75174,-3.474215 11.00311,-8.771501 14.37127,-14.494519 3.07563,-5.225915 5.07507,-11.370803 5.6942,-17.510119 0.3445,-3.416021 0.27609,-4.897649 -0.4968,-10.858855 -0.13008,-1.003071 -0.12397,-1.018679 0.37357,-1.018679 0.63297,0 0.66356,0.05703 1.86983,3.622185 3.34838,9.896117 3.79899,20.861943 1.27864,31.086093 -5.35479,21.722553 -22.84059,37.56886 -45.210879,40.9744 -2.848569,0.43367 -11.571942,0.53841 -14.529181,0.17332 h -0.002 C 48.869158,112.91044 33.895134,102.9212 25.223778,87.450459 21.890846,81.504106 19.463866,73.895839 18.678425,66.93822 18.366561,64.175562 18.367263,57.243763 18.680429,54.506094 19.614562,46.3451 22.387235,38.273153 26.594934,31.469302 30.53784,25.093623 36.890801,18.647066 43.280865,14.536884 51.582162,9.197364 61.111868,6.2618361 71.303218,5.9060301 Z m 4.032353,2.5861751 c 0.961758,-1.528e-4 1.01868,0.027315 1.01868,0.4910459 0,0.27046 -0.109079,0.5228105 -0.242635,0.5603699 -5.050296,1.4203369 -8.544709,3.3497199 -11.925675,6.5819409 -3.854623,3.685052 -6.141505,7.579545 -7.490857,12.763342 -0.772368,2.967183 -0.950186,6.74395 -0.45831,9.736188 2.085408,12.686309 13.077575,22.122099 25.767393,22.122099 10.95652,0 21.058953,-7.464777 24.556143,-18.14559 1.01286,-3.093381 1.33881,-5.491941 1.18813,-8.736766 -0.07,-1.507903 -0.17763,-3.119407 -0.24071,-3.581746 -0.11356,-0.832545 -0.10972,-0.840936 0.44099,-0.777971 0.50725,0.058 0.61282,0.214961 1.1997,1.790873 0.86118,2.312538 1.52254,4.856343 1.87752,7.211635 0.38668,2.565515 0.3875,8.495472 0.002,11.055272 -1.11198,7.377621 -4.31845,13.922982 -9.41846,19.218189 -5.710844,5.929452 -13.049031,9.571619 -21.36338,10.604665 -1.511629,0.187817 -6.69166,0.238563 -8.068559,0.07896 C 68.821986,78.541513 62.920867,76.251832 57.777282,72.376318 55.449628,70.622514 52.052227,67.122597 50.323011,64.69867 48.703166,62.428084 46.520227,58.097746 45.626301,55.380354 43.472293,48.832639 43.289534,40.967804 45.135205,34.224936 46.118123,30.634075 47.776685,26.980982 49.774147,24.00733 55.699221,15.186579 65.150007,9.5750043 75.776472,8.5673064 76.922716,8.458608 78.319718,8.3690511 78.880651,8.3689623 Z m 8.596191,2.8519177 c 4.269626,-0.01701 7.193786,0.671633 10.697098,2.518776 5.31313,2.801382 8.96853,7.522755 10.72599,13.855198 0.34937,1.258912 0.40567,2.004214 0.40631,5.347585 5.8e-4,3.591334 -0.0381,4.029028 -0.51223,5.784713 -1.0362,3.837495 -3.09392,7.355795 -5.85018,10.001931 -2.78254,2.671353 -5.964079,4.471206 -9.585991,5.420762 -2.42672,0.636213 -7.376593,0.809721 -9.863283,0.346621 -4.374046,-0.814586 -8.291607,-2.839712 -11.340271,-5.865591 -2.749066,-2.72852 -4.31539,-5.490086 -3.115734,-5.490086 0.22306,0 1.206712,0.394959 2.185635,0.878105 3.68164,1.817056 7.029426,1.887221 10.516085,0.219525 3.462091,-1.655939 5.843043,-4.361482 7.036399,-7.993455 1.003798,-3.055065 0.583818,-6.558644 -1.151551,-9.595614 -0.810474,-1.418361 -2.80975,-3.500698 -4.28269,-4.459853 -2.494248,-1.624206 -5.650334,-2.381756 -8.166768,-1.962259 -1.523448,0.253966 -3.523773,0.941148 -4.506067,1.548239 -0.343601,0.212358 -0.854935,0.385135 -1.136146,0.385135 -1.351619,0 0.06693,-2.369925 3.160025,-5.280188 4.053686,-3.814075 8.812044,-5.635746 14.783369,-5.659544 z m -70.955168,71.182398 2.170231,4.353939 c 8.568502,16.404653 23.889796,28.171613 42.070116,32.239573 5.081817,1.13709 7.118158,1.34523 13.213949,1.3518 4.454698,0.005 6.121252,-0.0683 7.964571,-0.34469 7.348827,-1.10172 12.854248,-2.81796 19.424229,-6.05623 7.09555,-3.49729 11.86873,-6.9768 17.49087,-12.75178 4.03821,-4.147994 7.1959,-8.481149 10.02888,-13.739653 0.16158,-0.299897 0.32574,-0.591232 0.48528,-0.897363 0.0672,-0.128993 0.0897,-0.155228 0.15213,-0.273445 l 1.53282,-2.817255 -0.027,2.120162 c 0.1001,2.530907 0.16408,15.436154 0.15792,38.365124 0.1889,13.53987 0,40.9667 0,40.9667 0,0 -0.85766,-1.86667 -1.07838,-2.30117 -2.19474,-4.57963 -6.36411,-7.91042 -11.477,-9.17003 -2.1886,-0.53918 -5.72728,-0.58367 -7.72001,-0.0963 -7.01442,1.71599 -12.007189,6.98012 -13.348742,14.07086 -0.329542,1.74178 -0.124341,5.59845 0.392836,7.39265 1.413064,4.90212 4.460736,8.6172 8.896606,10.84346 0.0479,0.0241 0.0507,0.031 0.0963,0.0539 l 2.332,1.09185 h -2.59581 c -1.37825,0.0525 -3.94792,0.0836 -7.902944,0.0848 -3.213398,0.0141 -9.601393,-0.0636 -9.601391,-0.0636 0,0 2.828038,-12.01277 3.949549,-16.49336 2.227472,-8.89468 4.052345,-16.19512 4.055462,-16.22184 0.003,-0.0268 -1.547092,-0.0481 -3.445024,-0.0481 h -3.450761 l -2.235705,9.85944 c -2.189375,9.65475 -2.245741,9.85881 -2.717119,9.91334 -0.473411,0.0547 -0.531443,-0.10609 -3.481612,-9.8575 l -3.000284,-9.91531 h -2.578472 -2.578473 l -0.491045,1.60215 c -0.269556,0.88145 -1.612957,5.27576 -2.984788,9.76316 -2.372022,7.75913 -2.516362,8.16169 -2.97516,8.21683 l -0.483345,0.0577 -2.222222,-9.81899 -2.220298,-9.81707 -3.522051,-0.002 h -3.522051 l 4.040056,16.15252 c 1.736576,6.94474 2.726754,10.97111 3.265937,13.32949 l 0.847294,3.36222 h -5.08762 c -0.402652,0.002 -0.740454,-0.0148 -1.141922,-0.0173 H 52.18311 C 52.1568,180.78192 52.12182,174.72562 52.1215,170.20217 v -16.13711 h -3.108031 -3.109958 v 9.62834 9.62836 l -0.529558,-0.0616 c -0.452214,-0.0523 -1.575779,-1.47045 -7.587141,-9.58022 l -7.055655,-9.51859 -2.514927,-0.0539 -2.514924,-0.0538 v 16.14289 c -0.01476,5.67074 -0.03659,16.73214 -0.03659,16.73214 l -9.287506,-0.002 0.01347,-51.85253 c 0.0073,-26.75235 0.0761,-47.134089 0.15983,-50.19452 z m 98.008916,76.911262 c 1.30393,0.006 2.61815,0.10443 3.34102,0.29271 3.45717,0.90047 6.34166,3.90828 7.1866,7.49278 0.16111,0.68344 0.29272,2.11664 0.29272,3.18505 0,3.56914 -1.0152,6.18605 -3.18315,8.20721 -2.25891,2.10598 -4.10683,2.77134 -7.68149,2.76334 -1.7998,-0.004 -2.49096,-0.0902 -3.50472,-0.43713 -3.10978,-1.06412 -5.34044,-3.23543 -6.43174,-6.26035 -0.52644,-1.45924 -0.74237,-5.7683 -0.37357,-7.4639 0.78841,-3.62625 3.57136,-6.58404 7.07105,-7.5159 0.68498,-0.18239 1.97933,-0.26926 3.28328,-0.26381 z m -82.418691,7.54478 0.527635,0.0616 c 0.449609,0.0522 1.596993,1.50491 7.679573,9.73427 2.539511,3.35992 4.948359,6.80827 7.361836,10.25419 -5.3726,0.002 -10.253825,-0.038 -15.540159,-0.0115 l 0.002,-5.19353 0.0039,0.004 c -0.01484,-1.45444 -0.03467,-2.63344 -0.03467,-5.11458 z m 44.070888,0.025 c 0.507327,0 0.564216,0.14786 3.75891,9.73619 1.165244,3.39582 3.238976,10.25997 3.238976,10.25997 0,0 -5.160252,0.0128 -7.06721,0.0135 -2.326017,0 -3.977493,-0.0217 -5.04333,-0.0596 h -1.92567 l 0.518006,-1.55787 c 0.397603,-1.36141 1.345976,-4.24558 3.429618,-10.57194 2.530294,-7.68262 2.584556,-7.82014 3.0907,-7.82014 z m 55.002923,8.42096 c 0,0 -0.006,3.12542 -0.004,6.48951 l 0.002,5.09917 -5.19545,-0.0135 c -1.54125,-0.004 -2.80174,-0.0242 -3.64721,-0.0557 h -2.57078 l 1.72348,-0.80878 c 0.2149,-0.1147 0.3032,-0.17793 0.67206,-0.35818 3.60639,-1.76215 6.37556,-4.80126 8.1552,-8.35741 0.2935,-0.58646 0.61605,-1.18302 0.86464,-1.99498 z"
     style="fill:#ffffff;fill-opacity:1;fill-rule:evenodd;stroke-width:0.985944"
     id="lpe_path-effect1069" />
</g>
<g
   style="display:inline"
   inkscape:label="nwo 1"
   id="layer3"
   inkscape:groupmode="layer">
  <rect
     style="display:inline;fill:none;fill-opacity:1;stroke:#ffffff;stroke-width:0.743345;stroke-miterlimit:4;stroke-dasharray:none;stroke-opacity:1"
     id="rect1227"
     width="115.35442"
     height="187.85715"
     x="16.103298"
     y="0.10250854" />
  <path
     id="rect1059"
     clip-path="none"
     style="display:inline;fill:#ffffff;fill-opacity:1;stroke-width:2.48089"
     d="m 47.029549,0.18440315 c 0.0116,3.26e-4 0.007,0.0016 0.0195,0.002 0.4089,0.01052 0.007,0.289547 -1.67383,1.16406305 -12.44196,6.471978 -22.26946,16.5134338 -28.22656,28.8398438 -0.49116,1.016312 -0.8133,1.591557 -0.96875,1.748047 v 51.460942 c 0.16789,0.14392 0.5316,0.79964 1.2461,2.23828 8.56491,17.245461 24.40087,29.639791 43.26757,33.861321 5.154265,1.1533 7.219645,1.36442 13.402345,1.3711 4.51821,0.005 6.20852,-0.0693 8.07812,-0.34961 7.453604,-1.11744 13.037486,-2.85815 19.701176,-6.14258 7.19672,-3.54716 12.03794,-7.07823 17.74024,-12.93555 4.32937,-4.447071 7.66506,-9.088851 10.66406,-14.843741 0.49746,-0.9546 0.86052,-1.60402 1.10156,-1.97461 v -53.71099 c -0.88075,-2.438687 -5.07479,-9.145198 -8.05469,-12.880859 -2.20858,-2.76871 -6.84048,-7.403789 -9.6289,-9.6347658 -3.45735,-2.766179 -8.74377,-6.119998 -12.14453,-7.70312505 -0.96844,-0.45083 -1.00738,-0.491382 -0.46485,-0.50586 0.0227,-6.06e-4 0.0163,-0.0032 0.0371,-0.0039 z M 74.980714,4.6707312 v 0.519531 c 0,0.405751 -0.11802,0.546297 -0.54101,0.642579 -3.48129,0.792425 -6.52397,1.772907 -9.13086,2.941406 C 51.654259,14.894711 42.270569,27.68788 40.388929,42.75081 c -1.25258,10.02716 1.90465,21.211027 8.41406,29.802734 1.61704,2.13432 5.15725,5.759296 7.26367,7.439453 6.081035,4.850442 13.812205,8.081982 21.667965,9.056642 2.14302,0.26588 6.92619,0.26745 9.07422,0.002 5.891909,-0.72831 11.955212,-2.83221 17.070316,-5.92187 5.83374,-3.523748 11.15998,-8.896562 14.57617,-14.701175 3.11947,-5.300422 5.14743,-11.532919 5.77539,-17.759766 0.3494,-3.464724 0.28001,-4.967474 -0.5039,-11.013672 -0.13191,-1.017372 -0.12574,-1.035156 0.3789,-1.035156 0.64199,0 0.67301,0.05981 1.89649,3.675782 3.39611,10.037207 3.85314,21.159376 1.29687,31.529296 -5.43114,22.032261 -23.16625,38.104502 -45.855476,41.558592 -2.88918,0.43984 -11.73692,0.54399 -14.73632,0.17383 h -0.002 C 48.631009,113.32378 33.443639,103.19412 24.648649,87.502809 c -3.38045,-6.03113 -5.84203,-13.747868 -6.63867,-20.804684 -0.31631,-2.802047 -0.31546,-9.834627 0.002,-12.611328 0.94745,-8.277347 3.75966,-16.462426 8.02735,-23.363281 3.99912,-6.466579 10.44266,-13.006999 16.92383,-17.175781 8.41965,-5.4156478 18.08522,-8.3910748 28.421865,-8.7519538 z m 4.08985,2.623047 c 0.97547,-1.55e-4 1.0332,0.0277 1.0332,0.498047 0,0.274316 -0.11063,0.530264 -0.24609,0.568359 -5.1223,1.440586 -8.66654,3.3974788 -12.09571,6.6757818 -3.90958,3.737592 -6.22906,7.687608 -7.597645,12.945312 -0.78338,3.009486 -0.96374,6.838147 -0.46485,9.873047 2.115135,12.867181 13.264025,22.439453 26.134765,22.439453 11.11273,0 21.359196,-7.573157 24.906256,-18.40625 1.0273,-3.137484 1.3579,-5.568289 1.20507,-8.859375 -0.071,-1.529402 -0.18017,-3.163882 -0.24414,-3.632812 -0.11519,-0.844417 -0.11129,-0.852926 0.44727,-0.789063 0.51448,0.05882 0.62155,0.218027 1.2168,1.816407 0.87347,2.345508 1.54425,4.925581 1.90429,7.314453 0.39219,2.602092 0.39315,8.616593 0.002,11.21289 -1.12783,7.482806 -4.38001,14.121486 -9.55274,19.492188 -5.7923,6.01399 -13.235079,9.708084 -21.667966,10.755859 -1.53318,0.190494 -6.78707,0.241969 -8.1836,0.08008 -6.999,-0.811359 -12.98425,-3.135638 -18.201165,-7.066406 -2.36084,-1.778808 -5.80668,-5.326687 -7.56055,-7.785156 -1.64294,-2.30296 -3.857,-6.696989 -4.76367,-9.453125 -2.18467,-6.641062 -2.37005,-14.616074 -0.49805,-21.455078 0.99693,-3.642057 2.67914,-7.349186 4.70508,-10.365235 6.00955,-8.946512 15.595085,-14.6380908 26.373045,-15.6601558 1.16259,-0.110248 2.57951,-0.199129 3.14844,-0.199219 z m 8.718748,2.8925778 c 4.3305,-0.01726 7.296349,0.681209 10.849609,2.554688 5.388879,2.841323 9.096399,7.630008 10.878909,14.052734 0.35436,1.276861 0.41147,2.03279 0.41211,5.423828 5.9e-4,3.642536 -0.0387,4.086471 -0.51953,5.867188 -1.05097,3.892206 -3.13802,7.460668 -5.93359,10.144531 -2.82221,2.709439 -6.049114,4.533 -9.722664,5.496094 -2.46132,0.645283 -7.481772,0.823219 -10.003912,0.353516 -4.4364,-0.826198 -8.40982,-2.882152 -11.50195,-5.951172 -2.78826,-2.767421 -4.37691,-5.566407 -3.16015,-5.566407 0.22624,0 1.22391,0.400592 2.21679,0.890626 3.73413,1.842961 7.12965,1.914127 10.66602,0.222656 3.51145,-1.67955 5.926347,-4.423664 7.136717,-8.107422 1.01811,-3.09862 0.592142,-6.654106 -1.167968,-9.734375 -0.822029,-1.438583 -2.849809,-3.548654 -4.343749,-4.521485 -2.52981,-1.647363 -5.73089,-2.417666 -8.28321,-1.992187 -1.54516,0.257586 -3.57401,0.956519 -4.57031,1.572266 -0.3485,0.215385 -0.86712,0.390625 -1.15234,0.390625 -1.37089,0 0.0679,-2.403714 3.20508,-5.355469 4.11148,-3.868452 8.93768,-5.716096 14.994138,-5.740235 z M 115.39869,154.00276 c -1.42736,-0.0177 -2.83123,0.0946 -3.8418,0.3418 -7.11443,1.74047 -12.178382,7.07964 -13.539062,14.27148 -0.33424,1.76662 -0.126113,5.67828 0.398437,7.49805 1.43321,4.97202 4.524335,8.74005 9.023445,10.99804 0.79653,0.39977 1.20389,0.64406 1.29296,0.76563 h 12.85547 c 0.0868,-0.11396 0.50629,-0.33834 1.38477,-0.76758 3.65782,-1.78729 6.6018,-4.80511 8.27148,-8.47656 0.0675,-0.14838 0.0864,-0.15979 0.13672,-0.26172 v -13.96094 c -0.10195,-0.18536 -0.17111,-0.28735 -0.35351,-0.66797 -2.22603,-4.64493 -6.45484,-8.0232 -11.64063,-9.30078 -1.1099,-0.27343 -2.56092,-0.4218 -3.98828,-0.43945 z m -90.265621,1.05078 v 16.375 c 0,12.253 -0.0342,15.64606 -0.20508,16.44922 h 6.88867 c -0.13743,-0.69874 -0.18164,-3.30841 -0.18164,-9.96094 v -9.87305 l 0.53516,0.0625 c 0.45602,0.053 1.61976,1.52637 7.78906,9.87305 5.44127,7.36169 6.84571,9.32639 6.98047,9.89844 h 5.19336 c -0.17086,-0.80301 -0.20313,-4.19487 -0.20313,-16.44336 v -16.36914 h -3.15234 -3.1543 v 9.76758 9.76562 l -0.53711,-0.0625 c -0.45866,-0.0531 -1.59824,-1.49139 -7.69531,-9.7168 l -7.15625,-9.65429 -2.55078,-0.0547 z m 29.99609,0.0117 4.09766,16.38476 c 2.998005,11.98937 3.851215,15.56696 3.871085,16.42774 h 6.38086 c -0.086,-0.30855 0.47606,-2.0277 3.7207,-11.87891 2.56637,-7.79215 2.62141,-7.92968 3.13477,-7.92969 0.51456,0 0.57226,0.14997 3.8125,9.875 2.39491,7.18794 3.06214,9.31785 3.0625,9.9336 h 6.474609 c -0.07294,-0.4529 0.897499,-4.56908 3.837891,-16.31055 2.25923,-9.02149 4.110121,-16.42602 4.113281,-16.45312 0.003,-0.0271 -1.569141,-0.0488 -3.49414,-0.0488 h -3.5 l -2.267579,10 c -2.220592,9.79242 -2.277762,9.99938 -2.755862,10.05469 -0.48016,0.0556 -0.53902,-0.10956 -3.53125,-10 l -3.04297,-10.05469 h -2.61523 -2.61524 l -0.49804,1.625 c -0.2734,0.89402 -1.63596,5.34901 -3.02735,9.90039 -2.40584,7.86976 -2.55223,8.27805 -3.01757,8.33398 l -0.49024,0.0606 -2.2539,-9.95898 -2.25196,-9.95899 h -3.572255 z m 60.099611,5.32617 c 1.32253,0.006 2.65549,0.10397 3.38867,0.29492 3.50645,0.91332 6.43207,3.96401 7.28906,7.59961 0.1634,0.6932 0.29688,2.14681 0.29688,3.23047 0,3.62002 -1.02967,6.27619 -3.22852,8.32617 -2.29112,2.13599 -4.16539,2.80889 -7.79101,2.80078 -1.82546,-0.004 -2.52648,-0.0915 -3.55469,-0.44336 -3.15411,-1.07928 -5.41658,-3.2796 -6.52344,-6.34765 -0.53395,-1.48004 -0.75281,-5.85054 -0.3789,-7.57031 0.79967,-3.67795 3.62229,-6.67791 7.17187,-7.62305 0.69474,-0.18499 2.00755,-0.27311 3.33008,-0.26758 z"
     inkscape:connector-curvature="0" />
</g>
<g
   style="display:none"
   inkscape:label="nwo 2"
   id="layer4"
   inkscape:groupmode="layer">
  <path
     inkscape:connector-curvature="0"
     id="path1585"
     d="M 68.670471,20.790307 C 54.185769,22.692131 40.753318,26.511255 29.004468,35.698195 -8.336115,64.896927 -8.8330419,122.31713 28.269913,151.95498 c 7.685141,6.13905 16.647233,10.41012 26.076723,13.07105 9.203247,2.59739 19.171534,3.21442 28.647669,2.04721 10.936798,-1.34754 21.590055,-5.20249 30.851335,-11.16745 C 156.16339,128.649 157.80071,66.335554 118.62025,35.698195 111.37349,30.031612 102.83171,25.934555 94.012639,23.417931 86.071358,21.151812 76.926508,19.706273 68.670471,20.790307 m 2.203666,5.090883 c 8.374669,-0.99132 17.71491,-0.01124 25.709446,2.587398 10.550057,3.4292 20.085317,8.793549 27.907607,16.773761 29.03661,29.622497 22.26254,79.350441 -12.11466,101.481491 -8.5146,5.48126 -18.279417,8.51461 -28.280392,9.69871 -7.741481,0.91636 -15.98393,0.1234 -23.505779,-1.94327 C 48.730591,151.22079 37.828317,145.00645 29.404617,135.95967 8.1660069,113.15025 5.9502201,76.253891 25.176111,51.485778 29.984512,45.291234 35.573856,39.967542 42.226469,35.776719 50.916262,30.302664 60.707521,27.084649 70.874137,25.88119 m 58.764453,48.375812 h -0.36728 c 0.0812,9.82615 -0.32835,18.263255 -5.17164,27.178558 -3.67131,6.75791 -9.18378,12.41141 -15.7632,16.38058 -6.052,3.65074 -13.419226,6.30433 -20.567554,6.38917 -17.907364,0.21302 -34.890656,-9.63223 -42.080119,-26.442529 -9.932992,-23.226648 3.389239,-55.887892 30.32723,-59.866282 -2.041698,-0.856492 -5.190738,-0.119181 -7.345556,0.216804 -6.162922,0.960909 -12.051487,2.773131 -17.629335,5.56896 -24.436792,12.248201 -36.562542,41.759817 -28.034131,67.669787 12.923698,39.26347 65.730055,52.49465 94.478355,21.66939 10.85012,-11.63389 16.51318,-27.46356 15.42567,-43.338771 -0.36764,-5.369234 -2.07438,-10.247785 -3.27244,-15.425667 M 81.40289,40.22258 81.647497,40.34503 81.40289,40.22258 m 35.74825,23.383365 h -0.36728 c 0.24498,5.70309 -0.27142,11.000338 -3.05171,16.160224 -2.15996,4.008102 -5.34426,7.411666 -9.06846,10.018971 -17.59958,12.32033 -42.073871,-1.203202 -42.957174,-22.139139 -0.329448,-7.81053 3.372712,-15.20306 8.800344,-20.566161 2.877988,-2.843832 6.352804,-5.169949 10.283778,-6.245118 -4.43341,-1.859675 -12.381302,2.148428 -16.160223,4.356612 -14.984935,8.756527 -21.750926,27.872382 -15.636853,44.124057 9.271194,24.642869 42.15027,31.407389 60.430418,12.485979 9.93377,-10.282679 11.956,-24.970118 7.72716,-38.195425 M 73.445082,52.954889 c 2.846036,-1.167356 5.67738,-2.231213 8.814667,-1.665788 15.279121,2.753775 15.307771,26.166156 -0.734555,27.342179 -3.105702,0.227712 -5.606863,-0.7015 -8.44739,-1.803334 3.97064,9.378071 17.67855,12.43823 26.444006,9.011528 8.49293,-3.320191 14.29481,-11.592022 14.29481,-20.764417 0,-16.650062 -18.682315,-27.167833 -33.025982,-19.221154 -3.031511,1.679525 -5.835677,3.928036 -7.345556,7.100986 z"
     style="fill:#ffffff;fill-opacity:1;stroke:none;stroke-width:0.367278" />
</g>
</svg>
