<?xml version="1.0" encoding="UTF-8" standalone="no"?>
<svg
   xmlns:dc="http://purl.org/dc/elements/1.1/"
   xmlns:cc="http://creativecommons.org/ns#"
   xmlns:rdf="http://www.w3.org/1999/02/22-rdf-syntax-ns#"
   xmlns:svg="http://www.w3.org/2000/svg"
   xmlns="http://www.w3.org/2000/svg"
   xmlns:sodipodi="http://sodipodi.sourceforge.net/DTD/sodipodi-0.dtd"
   xmlns:inkscape="http://www.inkscape.org/namespaces/inkscape"
   inkscape:version="1.0beta1 (32d4812, 2019-09-19)"
   sodipodi:docname="logo-radboud.svg"
   id="svg5026"
   version="1.1"
   xml:space="preserve"
   width="147.56102"
   height="188.06216"
   viewBox="0 0 147.56102 188.06216">
  <sodipodi:namedview
     inkscape:current-layer="svg5026"
     inkscape:window-maximized="0"
     inkscape:window-y="23"
     inkscape:window-x="0"
     inkscape:cy="81.785715"
     inkscape:cx="79.425461"
     inkscape:zoom="2.8"
     showgrid="false"
     id="namedview890"
     inkscape:window-height="1002"
     inkscape:window-width="1680"
     inkscape:pageshadow="2"
     inkscape:pageopacity="0"
     guidetolerance="10"
     gridtolerance="10"
     objecttolerance="10"
     borderopacity="1"
     inkscape:document-rotation="0"
     bordercolor="#666666"
     pagecolor="#ffffff" />
  <metadata
     id="metadata5032">
    <rdf:RDF>
      <cc:Work
         rdf:about="">
        <dc:format>image/svg+xml</dc:format>
        <dc:type
           rdf:resource="http://purl.org/dc/dcmitype/StillImage" />
        <dc:title></dc:title>
      </cc:Work>
    </rdf:RDF>
  </metadata>
  <defs
     id="defs5030">
    <clipPath
       clipPathUnits="userSpaceOnUse"
       id="clipPath5040">
      <path
         d="m 0,57.354 566.929,0 0,639.968 L 0,697.322 0,57.354 Z"
         id="path5042" />
    </clipPath>
    <clipPath
       clipPathUnits="userSpaceOnUse"
       id="clipPath5054">
      <path
         d="m 0,0 566.929,0 0,765.354 L 0,765.354 0,0 Z"
         id="path5056" />
    </clipPath>
    <clipPath
       clipPathUnits="userSpaceOnUse"
       id="clipPath5062">
      <path
         d="m -15.1732,698.323 597.2752,0 0,-199.008 -597.2752,0 0,199.008 z"
         id="path5064" />
    </clipPath>
    <clipPath
       clipPathUnits="userSpaceOnUse"
       id="clipPath5066">
      <path
         d="m -14.173,500.315 595.276,0 0,197.008 -595.276,0 0,-197.008 z"
         id="path5068" />
    </clipPath>
    <linearGradient
       x1="0"
       y1="0"
       x2="1"
       y2="0"
       gradientUnits="userSpaceOnUse"
       gradientTransform="matrix(0,197.00787,197.00787,0,-14.173233,500.31496)"
       spreadMethod="pad"
       id="linearGradient5070">
      <stop
         style="stop-opacity:1;stop-color:#ffffff"
         offset="0"
         id="stop5072" />
      <stop
         style="stop-opacity:1;stop-color:#000000"
         offset="1"
         id="stop5074" />
    </linearGradient>
    <clipPath
       clipPathUnits="userSpaceOnUse"
       id="clipPath5094">
      <path
         d="m -32440.6,32721.6 65207.6,0 0,-65489.6 -65207.6,0 0,65489.6 z"
         id="path5096" />
    </clipPath>
    <linearGradient
       x1="0"
       y1="0"
       x2="1"
       y2="0"
       gradientUnits="userSpaceOnUse"
       gradientTransform="matrix(498.41318,0,0,-498.41318,33.515961,-8.6693115)"
       spreadMethod="pad"
       id="linearGradient5098">
      <stop
         style="stop-opacity:1;stop-color:#ffffff"
         offset="0"
         id="stop5100" />
      <stop
         style="stop-opacity:0;stop-color:#ffffff"
         offset="1"
         id="stop5102" />
    </linearGradient>
    <mask
       maskUnits="userSpaceOnUse"
       x="0"
       y="0"
       width="1"
       height="1"
       id="mask5104">
      <g
         id="g5106">
        <g
           clip-path="url(#clipPath5094)"
           id="g5108">
          <g
             id="g5110">
            <g
               id="g5112">
              <path
                 d="m -32440.6,32721.6 65207.6,0 0,-65489.6 -65207.6,0 0,65489.6 z"
                 style="fill:url(#linearGradient5098);stroke:none"
                 id="path5114" />
            </g>
          </g>
        </g>
      </g>
    </mask>
    <clipPath
       clipPathUnits="userSpaceOnUse"
       id="clipPath5120">
      <path
         d="m 33.516,44.3543 498.413,0 0,-53.02361 -498.413,0 0,53.02361 z"
         id="path5122" />
    </clipPath>
    <clipPath
       clipPathUnits="userSpaceOnUse"
       id="clipPath5140">
      <path
         d="m 0,0 566.929,0 0,765.354 L 0,765.354 0,0 Z"
         id="path5142" />
    </clipPath>
    <clipPath
       clipPathUnits="userSpaceOnUse"
       id="clipPath5152">
      <path
         d="m 0,708.662 566.929,0 0,56.693 -566.929,0 0,-56.693 z"
         id="path5154" />
    </clipPath>
  </defs>
  <path
     inkscape:connector-curvature="0"
     d="m 12.119027,115.19418 c -0.333475,1.53324 -2.2474923,3.59976 -4.5044651,3.83784 -3.1236404,0.076 -5.7710821,-2.49509 -5.9520221,-4.70444 -0.1239467,-2.04752 0.029511,-2.55223 0.029511,-2.55223 l 10.6469452,0.32388 c -0.02951,1.19041 0.05718,1.79037 -0.21912,3.09506 m 1.399896,-7.02811 -0.380915,0.93325 -11.599268,-0.3047 -0.79993549,-0.99043 -0.73327732,0.0111 v 7.0567 c -0.17153333,3.22837 3.17122701,7.15191 7.56141051,7.13287 4.1521023,-0.20953 6.1710313,-4.10451 6.4567363,-7.77094 l 0.438055,-6.08533 -0.942806,0.0184 z"
     style="opacity:1;fill:#ffffff;fill-opacity:1;fill-rule:nonzero;stroke:none;stroke-width:3.68889;stop-opacity:1"
     id="path5258" />
  <path
     inkscape:connector-curvature="0"
     d="m 4.8890264,141.54203 2.2284208,4.48543 0.4856791,-0.28552 -0.2571155,-1.18089 10.6469442,-4.67589 0.561855,0.67618 0.857113,-0.4381 -1.923681,-4.00927 -0.638067,0.2763 0.01844,1.19992 -10.4374158,4.55209 -0.8951826,-0.69521 -0.6475844,0.0952 z"
     style="opacity:1;fill:#ffffff;fill-opacity:1;fill-rule:nonzero;stroke:none;stroke-width:3.68889;stop-opacity:1"
     id="path5262" />
  <path
     inkscape:connector-curvature="0"
     d="m 8.317369,136.81376 v 0.47616 l -3.0188391,0.63807 c -1.7046724,-1.16186 -2.5236795,-2.39033 -3.0569821,-4.39974 -0.9903929,-3.92354 0,-7.5519 5.1520865,-9.028 5.4377177,-1.6475 7.6947267,1.85702 8.8851317,5.93295 0.323884,1.20947 0.342697,2.05703 0.54282,3.39027 l -2.885523,0.79042 -0.390469,-0.56186 c 1.142781,-1.04757 1.504698,-2.54271 1.133264,-3.98071 -0.561855,-2.21891 -3.152156,-3.495 -5.275849,-2.65696 l 1.53325,6.5615 1.190404,0.47616 0.209529,0.60948 -3.1045688,0.80945 -0.1715333,-0.6571 0.4476097,-0.67614 -1.6951182,-6.58053 c -2.5141252,0.16194 -4.3902203,2.7522 -3.8283288,5.24729 0.3426978,1.58084 2.2474555,3.39976 4.3330426,3.60929"
     style="opacity:1;fill:#ffffff;fill-opacity:1;fill-rule:nonzero;stroke:none;stroke-width:3.68889;stop-opacity:1"
     id="path5266" />
  <path
     inkscape:connector-curvature="0"
     d="m 6.066077,105.16243 c -0.36188,-0.81901 0,-1.75226 0.8094898,-2.13321 0.7999355,-0.32389 1.7617764,-0.0952 2.0665155,0.59996 0.4285382,0.79045 0,1.76181 -0.7618662,2.30463 -0.7904182,0.3714 -1.7427417,0 -2.1141391,-0.77138"
     style="opacity:1;fill:#ffffff;fill-opacity:1;fill-rule:nonzero;stroke:none;stroke-width:3.68889;stop-opacity:1"
     id="path5270" />
  <path
     inkscape:connector-curvature="0"
     d="m 15.161696,146.98262 c -0.352289,-0.82852 -0.04759,-1.79036 0.54282,-2.13321 0.714243,-0.36188 1.790366,0 2.390327,0.82852 0.342697,0.80949 -0.01844,1.77134 -0.819008,2.10463 -0.809452,0.39047 -1.761776,-0.0111 -2.114139,-0.79994"
     style="opacity:1;fill:#ffffff;fill-opacity:1;fill-rule:nonzero;stroke:none;stroke-width:3.68889;stop-opacity:1"
     id="path5274" />
  <path
     inkscape:connector-curvature="0"
     d="m 95.429925,177.79495 c -0.371398,-0.80949 0.038,-1.77133 0.876148,-2.13321 0.857076,-0.3714 1.799882,0 2.133173,0.79045 0.314294,0.83805 0,1.7713 -0.81897,2.16177 -0.790455,0.38091 -1.761813,-0.0295 -2.190351,-0.81901"
     style="opacity:1;fill:#ffffff;fill-opacity:1;fill-rule:nonzero;stroke:none;stroke-width:3.68889;stop-opacity:1"
     id="path5278" />
  <path
     inkscape:connector-curvature="0"
     d="m 9.3268334,78.994556 -2.2950791,4.513983 0.54282,0.161942 0.9713582,-0.799936 10.2564755,5.24726 -0.180755,0.838079 0.857113,0.342698 L 21.33579,85.38456 20.659616,85.070267 19.745399,85.75592 9.9460134,80.537212 9.8412489,79.451572 9.326981,78.994445 Z"
     style="opacity:1;fill:#ffffff;fill-opacity:1;fill-rule:nonzero;stroke:none;stroke-width:3.68889;stop-opacity:1"
     id="path5282" />
  <path
     inkscape:connector-curvature="0"
     d="m 15.727387,98.753314 -0.638067,-0.199938 -0.609478,0.447573 -7.6661748,-1.62846 10.9897898,-4.142585 0.980876,-2.523679 -0.790418,-0.180756 -0.752349,0.323885 -10.3422059,-4.085445 -0.057178,-0.961841 -0.7142057,-0.247524 -1.3046862,3.52359 0.9237346,0.323884 0.876148,-0.438092 7.3424012,2.828418 -11.7230673,4.494948 -0.5333027,1.742742 12.25637,2.676026 0.533266,0.59997 0.44761,0.19034 0.780901,-2.742687 z"
     style="opacity:1;fill:#ffffff;fill-opacity:1;fill-rule:nonzero;stroke:none;stroke-width:3.68889;stop-opacity:1"
     id="path5286" />
  <path
     inkscape:connector-curvature="0"
     d="m 34.725202,169.35263 c -0.447573,0.45713 -2.228421,2.07607 -3.990234,2.11414 -0.752312,0.0111 -1.418932,-0.22834 -2.047481,-0.84756 l -0.180756,-0.19993 c -0.571372,-0.41903 -0.847559,-0.94281 -0.885665,-1.70468 0,-1.438 1.26658,-3.42834 2.190351,-4.4378 0.799936,-0.79994 3.695013,-3.8093 6.009126,-1.78085 l 0.342698,0.3047 c 2.152245,2.1618 -0.771383,5.85678 -1.438002,6.55198 m 4.418772,-2.58078 v 0 c 0.114355,-1.9332 -0.276298,-3.59025 -1.53325,-4.8759 l -0.161942,-0.21912 -0.07636,-0.0764 -0.06677,-0.0572 -0.04759,-0.0572 -0.199937,-0.13353 c -1.35231,-1.19041 -3.047428,-1.57132 -5.037768,-1.36179 -2.018929,0.20953 -3.933093,1.28561 -5.171121,3.09501 -2.209387,2.76172 -2.199832,6.34246 0.428575,8.92324 l 0.07636,0.0572 h -0.01844 l -0.038,-0.0295 0.05718,0.0295 c 2.761724,2.30463 6.390078,2.19035 9.151802,-0.038 1.552284,-1.36183 2.542677,-3.28551 2.637924,-5.25681"
     style="opacity:1;fill:#ffffff;fill-opacity:1;fill-rule:nonzero;stroke:none;stroke-width:3.68889;stop-opacity:1"
     id="path5290" />
  <path
     inkscape:connector-curvature="0"
     d="m 55.872458,185.91825 4.733028,1.0285 0.05718,-0.55234 -1.047534,-0.75234 2.228421,-11.1707 1.057051,-0.038 0.08558,-0.96184 -4.371149,-0.77139 -0.171534,0.72376 1.095158,0.79042 -2.209386,10.79933 -1.152299,0.3143 -0.304702,0.59044 z"
     style="opacity:1;fill:#ffffff;fill-opacity:1;fill-rule:nonzero;stroke:none;stroke-width:3.68889;stop-opacity:1"
     id="path5294" />
  <path
     inkscape:connector-curvature="0"
     d="m 92.141575,180.7824 0.504714,0.0184 0.952324,2.96174 c -1.285615,1.64749 -2.466502,2.40936 -4.542572,2.85697 -3.961645,0.87611 -7.618551,-0.038 -8.780367,-5.01874 -1.723707,-5.43775 1.723671,-7.60903 5.913916,-8.77088 1.218957,-0.35229 2.076033,-0.36188 3.418825,-0.53331 l 0.733278,2.92363 -0.571409,0.36188 c -0.980876,-1.18088 -2.485536,-1.5618 -3.961645,-1.23802 -2.237939,0.58092 -3.656906,3.19029 -2.876006,5.33302 l 6.637676,-1.5047 0.523786,-1.18085 0.657101,-0.17153 0.72376,3.05695 -0.666619,0.13316 -0.68569,-0.39998 -6.523395,1.51421 c 0.114356,2.47602 2.695066,4.33305 5.209191,3.82833 1.618943,-0.29511 3.495038,-2.07607 3.333132,-4.17117"
     style="opacity:1;fill:#ffffff;fill-opacity:1;fill-rule:nonzero;stroke:none;stroke-width:3.68889;stop-opacity:1"
     id="path5298" />
  <path
     inkscape:connector-curvature="0"
     d="m 28.597994,153.77173 -0.495196,0.44757 0.07636,0.76186 -5.6568,5.68536 2.533196,-11.37071 -1.609425,-2.15224 -0.561891,0.52378 -0.161943,0.82853 -9.170872,6.36149 -0.885629,-0.45709 -0.54282,0.47612 2.361737,3.02839 0.790419,-0.61899 0.08558,-0.98091 6.323382,-4.50447 -2.571266,12.0564 1.209476,1.38086 8.989896,-8.85658 0.761866,-0.14276 0.419021,-0.2763 -1.89513,-2.19035 z"
     style="opacity:1;fill:#ffffff;fill-opacity:1;fill-rule:nonzero;stroke:none;stroke-width:3.68889;stop-opacity:1"
     id="path5302" />
  <path
     inkscape:connector-curvature="0"
     d="m 74.069377,174.56754 -0.038,0.66662 0.695208,0.44761 0.790418,7.85663 -7.389988,-9.45654 -2.571266,-0.23793 0.104764,0.77138 0.466645,0.6571 -0.914218,11.15166 -0.942806,0.4381 v 0.75231 l 3.742636,0.0572 0.05718,-1.04753 -0.647585,-0.69521 0.504714,-7.68524 7.761422,9.81845 1.818918,-0.0111 -0.961841,-12.31348 0.371434,-0.68569 0.04759,-0.50471 -2.89504,0.0184 z"
     style="opacity:1;fill:#ffffff;fill-opacity:1;fill-rule:nonzero;stroke:none;stroke-width:3.68889;stop-opacity:1"
     id="path5306" />
  <path
     inkscape:connector-curvature="0"
     d="m 35.189006,177.31119 0.352289,-0.77138 1.057088,0.0856 7.389987,-8.41853 -0.352289,-0.84755 0.590444,-0.69521 2.295079,0.96184 -0.371397,8.32327 4.685442,-5.47582 -0.237933,-0.42854 0.399949,-0.27629 3.361684,1.32372 -0.05718,0.85707 -0.561854,0.2763 -1.53325,11.34215 0.838042,0.93325 -0.237934,0.6857 -3.875915,-1.73323 0.228711,-0.81901 0.695171,-0.16194 1.066606,-8.95179 -6.923381,8.21851 -1.390379,-0.44757 0.980876,-10.32317 -5.647246,6.71385 0.485679,0.91422 -0.209529,0.5333 -3.028393,-1.81892 z"
     style="opacity:1;fill:#ffffff;fill-opacity:1;fill-rule:nonzero;stroke:none;stroke-width:3.68889;stop-opacity:1"
     id="path5310" />
  <path
     inkscape:connector-curvature="0"
     d="m 123.04723,162.60259 0.44758,-0.21912 2.05703,2.3713 c -0.24752,2.0951 -0.9428,3.30454 -2.52364,4.74254 -3.08554,2.89508 -6.75196,3.75215 -10.44697,-0.0952 -3.8093,-4.10452 -1.8094,-7.74239 1.24754,-10.64695 0.92374,-0.9047 1.6856,-1.33327 2.80935,-2.12369 l 2.10462,2.18083 -0.3047,0.619 c -1.49514,-0.5333 -3.01888,-0.12395 -4.17117,0.87615 -1.74275,1.48559 -1.6856,4.40922 0.0668,5.8377 l 5.22826,-4.40922 -0.14276,-1.26661 0.42857,-0.46661 2.14269,2.12365 -0.48568,0.44761 -0.82852,-0.0111 -5.1806,4.81876 c 1.3142,2.16176 4.51398,2.63792 6.43766,0.76186 1.25707,-1.00946 1.88562,-3.56169 1.11423,-5.54252"
     style="opacity:1;fill:#ffffff;fill-opacity:1;fill-rule:nonzero;stroke:none;stroke-width:3.68889;stop-opacity:1"
     id="path5314" />
  <path
     inkscape:connector-curvature="0"
     d="m 139.28524,93.489823 v -0.476162 l 3.04743,-0.676136 c 1.70464,1.247545 2.4665,2.428396 2.92363,4.456842 1.0285,3.980713 -0.0668,7.590003 -5.1235,8.942313 -5.27585,1.65701 -7.7138,-1.81896 -8.79944,-5.932955 -0.33347,-1.171369 -0.36188,-2.066552 -0.5333,-3.418862 l 2.84745,-0.761829 0.39995,0.609478 c -1.1523,0.980876 -1.53321,2.514125 -1.1523,3.961648 0.54282,2.22842 3.06647,3.51407 5.22827,2.70458 l -1.5047,-6.561463 -1.20944,-0.514268 -0.17153,-0.647585 3.16171,-0.866594 0.12394,0.590444 -0.43805,0.838042 1.63797,6.590054 c 2.54272,-0.0764 4.47592,-2.723656 3.96169,-5.228264 -0.3427,-1.618943 -2.2856,-3.361685 -4.39974,-3.609283"
     style="opacity:1;fill:#ffffff;fill-opacity:1;fill-rule:nonzero;stroke:none;stroke-width:3.68889;stop-opacity:1"
     id="path5318" />
  <path
     inkscape:connector-curvature="0"
     d="m 129.43347,90.914758 c -1.28561,-2.733172 -2.03796,-6.713852 1.4666,-7.609034 2.95218,-0.790419 4.71395,2.009374 5.12346,4.256867 z m 11.49451,-5.866293 -3.39028,1.71419 c 0,-2.637924 0.69521,-5.609177 0.39047,-7.056697 -0.49519,-2.123693 -1.1904,-2.704619 -2.876,-4.104516 l -0.48568,0.380915 c 0.48568,0.857113 0.66662,0.857113 1.00946,2.1618 0.46661,1.809399 0.40951,2.933146 -0.0476,4.780615 -0.96184,-1.876058 -3.17123,-2.580784 -5.45679,-1.933199 -2.85697,0.752349 -4.53306,3.76167 -3.21885,6.428184 l 2.85697,6.628121 0.96184,-0.409466 0.21912,-0.580927 10.23744,-5.29492 0.74283,0.495233 0.56186,-0.190346 -1.50466,-3.018839 z"
     style="opacity:1;fill:#ffffff;fill-opacity:1;fill-rule:nonzero;stroke:none;stroke-width:3.68889;stop-opacity:1"
     id="path5322" />
  <path
     inkscape:connector-curvature="0"
     d="m 133.48657,120.13957 0.0476,-10.5898 -0.88566,-2.90459 3.66642,2.34273 c -0.36188,0.076 -0.67613,0.19035 -0.9047,0.3714 -0.36188,0.39043 -0.36188,2.00938 -0.41902,4.35212 l 11.71355,-0.15235 0.23793,-0.52379 0.59997,0.0184 0.0184,4.19021 -0.32388,-0.0111 -0.54282,-0.98088 -11.63738,0.19994 c 0.038,1.27613 -0.16194,3.11408 0.18113,3.39979 0.13353,0.14276 0.37139,0.26671 0.6571,0.36188 l -3.05695,2.02845 0.64759,-2.10463 z"
     style="opacity:1;fill:#ffffff;fill-opacity:1;fill-rule:nonzero;stroke:none;stroke-width:3.68889;stop-opacity:1"
     id="path5326" />
  <path
     inkscape:connector-curvature="0"
     d="m 145.77817,130.21895 0.91421,-4.79017 -0.54282,-0.038 -0.84756,0.9714 -11.30404,-1.9999 -0.0952,-0.80945 -0.96187,-0.0764 -0.59996,4.37115 0.71424,0.0764 0.70472,-0.87615 10.99931,1.91416 0.39999,1.00947 0.61899,0.24752 z"
     style="opacity:1;fill:#ffffff;fill-opacity:1;fill-rule:nonzero;stroke:none;stroke-width:3.68889;stop-opacity:1"
     id="path5330" />
  <path
     inkscape:connector-curvature="0"
     d="m 140.76231,132.66545 0.4952,-0.50471 2.67603,1.21896 c 0.54282,2.17128 0.44757,3.68549 -0.48568,5.67583 -1.9332,3.69501 -4.68541,6.152 -9.96129,3.99975 -5.08539,-2.27604 -4.49495,-6.4758 -2.78076,-10.43745 0.46664,-1.1904 0.98087,-1.87606 1.65705,-2.99029 l 2.93314,1.0952 -0.19993,0.80945 c -1.59036,0.0856 -2.68555,0.76187 -3.37121,2.14273 -1.01898,2.19031 0.63807,4.11403 2.66652,5.7139 2.00937,1.51422 6.39956,0.85712 7.56141,-1.41893 0.73328,-1.50466 0.3047,-3.75215 -1.19041,-5.30444"
     style="opacity:1;fill:#ffffff;fill-opacity:1;fill-rule:nonzero;stroke:none;stroke-width:3.68889;stop-opacity:1"
     id="path5334" />
  <path
     inkscape:connector-curvature="0"
     d="m 136.91395,152.83751 2.42843,-4.26638 -0.54282,-0.0111 -1.00946,0.57138 -10.38983,-5.70439 0.19994,-0.79997 -0.9047,-0.3714 -1.67609,3.91406 0.68569,0.3427 0.9904,-0.60948 9.65655,5.42823 0.11435,1.04754 0.44758,0.45712 z"
     style="opacity:1;fill:#ffffff;fill-opacity:1;fill-rule:nonzero;stroke:none;stroke-width:3.68889;stop-opacity:1"
     id="path5338" />
  <path
     inkscape:connector-curvature="0"
     d="m 128.86878,163.59778 6.74244,-7.72331 -1.47611,-3.70453 -0.95232,0.96184 c 0,0 0.32388,1.57132 0.21912,2.4665 -0.29511,1.87609 -2.83794,4.13307 -2.83794,4.13307 l -8.85658,-7.25667 0.37144,-0.93329 -0.79998,-0.53327 -3.02835,3.82833 0.82848,0.52375 0.9714,-0.41902 8.62802,7.12335 -0.18076,0.99995 0.3714,0.5333 z"
     style="opacity:1;fill:#ffffff;fill-opacity:1;fill-rule:nonzero;stroke:none;stroke-width:3.68889;stop-opacity:1"
     id="path5342" />
  <path
     inkscape:connector-curvature="0"
     d="m 105.22075,181.42235 3.6855,-1.95228 -0.39047,-0.4666 -0.94281,-0.15235 -2.65696,-5.29489 c 0,0 2.21891,-1.54276 3.59977,-1.83799 0.69521,-0.17153 1.8094,-0.16194 1.8094,-0.16194 l -1.36179,-2.67603 c 0,0 -0.63807,0.81901 -1.08568,1.25706 -1.05705,1.00947 -3.72356,1.92372 -3.72356,1.92372 l -1.85703,-3.89502 c 0,0 2.60938,-1.8094 4.29498,-2.31412 0.54282,-0.16194 1.59039,-0.36188 1.59039,-0.36188 0,0 0.0476,-0.71424 0.18075,-1.13326 0.24753,-0.72376 0.92374,-1.74274 0.92374,-1.74274 l -10.780264,6.25672 0.247525,0.79998 1.047533,-0.0111 5.190156,10.25651 -0.24752,0.8666 0.47616,0.63806 z"
     style="opacity:1;fill:#ffffff;fill-opacity:1;fill-rule:nonzero;stroke:none;stroke-width:3.68889;stop-opacity:1"
     id="path5346" />
  <path
     inkscape:connector-curvature="0"
     d="M 113.46973,77.415638 81.567007,72.454046 c 0.399949,0.952323 0.647584,2.066552 0.647584,3.152192 0,4.542571 -3.618837,8.180406 -8.247101,8.180406 -0.06677,0 -0.180755,-0.01107 -0.28552,-0.01107 H 73.6709 c -0.09517,0 -0.152351,0.01107 -0.266706,0.01107 -4.504465,0 -8.018538,-3.637835 -8.018538,-8.180406 0,-1.08564 0.276298,-2.199869 0.647585,-3.152192 l -31.74082,4.961592 C 33.340098,72.035025 32.863936,67.04488 32.863936,62.578484 c 0,-1.599908 0.08558,-3.075979 0.180755,-4.580677 H 52.02443 c 5.23778,0 5.69487,0.495233 5.923433,0.752349 0.342698,0.323884 0.428539,1.209439 -0.05718,1.552284 -1.133264,0.676136 -2.847454,1.542767 -2.847454,4.06641 v 0.133169 c 0,2.04748 1.79992,2.818864 6.123445,4.494948 1.209439,0.485679 5.618694,2.180834 5.618694,2.180834 l 0.914217,-0.485679 c 1.485627,-0.780901 4.694923,-2.923629 4.694923,-6.637676 0,-0.495234 -0.06677,-0.857114 -0.123947,-1.190405 -0.09517,-0.495233 -0.314293,-0.914254 -0.54282,-1.295169 v -0.02951 c -0.666619,-1.266616 -1.485626,-1.638014 -1.485626,-1.638014 0,0 0.419021,-1.771294 2.942701,-1.980822 l 0.01107,0.01844 c 0.09517,-0.02951 0.190347,-0.04759 0.28552,-0.04759 h 0.199938 c 1.285615,0 2.180797,1.018982 2.180797,2.295079 0,1.542767 -1.028499,1.857024 -1.028499,3.866435 0,3.714047 3.228368,5.856775 4.742546,6.637676 l 0.971395,0.485679 c 0,0 4.456842,-1.695155 5.69487,-2.180834 4.352114,-1.676083 6.094856,-2.447467 6.094856,-4.494948 V 64.3673 c 0,-2.523642 -1.685601,-3.390273 -2.828382,-4.066409 -0.552374,-0.342698 -0.457127,-1.228511 -0.06677,-1.552285 0.28552,-0.257115 0.695208,-0.752349 5.847258,-0.752349 h 19.408315 c 0.0952,1.504698 0.19035,2.98077 0.19035,4.580678 0,4.466396 -0.48568,9.45654 -1.41897,14.837154 m -2.80935,12.627767 v 0 L 83.699553,77.804557 c 9.494647,1.44752 23.246157,3.580694 28.807717,4.456842 -0.51427,2.571266 -1.13327,5.066357 -1.84751,7.780457 M 81.11877,82.042353 98.174827,90.041856 H 86.527972 Z m 24.23655,24.512737 H 84.918547 V 95.012965 h 24.331763 c -1.14278,3.742636 -2.43791,7.570965 -3.89499,11.542125 M 76.271459,90.041856 v -6.313865 l 4.190209,6.313865 z m -9.227976,0 4.152102,-6.313865 v 6.313865 z m 35.635847,23.379474 c -1.3142,3.27599 -2.714138,6.43767 -4.133069,9.647 h -16.19898 -2.447468 v 34.44544 c -1.837988,2.65696 -3.428342,4.79017 -4.809204,6.23769 -0.371434,0.39999 -1.009464,1.0285 -1.40945,1.3142 -0.36188,-0.28552 -0.914218,-0.91421 -1.314204,-1.3142 -1.35231,-1.44752 -2.961735,-3.58073 -4.780652,-6.23769 V 123.06833 H 65.186459 49.158901 c -1.44752,-3.20933 -2.828381,-6.37101 -4.104516,-9.647 -0.257115,-0.6571 -0.514231,-1.29517 -0.7809,-1.85702 H 67.586303 V 95.012965 h 6.085338 0.01107 6.218655 v 16.551345 h 23.550894 c -0.24752,0.56185 -0.50475,1.19992 -0.77138,1.85702 m -17.760781,36.27388 v -21.6367 h 11.418328 c -3.866435,8.0852 -7.799528,15.53233 -11.418328,21.6367 m -22.217661,0 c -3.6188,-6.10437 -7.580445,-13.5515 -11.44688,-21.6367 h 11.44688 z M 38.56113,95.012965 H 62.702435 V 106.55509 H 42.389458 C 40.894315,102.58393 39.665804,98.755601 38.56113,95.012965 M 66.464106,82.042353 61.093047,90.041856 H 49.522331 Z m -29.312427,7.999503 c -0.695171,-2.7141 -1.333238,-5.209191 -1.866541,-7.780457 5.485378,-0.876148 19.122609,-3.009322 28.607702,-4.456842 z M 73.673191,50.768175 h 0.01107 39.787949 c 0.19034,0.752312 0.37139,1.561802 0.50471,2.371255 H 95.292403 c -7.942362,0 -11.323081,1.942753 -11.323081,6.542465 0,1.399897 0.799935,2.933146 2.104622,4.028304 -0.9047,0.36188 -4.771135,1.733224 -5.304438,1.980822 -0.438056,-0.523785 -1.295132,-1.333238 -1.418931,-2.590301 0.380914,-0.628549 1.199922,-1.876095 1.199922,-3.685495 0,-2.85697 -1.952271,-5.704387 -6.971004,-5.847257 -2.304597,0.08558 -3.733082,0.752349 -4.913969,1.71419 -0.05718,0.07636 -0.09517,0.133168 -0.161942,0.209528 -2.085587,0.552338 -3.418825,1.980823 -3.418825,3.818775 v 1.971305 c 0,0 0.952323,0.08558 1.476108,0.28552 0.666619,0.304702 0.914218,0.647585 1.123747,0.9047 0.561854,0.819007 0.08558,2.628407 -1.066606,3.218851 -0.533302,-0.247525 -4.380666,-1.618943 -5.323472,-1.980823 1.304686,-1.095157 2.152245,-2.628407 2.152245,-4.028303 0,-4.599713 -3.39979,-6.542466 -11.418328,-6.542466 H 33.734366 c 0.171533,-0.809453 0.323885,-1.618943 0.561892,-2.371254 H 73.674703 Z M 48.236716,34.216832 c 0,-1.53325 0.495196,-3.495001 4.923486,-3.495001 3.599765,0 5.066357,0.54282 5.656764,0.971358 0.314293,0.190347 0.723796,0.504714 0.723796,2.009375 V 45.787511 H 48.236716 Z m 20.12252,-13.52295 v 1.676083 c -2.971253,0.876148 -5.494895,2.447467 -7.132873,4.952075 -1.361827,-0.838041 -3.066499,-1.209476 -4.799687,-1.399933 3.380719,-2.504608 7.580445,-4.380666 11.93256,-5.228225 m -3.25692,-9.694621 h 7.1138 V 3.9044579 h 1.457075 0.01107 1.571319 v 7.0948031 h 7.218602 v 3.142638 H 75.25558 v 7.209085 h -1.571319 -0.01107 -1.457075 v -7.209085 h -7.1138 z m 17.951239,22.703303 v 12.084947 h -9.370847 -0.01107 -9.142284 l -0.02951,-12.084947 c 0,-3.466449 2.34274,-7.485235 9.170873,-7.485235 h 0.01107 c 7.01859,0 9.370847,4.018786 9.370847,7.485235 m 8.132819,-7.780457 c -1.761813,0.190347 -3.418862,0.561892 -4.771135,1.399933 -1.666566,-2.504608 -4.199726,-4.075927 -7.28526,-4.952075 v -1.676083 c 4.466396,0.847559 8.685157,2.723617 12.056395,5.228225 m 8.304205,8.294725 V 45.787511 H 88.061812 V 33.702564 c 0,-1.504661 0.419021,-1.818917 0.685691,-2.009375 0.618995,-0.428538 2.095104,-0.971358 5.723421,-0.971358 4.466396,0 5.018733,1.961751 5.018733,3.495001 m 18.332193,13.322975 -0.59996,-1.752296 H 104.48936 V 34.216832 c 0,-3.190262 -1.60943,-6.580535 -5.904403,-7.894739 -3.114086,-3.495 -7.399505,-6.618641 -12.161122,-8.618498 V 7.1042738 H 79.129057 V -4.6488071e-5 h -5.447271 -0.01107 -5.313955 V 7.1042738 H 61.223892 V 17.703595 c -4.799687,1.999857 -9.170873,5.123498 -12.151606,8.618498 -4.228315,1.314204 -5.866292,4.704477 -5.866292,7.894739 V 45.787511 H 30.559155 l -0.552337,1.752296 c -1.523733,4.590158 -2.17128,9.646998 -2.17128,15.170445 0,17.056056 6.342454,37.00719 12.513485,52.577618 9.466058,23.5128 21.884333,44.8162 28.369621,51.92052 1.53325,1.50466 2.780758,2.85697 4.828276,2.93315 0.02951,0.0111 0.08558,0 0.123947,0 h 0.01107 c 0.07636,0 0.104765,0.0111 0.161942,0 2.142691,-0.0764 3.409308,-1.42849 4.894898,-2.93315 6.666264,-7.10432 19.208339,-28.40772 28.626773,-51.92052 6.20913,-15.570428 12.57062,-35.521562 12.57062,-52.577618 0,-5.523447 -0.56185,-10.580287 -2.11414,-15.170445"
     style="opacity:1;fill:#ffffff;fill-opacity:1;fill-rule:nonzero;stroke:none;stroke-width:3.68889;stop-opacity:1"
     id="path5350" />
</svg>
