<?xml version="1.0" encoding="UTF-8" standalone="no"?>
<svg
   xmlns:dc="http://purl.org/dc/elements/1.1/"
   xmlns:cc="http://creativecommons.org/ns#"
   xmlns:rdf="http://www.w3.org/1999/02/22-rdf-syntax-ns#"
   xmlns:svg="http://www.w3.org/2000/svg"
   xmlns="http://www.w3.org/2000/svg"
   xmlns:sodipodi="http://sodipodi.sourceforge.net/DTD/sodipodi-0.dtd"
   xmlns:inkscape="http://www.inkscape.org/namespaces/inkscape"
   sodipodi:docname="fiind_withFontAndText.svg"
   inkscape:version="1.0beta1 (32d4812, 2019-09-19)"
   version="1.1"
   id="svg2"
   viewBox="0 0 164.31893 282.63853"
   height="79.766876mm"
   width="46.374454mm">
  <defs
     id="defs4">
    <rect
       id="rect847"
       height="158.15199"
       width="129.74146"
       y="656.01093"
       x="500.73685" />
  </defs>
  <sodipodi:namedview
     inkscape:guide-bbox="true"
     showguides="true"
     inkscape:document-rotation="0"
     fit-margin-bottom="5"
     fit-margin-right="5"
     fit-margin-left="5"
     fit-margin-top="5"
     inkscape:window-maximized="0"
     inkscape:window-y="53"
     inkscape:window-x="12"
     inkscape:window-height="907"
     inkscape:window-width="1600"
     showgrid="false"
     inkscape:current-layer="layer1"
     inkscape:document-units="px"
     inkscape:cy="239.28092"
     inkscape:cx="61.884153"
     inkscape:zoom="0.98994949"
     inkscape:pageshadow="2"
     inkscape:pageopacity="0.0"
     borderopacity="1.0"
     bordercolor="#666666"
     pagecolor="#ffffff"
     id="base" />
  <metadata
     id="metadata7">
    <rdf:RDF>
      <cc:Work
         rdf:about="">
        <dc:format>image/svg+xml</dc:format>
        <dc:type
           rdf:resource="http://purl.org/dc/dcmitype/StillImage" />
        <dc:title></dc:title>
      </cc:Work>
    </rdf:RDF>
  </metadata>
  <g
     transform="translate(-483.69054,-470.39538)"
     id="layer1"
     inkscape:groupmode="layer"
     inkscape:label="Layer 1">
    <text
       xml:space="preserve"
       style="font-style:normal;font-variant:normal;font-weight:500;font-stretch:normal;line-height:0%;font-family:Futura;-inkscape-font-specification:'Futura Medium';letter-spacing:0px;word-spacing:0px;fill:#ffffff;fill-opacity:1;stroke:none;stroke-width:1px;stroke-linecap:butt;stroke-linejoin:miter;stroke-opacity:1"
       x="498.14603"
       y="650.30371"
       id="text4254"><tspan
         sodipodi:role="line"
         id="tspan4256"
         x="498.14603"
         y="650.30371"
         style="font-style:normal;font-variant:normal;font-weight:200;font-stretch:normal;font-size:51.7627px;line-height:1.25;font-family:'Helvetica Neue';-inkscape-font-specification:'Helvetica Neue Ultra-Light';letter-spacing:5px;fill:#ffffff;fill-opacity:1">FIIND</tspan></text>
    <path
       style="fill:#ffffff;fill-opacity:1"
       d="m 535.8537,591.48262 c -7.9629,-0.53927 -13.54231,-7.52893 -16.32018,-14.43239 -0.24908,-4.81299 -2.03325,-9.32935 -1.9414,-14.13366 -0.33852,-5.55744 1.29505,-11.03923 4.30284,-15.67625 0.92926,-4.76299 4.44027,-8.1934 7.77545,-11.42944 1.58343,-4.29655 3.93544,-8.29421 5.43182,-12.60722 0.42494,-6.63216 2.62579,-13.49364 7.78676,-17.96959 4.48354,-2.67658 5.40856,-7.39113 8.38153,-11.21271 3.80528,-2.411 9.10326,-8.59711 13.64164,-4.59422 0.6368,1.53689 1.04395,7.18677 1.47911,2.37526 0.37122,-4.93685 6.53038,-3.15906 9.29516,-1.30007 4.43224,1.63605 8.57457,5.41481 8.36731,10.49418 2.9466,4.69388 8.81278,7.21924 10.4506,12.80606 1.37978,3.84683 1.85205,7.91443 4.72228,11.02223 1.99544,3.80922 3.1285,7.95966 5.65919,11.52702 2.30087,4.02552 2.03002,8.97458 4.20323,12.92864 2.71641,4.65168 4.44398,9.93756 3.94574,15.37821 0.58848,4.59134 1.35375,9.38968 -0.37748,13.88603 -1.66656,5.99887 -6.94825,10.4782 -13.0019,11.67162 -7.4484,2.47968 -15.41504,-0.35279 -22.18284,-3.56327 -3.76086,-2.84917 -7.27077,-6.14775 -10.28934,-9.76995 -1.87546,-5.73689 -3.5155,3.89146 -6.93949,4.49634 -5.91777,4.55623 -12.21432,10.02664 -20.11041,10.08038 -1.424,0.0393 -2.85872,0.15943 -4.27962,0.0228 z m 5.93774,-1.70879 c 3.95819,-0.45938 7.53832,-2.27961 10.45894,-4.96122 4.4806,-3.34418 10.9555,-5.85392 11.90131,-12.09485 1.06615,-9.69474 0.41889,-19.51983 0.5265,-29.26742 0.95188,-5.2791 -2.84323,-8.85739 -7.25098,-10.84591 -5.36669,-2.8673 -10.92695,-6.37967 -13.36364,-12.25164 -1.44997,-2.35829 -1.4713,-4.33677 0.25343,-0.92385 5.11434,6.73235 12.66223,10.94233 19.89363,14.98423 0.47736,-6.29191 -0.0877,-12.89141 0.75957,-19.26471 -0.15025,-6.38814 1.0226,-12.83232 0.004,-19.17438 -3.33386,-1.88159 -7.74957,2.27873 -11.3513,3.18802 -2.37278,1.79631 -7.61072,3.70351 -8.00157,5.62797 2.44832,-1.16002 9.73909,-0.3416 9.12967,1.48111 -5.21314,-1.33302 -12.4094,-0.66212 -14.71714,5.03826 -3.68663,6.41367 -4.23653,14.35762 -1.72535,21.29598 1.56828,5.48525 4.93173,10.44702 9.00971,14.39372 2.01217,0.55973 8.06256,-8.72103 5.02028,-2.57298 -3.78183,3.79018 -2.5871,9.31366 -3.08834,14.1181 -0.35044,6.64886 -0.72198,14.61909 -6.85851,18.73271 -2.60652,1.47565 -8.04975,4.54742 -9.56615,4.10834 5.00332,-3.03021 11.39002,-5.38049 13.20641,-11.58292 1.88089,-6.42861 1.43396,-13.22619 1.55155,-19.85507 -4.2161,-4.64017 -8.98679,-9.20372 -10.6531,-15.46678 -1.39601,-1.89551 -0.5927,-10.04324 -2.89682,-4.23994 -3.22851,4.55597 -3.32894,10.28192 -1.86616,15.49344 0.88242,5.47744 2.79745,10.72334 5.57484,15.50443 0.0854,5.40887 -5.68309,8.64516 -9.54715,11.50484 -2.48782,2.57668 -7.44705,-0.87818 -7.99321,0.37888 0.56884,6.02396 4.58614,11.51472 9.52574,14.80329 3.66601,2.14689 7.9493,2.2557 12.06348,1.84835 z m 54.9668,-0.59703 c 6.31703,-0.77812 12.42053,-5.07605 14.23508,-11.34954 0.86625,-2.92546 1.81318,-8.40297 -0.24483,-10.04304 -3.43709,4.84521 -8.94331,1.88975 -12.23034,-1.34359 -2.94405,-2.30909 -6.58242,-5.87151 -3.41064,-9.51326 3.82819,-7.4828 6.60773,-15.99004 5.16008,-24.47413 -0.16682,-1.85978 -2.5513,-8.30993 -3.24935,-6.70398 -0.47602,5.60107 -2.49911,11.09478 -5.06392,16.08293 -1.74132,4.22753 -7.65986,6.08549 -7.41163,11.04713 -0.41238,6.67907 -0.52716,14.19516 4.29453,19.45545 1.95069,3.06995 8.92558,6.87931 9.17468,8.34704 -4.51167,-2.22469 -8.81476,-5.19272 -11.96916,-9.14686 -3.74246,-6.37815 -3.17981,-13.89772 -3.48338,-21.00498 -0.79626,-1.88304 -5.19636,-6.82075 -2.98879,-7.26015 1.15029,3.29649 4.68629,7.15288 7.21089,2.49579 5.52368,-4.99802 8.20978,-12.60883 8.70831,-19.89518 -0.0249,-5.0902 -1.90366,-9.99564 -4.24944,-14.40689 -2.4708,-4.72683 -8.58029,-4.44216 -12.80013,-2.5505 -0.97981,-2.64283 8.65603,-2.33813 6.47433,-4.47221 -3.04681,-2.8379 -6.56567,-4.92711 -10.15561,-7.0157 -2.55234,-0.71793 -8.21091,-5.38846 -7.75626,0.0665 -0.24967,12.15502 0.12945,24.31713 -0.0759,36.46672 4.13415,-1.36355 7.91873,-3.77026 11.95961,-5.45589 4.08847,-2.16617 7.52915,-5.6014 9.45575,-9.82457 0.10952,3.49734 -3.06896,7.55824 -5.87655,9.90035 -4.97131,3.27876 -10.9837,4.95961 -15.52691,8.84642 -1.01199,5.05288 -0.3163,10.37868 -0.5355,15.54778 0.31108,6.24667 -0.73641,12.58362 0.24823,18.77379 1.5585,5.68161 6.57989,9.2682 10.71412,13.05298 5.55961,3.17384 12.01734,5.06011 18.47209,4.45737 l 0.92063,-0.0798 v 0 z m -71.13992,-16.61459 c 4.29746,-1.24886 7.03282,-5.27126 9.82688,-8.51709 1.36084,-4.04886 -2.43071,-7.52292 -3.16553,-11.37072 -1.26748,-4.74129 -2.2007,-9.5902 -2.37658,-14.50411 -4.22975,2.40282 -7.19328,7.63102 -6.74278,12.60708 -0.21993,3.73002 2.33132,7.47599 1.73166,10.99963 -2.07763,-2.76346 -1.8383,-9.15691 -3.3878,-10.41924 -2.63497,5.47409 -3.25068,12.00209 -1.42848,17.80563 1.16198,1.83215 3.07296,4.16018 5.54263,3.39882 z m 81.07092,-3.87065 c 5.05927,-2.05297 5.75836,-7.98356 3.70862,-12.44791 -0.41352,-2.08311 -2.62104,-8.20353 -3.04839,-2.84157 0.63356,2.22218 -4.38817,10.69949 -2.5342,4.87452 2.72521,-7.27935 1.16441,-15.3731 -1.98678,-22.23431 -1.26328,3.31034 -0.71399,9.03348 -2.54649,12.96372 -0.92079,4.13109 -3.65772,7.59835 -5.05672,11.51211 1.66335,3.47587 5.25475,5.87364 8.49474,7.85986 0.94519,0.29641 1.97648,0.64668 2.96922,0.31358 z m -24.18515,-68.90994 c -0.17314,-5.15013 -5.75933,-7.39098 -9.76314,-9.22893 -3.39667,-2.44803 -7.1174,2.70476 -1.90088,3.16244 4.16614,1.49767 7.81354,4.21564 11.60539,6.31036 l 0.0587,-0.24387 v 0 z m -31.39536,-0.81244 c 4.03963,-2.59304 8.59765,-4.21935 13.13458,-5.68733 0.37798,-6.87744 -7.801,-2.32924 -10.31742,0.31616 -1.26735,0.14519 -6.35999,7.74139 -2.81716,5.37117 z"
       id="path4332"
       inkscape:connector-curvature="0" />
    <text
       id="text853"
       y="689.466"
       x="500.35657"
       style="font-style:normal;font-weight:normal;font-size:17.4999995px;line-height:1.25;font-family:sans-serif;inline-size:160.624;fill:#000000;fill-opacity:1;stroke:none;stroke-width:0.962504"
       xml:space="preserve"><tspan
         x="500.35657"
         y="689.466"
         sodipodi:role="line"><tspan
           style="font-style:normal;font-variant:normal;font-weight:100;font-stretch:normal;font-family:'Helvetica Neue';-inkscape-font-specification:'Helvetica Neue Thin';letter-spacing:0.962504px;fill:#b3ffff;fill-opacity:1;stroke-width:0.962504">Ferret Interactive</tspan><tspan
           dx="0.96250153"
           style="font-style:normal;font-variant:normal;font-weight:100;font-stretch:normal;font-family:'Helvetica Neue';-inkscape-font-specification:'Helvetica Neue Thin';fill:#b3ffff;fill-opacity:1"> </tspan></tspan><tspan
         x="500.35657"
         y="711.90385"
         sodipodi:role="line"><tspan
           style="font-style:normal;font-variant:normal;font-weight:100;font-stretch:normal;font-family:'Helvetica Neue';-inkscape-font-specification:'Helvetica Neue Thin';letter-spacing:0.962504px;fill:#b3ffff;fill-opacity:1;stroke-width:0.962504">Integrated Neuro</tspan><tspan
           dx="0.96250916"
           style="font-style:normal;font-variant:normal;font-weight:200;font-stretch:normal;font-family:'Helvetica Neue';-inkscape-font-specification:'Helvetica Neue Ultra-Light';fill:#b3ffff;fill-opacity:1;stroke-width:0.962504"> </tspan></tspan><tspan
         x="500.35657"
         y="734.24225"
         sodipodi:role="line"><tspan
           style="font-style:normal;font-variant:normal;font-weight:100;font-stretch:normal;font-family:'Helvetica Neue';-inkscape-font-specification:'Helvetica Neue Thin';fill:#b3ffff;fill-opacity:1">Development Atlas</tspan></tspan></text>
  </g>
</svg>
